%TF.GenerationSoftware,KiCad,Pcbnew,5.1.10-5.1.10*%
%TF.CreationDate,2021-10-01T00:30:02+02:00*%
%TF.ProjectId,ESP-Logger-HW,4553502d-4c6f-4676-9765-722d48572e6b,rev?*%
%TF.SameCoordinates,Original*%
%TF.FileFunction,Soldermask,Top*%
%TF.FilePolarity,Negative*%
%FSLAX46Y46*%
G04 Gerber Fmt 4.6, Leading zero omitted, Abs format (unit mm)*
G04 Created by KiCad (PCBNEW 5.1.10-5.1.10) date 2021-10-01 00:30:02*
%MOMM*%
%LPD*%
G01*
G04 APERTURE LIST*
%ADD10O,2.700000X1.100000*%
%ADD11O,1.100000X2.700000*%
%ADD12C,1.700000*%
%ADD13C,1.950000*%
G04 APERTURE END LIST*
D10*
%TO.C,ESP1*%
X57560000Y-29130000D03*
X57560000Y-30400000D03*
X57560000Y-31670000D03*
X57560000Y-32940000D03*
X57560000Y-34210000D03*
X57560000Y-35480000D03*
X57560000Y-36750000D03*
X57560000Y-38020000D03*
X57560000Y-39290000D03*
X57560000Y-40560000D03*
X57560000Y-41830000D03*
X57560000Y-43100000D03*
X57560000Y-44370000D03*
X57560000Y-45640000D03*
D11*
X54275000Y-47130000D03*
X53005000Y-47130000D03*
X51735000Y-47130000D03*
X50465000Y-47130000D03*
X49195000Y-47130000D03*
X47925000Y-47130000D03*
X46655000Y-47130000D03*
X45385000Y-47130000D03*
X44115000Y-47130000D03*
X42845000Y-47130000D03*
D10*
X39560000Y-45640000D03*
X39560000Y-44370000D03*
X39560000Y-43100000D03*
X39560000Y-41830000D03*
X39560000Y-40560000D03*
X39560000Y-39290000D03*
X39560000Y-38020000D03*
X39560000Y-36750000D03*
X39560000Y-35480000D03*
X39560000Y-34210000D03*
X39560000Y-32940000D03*
X39560000Y-31670000D03*
X39560000Y-30400000D03*
X39560000Y-29130000D03*
G36*
G01*
X51360000Y-33830000D02*
X51360000Y-39830000D01*
G75*
G02*
X51260000Y-39930000I-100000J0D01*
G01*
X45260000Y-39930000D01*
G75*
G02*
X45160000Y-39830000I0J100000D01*
G01*
X45160000Y-33830000D01*
G75*
G02*
X45260000Y-33730000I100000J0D01*
G01*
X51260000Y-33730000D01*
G75*
G02*
X51360000Y-33830000I0J-100000D01*
G01*
G37*
%TD*%
%TO.C,C1*%
G36*
G01*
X34665000Y-32130000D02*
X33915000Y-32130000D01*
G75*
G02*
X33815000Y-32030000I0J100000D01*
G01*
X33815000Y-30830000D01*
G75*
G02*
X33915000Y-30730000I100000J0D01*
G01*
X34665000Y-30730000D01*
G75*
G02*
X34765000Y-30830000I0J-100000D01*
G01*
X34765000Y-32030000D01*
G75*
G02*
X34665000Y-32130000I-100000J0D01*
G01*
G37*
G36*
G01*
X34665000Y-30230000D02*
X33915000Y-30230000D01*
G75*
G02*
X33815000Y-30130000I0J100000D01*
G01*
X33815000Y-28930000D01*
G75*
G02*
X33915000Y-28830000I100000J0D01*
G01*
X34665000Y-28830000D01*
G75*
G02*
X34765000Y-28930000I0J-100000D01*
G01*
X34765000Y-30130000D01*
G75*
G02*
X34665000Y-30230000I-100000J0D01*
G01*
G37*
%TD*%
%TO.C,C2*%
G36*
G01*
X32125000Y-30230000D02*
X31375000Y-30230000D01*
G75*
G02*
X31275000Y-30130000I0J100000D01*
G01*
X31275000Y-28930000D01*
G75*
G02*
X31375000Y-28830000I100000J0D01*
G01*
X32125000Y-28830000D01*
G75*
G02*
X32225000Y-28930000I0J-100000D01*
G01*
X32225000Y-30130000D01*
G75*
G02*
X32125000Y-30230000I-100000J0D01*
G01*
G37*
G36*
G01*
X32125000Y-32130000D02*
X31375000Y-32130000D01*
G75*
G02*
X31275000Y-32030000I0J100000D01*
G01*
X31275000Y-30830000D01*
G75*
G02*
X31375000Y-30730000I100000J0D01*
G01*
X32125000Y-30730000D01*
G75*
G02*
X32225000Y-30830000I0J-100000D01*
G01*
X32225000Y-32030000D01*
G75*
G02*
X32125000Y-32130000I-100000J0D01*
G01*
G37*
%TD*%
%TO.C,C3*%
G36*
G01*
X35630000Y-26295000D02*
X35630000Y-27045000D01*
G75*
G02*
X35530000Y-27145000I-100000J0D01*
G01*
X34330000Y-27145000D01*
G75*
G02*
X34230000Y-27045000I0J100000D01*
G01*
X34230000Y-26295000D01*
G75*
G02*
X34330000Y-26195000I100000J0D01*
G01*
X35530000Y-26195000D01*
G75*
G02*
X35630000Y-26295000I0J-100000D01*
G01*
G37*
G36*
G01*
X37530000Y-26295000D02*
X37530000Y-27045000D01*
G75*
G02*
X37430000Y-27145000I-100000J0D01*
G01*
X36230000Y-27145000D01*
G75*
G02*
X36130000Y-27045000I0J100000D01*
G01*
X36130000Y-26295000D01*
G75*
G02*
X36230000Y-26195000I100000J0D01*
G01*
X37430000Y-26195000D01*
G75*
G02*
X37530000Y-26295000I0J-100000D01*
G01*
G37*
%TD*%
%TO.C,D1*%
G36*
G01*
X27580000Y-22040000D02*
X27580000Y-21140000D01*
G75*
G02*
X27680000Y-21040000I100000J0D01*
G01*
X28880000Y-21040000D01*
G75*
G02*
X28980000Y-21140000I0J-100000D01*
G01*
X28980000Y-22040000D01*
G75*
G02*
X28880000Y-22140000I-100000J0D01*
G01*
X27680000Y-22140000D01*
G75*
G02*
X27580000Y-22040000I0J100000D01*
G01*
G37*
G36*
G01*
X29780000Y-22040000D02*
X29780000Y-21140000D01*
G75*
G02*
X29880000Y-21040000I100000J0D01*
G01*
X31080000Y-21040000D01*
G75*
G02*
X31180000Y-21140000I0J-100000D01*
G01*
X31180000Y-22040000D01*
G75*
G02*
X31080000Y-22140000I-100000J0D01*
G01*
X29880000Y-22140000D01*
G75*
G02*
X29780000Y-22040000I0J100000D01*
G01*
G37*
%TD*%
%TO.C,D2*%
G36*
G01*
X29780000Y-24580000D02*
X29780000Y-23680000D01*
G75*
G02*
X29880000Y-23580000I100000J0D01*
G01*
X31080000Y-23580000D01*
G75*
G02*
X31180000Y-23680000I0J-100000D01*
G01*
X31180000Y-24580000D01*
G75*
G02*
X31080000Y-24680000I-100000J0D01*
G01*
X29880000Y-24680000D01*
G75*
G02*
X29780000Y-24580000I0J100000D01*
G01*
G37*
G36*
G01*
X27580000Y-24580000D02*
X27580000Y-23680000D01*
G75*
G02*
X27680000Y-23580000I100000J0D01*
G01*
X28880000Y-23580000D01*
G75*
G02*
X28980000Y-23680000I0J-100000D01*
G01*
X28980000Y-24580000D01*
G75*
G02*
X28880000Y-24680000I-100000J0D01*
G01*
X27680000Y-24680000D01*
G75*
G02*
X27580000Y-24580000I0J100000D01*
G01*
G37*
%TD*%
%TO.C,D3*%
G36*
G01*
X29780000Y-27120000D02*
X29780000Y-26220000D01*
G75*
G02*
X29880000Y-26120000I100000J0D01*
G01*
X31080000Y-26120000D01*
G75*
G02*
X31180000Y-26220000I0J-100000D01*
G01*
X31180000Y-27120000D01*
G75*
G02*
X31080000Y-27220000I-100000J0D01*
G01*
X29880000Y-27220000D01*
G75*
G02*
X29780000Y-27120000I0J100000D01*
G01*
G37*
G36*
G01*
X27580000Y-27120000D02*
X27580000Y-26220000D01*
G75*
G02*
X27680000Y-26120000I100000J0D01*
G01*
X28880000Y-26120000D01*
G75*
G02*
X28980000Y-26220000I0J-100000D01*
G01*
X28980000Y-27120000D01*
G75*
G02*
X28880000Y-27220000I-100000J0D01*
G01*
X27680000Y-27220000D01*
G75*
G02*
X27580000Y-27120000I0J100000D01*
G01*
G37*
%TD*%
%TO.C,DHT1*%
G36*
G01*
X24880000Y-46570000D02*
X23380000Y-46570000D01*
G75*
G02*
X23280000Y-46470000I0J100000D01*
G01*
X23280000Y-44970000D01*
G75*
G02*
X23380000Y-44870000I100000J0D01*
G01*
X24880000Y-44870000D01*
G75*
G02*
X24980000Y-44970000I0J-100000D01*
G01*
X24980000Y-46470000D01*
G75*
G02*
X24880000Y-46570000I-100000J0D01*
G01*
G37*
D12*
X26670000Y-45720000D03*
X29210000Y-45720000D03*
X31750000Y-45720000D03*
%TD*%
D13*
%TO.C,J1*%
X24130000Y-30600000D03*
X24130000Y-33100000D03*
X24130000Y-35600000D03*
G36*
G01*
X25005000Y-39075000D02*
X23255000Y-39075000D01*
G75*
G02*
X23155000Y-38975000I0J100000D01*
G01*
X23155000Y-37225000D01*
G75*
G02*
X23255000Y-37125000I100000J0D01*
G01*
X25005000Y-37125000D01*
G75*
G02*
X25105000Y-37225000I0J-100000D01*
G01*
X25105000Y-38975000D01*
G75*
G02*
X25005000Y-39075000I-100000J0D01*
G01*
G37*
%TD*%
%TO.C,J2*%
X31750000Y-35600000D03*
G36*
G01*
X32625000Y-39075000D02*
X30875000Y-39075000D01*
G75*
G02*
X30775000Y-38975000I0J100000D01*
G01*
X30775000Y-37225000D01*
G75*
G02*
X30875000Y-37125000I100000J0D01*
G01*
X32625000Y-37125000D01*
G75*
G02*
X32725000Y-37225000I0J-100000D01*
G01*
X32725000Y-38975000D01*
G75*
G02*
X32625000Y-39075000I-100000J0D01*
G01*
G37*
%TD*%
%TO.C,R1*%
G36*
G01*
X36010000Y-45490000D02*
X35110000Y-45490000D01*
G75*
G02*
X35010000Y-45390000I0J100000D01*
G01*
X35010000Y-44190000D01*
G75*
G02*
X35110000Y-44090000I100000J0D01*
G01*
X36010000Y-44090000D01*
G75*
G02*
X36110000Y-44190000I0J-100000D01*
G01*
X36110000Y-45390000D01*
G75*
G02*
X36010000Y-45490000I-100000J0D01*
G01*
G37*
G36*
G01*
X36010000Y-47690000D02*
X35110000Y-47690000D01*
G75*
G02*
X35010000Y-47590000I0J100000D01*
G01*
X35010000Y-46390000D01*
G75*
G02*
X35110000Y-46290000I100000J0D01*
G01*
X36010000Y-46290000D01*
G75*
G02*
X36110000Y-46390000I0J-100000D01*
G01*
X36110000Y-47590000D01*
G75*
G02*
X36010000Y-47690000I-100000J0D01*
G01*
G37*
%TD*%
%TO.C,R2*%
G36*
G01*
X26100000Y-21140000D02*
X26100000Y-22040000D01*
G75*
G02*
X26000000Y-22140000I-100000J0D01*
G01*
X24800000Y-22140000D01*
G75*
G02*
X24700000Y-22040000I0J100000D01*
G01*
X24700000Y-21140000D01*
G75*
G02*
X24800000Y-21040000I100000J0D01*
G01*
X26000000Y-21040000D01*
G75*
G02*
X26100000Y-21140000I0J-100000D01*
G01*
G37*
G36*
G01*
X23900000Y-21140000D02*
X23900000Y-22040000D01*
G75*
G02*
X23800000Y-22140000I-100000J0D01*
G01*
X22600000Y-22140000D01*
G75*
G02*
X22500000Y-22040000I0J100000D01*
G01*
X22500000Y-21140000D01*
G75*
G02*
X22600000Y-21040000I100000J0D01*
G01*
X23800000Y-21040000D01*
G75*
G02*
X23900000Y-21140000I0J-100000D01*
G01*
G37*
%TD*%
%TO.C,R3*%
G36*
G01*
X23900000Y-23680000D02*
X23900000Y-24580000D01*
G75*
G02*
X23800000Y-24680000I-100000J0D01*
G01*
X22600000Y-24680000D01*
G75*
G02*
X22500000Y-24580000I0J100000D01*
G01*
X22500000Y-23680000D01*
G75*
G02*
X22600000Y-23580000I100000J0D01*
G01*
X23800000Y-23580000D01*
G75*
G02*
X23900000Y-23680000I0J-100000D01*
G01*
G37*
G36*
G01*
X26100000Y-23680000D02*
X26100000Y-24580000D01*
G75*
G02*
X26000000Y-24680000I-100000J0D01*
G01*
X24800000Y-24680000D01*
G75*
G02*
X24700000Y-24580000I0J100000D01*
G01*
X24700000Y-23680000D01*
G75*
G02*
X24800000Y-23580000I100000J0D01*
G01*
X26000000Y-23580000D01*
G75*
G02*
X26100000Y-23680000I0J-100000D01*
G01*
G37*
%TD*%
%TO.C,R4*%
G36*
G01*
X26100000Y-26220000D02*
X26100000Y-27120000D01*
G75*
G02*
X26000000Y-27220000I-100000J0D01*
G01*
X24800000Y-27220000D01*
G75*
G02*
X24700000Y-27120000I0J100000D01*
G01*
X24700000Y-26220000D01*
G75*
G02*
X24800000Y-26120000I100000J0D01*
G01*
X26000000Y-26120000D01*
G75*
G02*
X26100000Y-26220000I0J-100000D01*
G01*
G37*
G36*
G01*
X23900000Y-26220000D02*
X23900000Y-27120000D01*
G75*
G02*
X23800000Y-27220000I-100000J0D01*
G01*
X22600000Y-27220000D01*
G75*
G02*
X22500000Y-27120000I0J100000D01*
G01*
X22500000Y-26220000D01*
G75*
G02*
X22600000Y-26120000I100000J0D01*
G01*
X23800000Y-26120000D01*
G75*
G02*
X23900000Y-26220000I0J-100000D01*
G01*
G37*
%TD*%
%TO.C,R5*%
G36*
G01*
X29660000Y-29910000D02*
X28760000Y-29910000D01*
G75*
G02*
X28660000Y-29810000I0J100000D01*
G01*
X28660000Y-28610000D01*
G75*
G02*
X28760000Y-28510000I100000J0D01*
G01*
X29660000Y-28510000D01*
G75*
G02*
X29760000Y-28610000I0J-100000D01*
G01*
X29760000Y-29810000D01*
G75*
G02*
X29660000Y-29910000I-100000J0D01*
G01*
G37*
G36*
G01*
X29660000Y-32110000D02*
X28760000Y-32110000D01*
G75*
G02*
X28660000Y-32010000I0J100000D01*
G01*
X28660000Y-30810000D01*
G75*
G02*
X28760000Y-30710000I100000J0D01*
G01*
X29660000Y-30710000D01*
G75*
G02*
X29760000Y-30810000I0J-100000D01*
G01*
X29760000Y-32010000D01*
G75*
G02*
X29660000Y-32110000I-100000J0D01*
G01*
G37*
%TD*%
M02*
