M48
; DRILL file {KiCad 8.0.2} date 2024-05-26T22:22:22+0200
; FORMAT={-:-/ absolute / inch / decimal}
; #@! TF.CreationDate,2024-05-26T22:22:22+02:00
; #@! TF.GenerationSoftware,Kicad,Pcbnew,8.0.2
; #@! TF.FileFunction,Plated,1,2,PTH
FMAT,2
INCH
; #@! TA.AperFunction,Plated,PTH,ViaDrill
T1C0.0157
; #@! TA.AperFunction,Plated,PTH,ComponentDrill
T2C0.0197
; #@! TA.AperFunction,Plated,PTH,ComponentDrill
T3C0.0217
; #@! TA.AperFunction,Plated,PTH,ComponentDrill
T4C0.0315
; #@! TA.AperFunction,Plated,PTH,ComponentDrill
T5C0.0374
; #@! TA.AperFunction,Plated,PTH,ComponentDrill
T6C0.0394
%
G90
G05
T1
X0.9252Y-1.0827
X0.9843Y-1.5551
X1.0433Y-1.5945
X1.063Y-1.3976
X1.2008Y-1.1811
X1.2205Y-0.8268
X1.2205Y-0.9055
X1.2205Y-0.9843
X1.2992Y-1.1417
X1.4961Y-1.0827
X1.4961Y-1.2205
X1.6929Y-1.3386
X1.7323Y-1.3215
X1.7323Y-1.7717
X1.811Y-1.3583
X1.811Y-1.4173
X1.811Y-1.4764
X1.811Y-1.5354
X1.8701Y-1.3583
X1.8701Y-1.4173
X1.8701Y-1.4764
X1.8701Y-1.5354
X1.9291Y-1.3583
X1.9291Y-1.4173
X1.9291Y-1.4764
X1.9291Y-1.5354
X1.9882Y-1.3583
X1.9882Y-1.4173
X1.9882Y-1.4764
X1.9882Y-1.5354
X2.185Y-1.4961
X2.185Y-1.5354
X2.185Y-1.6339
T4
X0.95Y-1.8
X1.05Y-1.8
X1.15Y-1.8
X1.25Y-1.8
T5
X1.437Y-1.2795
X1.437Y-1.378
X1.437Y-1.4764
X1.437Y-1.5748
T6
X1.1211Y-1.378
X1.1211Y-1.4764
T2
G00X0.8258Y-1.3642
M15
G01X0.8514Y-1.3642
M16
G05
G00X0.8258Y-1.6398
M15
G01X0.8514Y-1.6398
M16
G05
T3
G00X0.9449Y-1.4094
M15
G01X0.9449Y-1.3976
M16
G05
G00X0.9449Y-1.6063
M15
G01X0.9449Y-1.5945
M16
G05
M30
