%TF.GenerationSoftware,KiCad,Pcbnew,8.0.2*%
%TF.CreationDate,2024-05-27T00:00:39+02:00*%
%TF.ProjectId,ESP-Logger-HW,4553502d-4c6f-4676-9765-722d48572e6b,rev?*%
%TF.SameCoordinates,Original*%
%TF.FileFunction,Paste,Top*%
%TF.FilePolarity,Positive*%
%FSLAX46Y46*%
G04 Gerber Fmt 4.6, Leading zero omitted, Abs format (unit mm)*
G04 Created by KiCad (PCBNEW 8.0.2) date 2024-05-27 00:00:39*
%MOMM*%
%LPD*%
G01*
G04 APERTURE LIST*
G04 Aperture macros list*
%AMRoundRect*
0 Rectangle with rounded corners*
0 $1 Rounding radius*
0 $2 $3 $4 $5 $6 $7 $8 $9 X,Y pos of 4 corners*
0 Add a 4 corners polygon primitive as box body*
4,1,4,$2,$3,$4,$5,$6,$7,$8,$9,$2,$3,0*
0 Add four circle primitives for the rounded corners*
1,1,$1+$1,$2,$3*
1,1,$1+$1,$4,$5*
1,1,$1+$1,$6,$7*
1,1,$1+$1,$8,$9*
0 Add four rect primitives between the rounded corners*
20,1,$1+$1,$2,$3,$4,$5,0*
20,1,$1+$1,$4,$5,$6,$7,0*
20,1,$1+$1,$6,$7,$8,$9,0*
20,1,$1+$1,$8,$9,$2,$3,0*%
G04 Aperture macros list end*
%ADD10RoundRect,0.237500X-0.287500X-0.237500X0.287500X-0.237500X0.287500X0.237500X-0.287500X0.237500X0*%
%ADD11RoundRect,0.237500X0.237500X-0.300000X0.237500X0.300000X-0.237500X0.300000X-0.237500X-0.300000X0*%
%ADD12O,2.500000X0.900000*%
%ADD13O,0.900000X2.500000*%
%ADD14R,6.000000X6.000000*%
%ADD15RoundRect,0.237500X0.250000X0.237500X-0.250000X0.237500X-0.250000X-0.237500X0.250000X-0.237500X0*%
%ADD16RoundRect,0.237500X-0.237500X0.250000X-0.237500X-0.250000X0.237500X-0.250000X0.237500X0.250000X0*%
%ADD17RoundRect,0.237500X0.237500X-0.250000X0.237500X0.250000X-0.237500X0.250000X-0.237500X-0.250000X0*%
%ADD18RoundRect,0.237500X-0.237500X0.300000X-0.237500X-0.300000X0.237500X-0.300000X0.237500X0.300000X0*%
%ADD19RoundRect,0.375000X-0.625000X-0.375000X0.625000X-0.375000X0.625000X0.375000X-0.625000X0.375000X0*%
%ADD20RoundRect,0.500000X-0.500000X-1.400000X0.500000X-1.400000X0.500000X1.400000X-0.500000X1.400000X0*%
%ADD21RoundRect,0.237500X0.300000X0.237500X-0.300000X0.237500X-0.300000X-0.237500X0.300000X-0.237500X0*%
G04 APERTURE END LIST*
D10*
%TO.C,D3*%
X26750000Y-25000000D03*
X28500000Y-25000000D03*
%TD*%
%TO.C,D2*%
X26750000Y-23000000D03*
X28500000Y-23000000D03*
%TD*%
D11*
%TO.C,C2*%
X33500000Y-30000000D03*
X33500000Y-28275000D03*
%TD*%
D12*
%TO.C,ESP1*%
X39560000Y-29130000D03*
X39560000Y-30400000D03*
X39560000Y-31670000D03*
X39560000Y-32940000D03*
X39560000Y-34210000D03*
X39560000Y-35480000D03*
X39560000Y-36750000D03*
X39560000Y-38020000D03*
X39560000Y-39290000D03*
X39560000Y-40560000D03*
X39560000Y-41830000D03*
X39560000Y-43100000D03*
X39560000Y-44370000D03*
X39560000Y-45640000D03*
D13*
X42845000Y-47130000D03*
X44115000Y-47130000D03*
X45385000Y-47130000D03*
X46655000Y-47130000D03*
X47925000Y-47130000D03*
X49195000Y-47130000D03*
X50465000Y-47130000D03*
X51735000Y-47130000D03*
X53005000Y-47130000D03*
X54275000Y-47130000D03*
D12*
X57560000Y-45640000D03*
X57560000Y-44370000D03*
X57560000Y-43100000D03*
X57560000Y-41830000D03*
X57560000Y-40560000D03*
X57560000Y-39290000D03*
X57560000Y-38020000D03*
X57560000Y-36750000D03*
X57560000Y-35480000D03*
X57560000Y-34210000D03*
X57560000Y-32940000D03*
X57560000Y-31670000D03*
X57560000Y-30400000D03*
X57560000Y-29130000D03*
D14*
X48260000Y-36830000D03*
%TD*%
D15*
%TO.C,R2*%
X24325000Y-21000000D03*
X22500000Y-21000000D03*
%TD*%
D16*
%TO.C,R1*%
X35500000Y-45675000D03*
X35500000Y-47500000D03*
%TD*%
D15*
%TO.C,R3*%
X24250000Y-23000000D03*
X22425000Y-23000000D03*
%TD*%
%TO.C,R4*%
X24250000Y-25000000D03*
X22425000Y-25000000D03*
%TD*%
D17*
%TO.C,R5*%
X33500000Y-24500000D03*
X33500000Y-22675000D03*
%TD*%
D10*
%TO.C,D1*%
X26750000Y-21000000D03*
X28500000Y-21000000D03*
%TD*%
D18*
%TO.C,C3*%
X36500000Y-22775000D03*
X36500000Y-24500000D03*
%TD*%
D11*
%TO.C,C1*%
X36500000Y-30000000D03*
X36500000Y-28275000D03*
%TD*%
D19*
%TO.C,U1*%
X21350000Y-27200000D03*
X21350000Y-29500000D03*
D20*
X27650000Y-29500000D03*
D19*
X21350000Y-31800000D03*
%TD*%
D21*
%TO.C,C4*%
X28362500Y-41500000D03*
X26637500Y-41500000D03*
%TD*%
M02*
