%TF.GenerationSoftware,KiCad,Pcbnew,8.0.2*%
%TF.CreationDate,2024-05-26T22:22:25+02:00*%
%TF.ProjectId,ESP-Logger-HW,4553502d-4c6f-4676-9765-722d48572e6b,rev?*%
%TF.SameCoordinates,Original*%
%TF.FileFunction,Drillmap*%
%TF.FilePolarity,Positive*%
%FSLAX45Y45*%
G04 Gerber Fmt 4.5, Leading zero omitted, Abs format (unit mm)*
G04 Created by KiCad (PCBNEW 8.0.2) date 2024-05-26 22:22:25*
%MOMM*%
%LPD*%
G01*
G04 APERTURE LIST*
%ADD10C,0.150000*%
%ADD11C,0.200000*%
%ADD12C,0.100000*%
G04 APERTURE END LIST*
D10*
X2000000Y-5000000D02*
X2000000Y-2000000D01*
X2000000Y-2000000D02*
X6000000Y-2000000D01*
X6000000Y-2000000D02*
X6000000Y-5000000D01*
X6000000Y-5000000D02*
X2000000Y-5000000D01*
D11*
D12*
X2330000Y-2730000D02*
X2370000Y-2770000D01*
X2370000Y-2730000D02*
X2330000Y-2770000D01*
X2480000Y-3930000D02*
X2520000Y-3970000D01*
X2520000Y-3930000D02*
X2480000Y-3970000D01*
X2630000Y-4030000D02*
X2670000Y-4070000D01*
X2670000Y-4030000D02*
X2630000Y-4070000D01*
X2680000Y-3530000D02*
X2720000Y-3570000D01*
X2720000Y-3530000D02*
X2680000Y-3570000D01*
X3030000Y-2980000D02*
X3070000Y-3020000D01*
X3070000Y-2980000D02*
X3030000Y-3020000D01*
X3080000Y-2080000D02*
X3120000Y-2120000D01*
X3120000Y-2080000D02*
X3080000Y-2120000D01*
X3080000Y-2280000D02*
X3120000Y-2320000D01*
X3120000Y-2280000D02*
X3080000Y-2320000D01*
X3080000Y-2480000D02*
X3120000Y-2520000D01*
X3120000Y-2480000D02*
X3080000Y-2520000D01*
X3280000Y-2880000D02*
X3320000Y-2920000D01*
X3320000Y-2880000D02*
X3280000Y-2920000D01*
X3780000Y-2730000D02*
X3820000Y-2770000D01*
X3820000Y-2730000D02*
X3780000Y-2770000D01*
X3780000Y-3080000D02*
X3820000Y-3120000D01*
X3820000Y-3080000D02*
X3780000Y-3120000D01*
X4280000Y-3380000D02*
X4320000Y-3420000D01*
X4320000Y-3380000D02*
X4280000Y-3420000D01*
X4380000Y-3336500D02*
X4420000Y-3376500D01*
X4420000Y-3336500D02*
X4380000Y-3376500D01*
X4380000Y-4480000D02*
X4420000Y-4520000D01*
X4420000Y-4480000D02*
X4380000Y-4520000D01*
X4580000Y-3430000D02*
X4620000Y-3470000D01*
X4620000Y-3430000D02*
X4580000Y-3470000D01*
X4580000Y-3580000D02*
X4620000Y-3620000D01*
X4620000Y-3580000D02*
X4580000Y-3620000D01*
X4580000Y-3730000D02*
X4620000Y-3770000D01*
X4620000Y-3730000D02*
X4580000Y-3770000D01*
X4580000Y-3880000D02*
X4620000Y-3920000D01*
X4620000Y-3880000D02*
X4580000Y-3920000D01*
X4730000Y-3430000D02*
X4770000Y-3470000D01*
X4770000Y-3430000D02*
X4730000Y-3470000D01*
X4730000Y-3580000D02*
X4770000Y-3620000D01*
X4770000Y-3580000D02*
X4730000Y-3620000D01*
X4730000Y-3730000D02*
X4770000Y-3770000D01*
X4770000Y-3730000D02*
X4730000Y-3770000D01*
X4730000Y-3880000D02*
X4770000Y-3920000D01*
X4770000Y-3880000D02*
X4730000Y-3920000D01*
X4880000Y-3430000D02*
X4920000Y-3470000D01*
X4920000Y-3430000D02*
X4880000Y-3470000D01*
X4880000Y-3580000D02*
X4920000Y-3620000D01*
X4920000Y-3580000D02*
X4880000Y-3620000D01*
X4880000Y-3730000D02*
X4920000Y-3770000D01*
X4920000Y-3730000D02*
X4880000Y-3770000D01*
X4880000Y-3880000D02*
X4920000Y-3920000D01*
X4920000Y-3880000D02*
X4880000Y-3920000D01*
X5030000Y-3430000D02*
X5070000Y-3470000D01*
X5070000Y-3430000D02*
X5030000Y-3470000D01*
X5030000Y-3580000D02*
X5070000Y-3620000D01*
X5070000Y-3580000D02*
X5030000Y-3620000D01*
X5030000Y-3730000D02*
X5070000Y-3770000D01*
X5070000Y-3730000D02*
X5030000Y-3770000D01*
X5030000Y-3880000D02*
X5070000Y-3920000D01*
X5070000Y-3880000D02*
X5030000Y-3920000D01*
X5530000Y-3780000D02*
X5570000Y-3820000D01*
X5570000Y-3780000D02*
X5530000Y-3820000D01*
X5530000Y-3880000D02*
X5570000Y-3920000D01*
X5570000Y-3880000D02*
X5530000Y-3920000D01*
X5530000Y-4130000D02*
X5570000Y-4170000D01*
X5570000Y-4130000D02*
X5530000Y-4170000D01*
X2155000Y-3465000D02*
G75*
G02*
X2105000Y-3465000I-25000J0D01*
G01*
X2105000Y-3465000D02*
G75*
G02*
X2155000Y-3465000I25000J0D01*
G01*
X2097500Y-3490000D02*
X2162500Y-3490000D01*
X2162500Y-3440000D02*
G75*
G02*
X2162500Y-3490000I0J-25000D01*
G01*
X2162500Y-3440000D02*
X2097500Y-3440000D01*
X2097500Y-3440000D02*
G75*
G03*
X2097500Y-3490000I0J-25000D01*
G01*
X2155000Y-4165000D02*
G75*
G02*
X2105000Y-4165000I-25000J0D01*
G01*
X2105000Y-4165000D02*
G75*
G02*
X2155000Y-4165000I25000J0D01*
G01*
X2097500Y-4190000D02*
X2162500Y-4190000D01*
X2162500Y-4140000D02*
G75*
G02*
X2162500Y-4190000I0J-25000D01*
G01*
X2162500Y-4140000D02*
X2097500Y-4140000D01*
X2097500Y-4140000D02*
G75*
G03*
X2097500Y-4190000I0J-25000D01*
G01*
X2400000Y-3537500D02*
X2400000Y-3592500D01*
X2372500Y-3565000D02*
X2427500Y-3565000D01*
X2427500Y-3580000D02*
X2427500Y-3550000D01*
X2372500Y-3550000D02*
G75*
G02*
X2427500Y-3550000I27500J0D01*
G01*
X2372500Y-3550000D02*
X2372500Y-3580000D01*
X2372500Y-3580000D02*
G75*
G03*
X2427500Y-3580000I27500J0D01*
G01*
X2400000Y-4037500D02*
X2400000Y-4092500D01*
X2372500Y-4065000D02*
X2427500Y-4065000D01*
X2427500Y-4080000D02*
X2427500Y-4050000D01*
X2372500Y-4050000D02*
G75*
G02*
X2427500Y-4050000I27500J0D01*
G01*
X2372500Y-4050000D02*
X2372500Y-4080000D01*
X2372500Y-4080000D02*
G75*
G03*
X2427500Y-4080000I27500J0D01*
G01*
X2441285Y-4600285D02*
X2441285Y-4543716D01*
X2384716Y-4543716D01*
X2384716Y-4600285D01*
X2441285Y-4600285D01*
X2695285Y-4600285D02*
X2695285Y-4543716D01*
X2638716Y-4543716D01*
X2638716Y-4600285D01*
X2695285Y-4600285D01*
X2949284Y-4600285D02*
X2949284Y-4543716D01*
X2892715Y-4543716D01*
X2892715Y-4600285D01*
X2949284Y-4600285D01*
X3203284Y-4600285D02*
X3203284Y-4543716D01*
X3146715Y-4543716D01*
X3146715Y-4600285D01*
X3203284Y-4600285D01*
X3650000Y-3297500D02*
X3697500Y-3250000D01*
X3650000Y-3202500D01*
X3602500Y-3250000D01*
X3650000Y-3297500D01*
X3650000Y-3547500D02*
X3697500Y-3500000D01*
X3650000Y-3452500D01*
X3602500Y-3500000D01*
X3650000Y-3547500D01*
X3650000Y-3797500D02*
X3697500Y-3750000D01*
X3650000Y-3702500D01*
X3602500Y-3750000D01*
X3650000Y-3797500D01*
X3650000Y-4047500D02*
X3697500Y-4000000D01*
X3650000Y-3952500D01*
X3602500Y-4000000D01*
X3650000Y-4047500D01*
X2797500Y-3450000D02*
X2897500Y-3550000D01*
X2897500Y-3450000D02*
X2797500Y-3550000D01*
X2897500Y-3500000D02*
G75*
G02*
X2797500Y-3500000I-50000J0D01*
G01*
X2797500Y-3500000D02*
G75*
G02*
X2897500Y-3500000I50000J0D01*
G01*
X2797500Y-3700000D02*
X2897500Y-3800000D01*
X2897500Y-3700000D02*
X2797500Y-3800000D01*
X2897500Y-3750000D02*
G75*
G02*
X2797500Y-3750000I-50000J0D01*
G01*
X2797500Y-3750000D02*
G75*
G02*
X2897500Y-3750000I50000J0D01*
G01*
D11*
X2253277Y-5318984D02*
X2253277Y-5118984D01*
X2253277Y-5118984D02*
X2300896Y-5118984D01*
X2300896Y-5118984D02*
X2329467Y-5128508D01*
X2329467Y-5128508D02*
X2348515Y-5147555D01*
X2348515Y-5147555D02*
X2358039Y-5166603D01*
X2358039Y-5166603D02*
X2367563Y-5204698D01*
X2367563Y-5204698D02*
X2367563Y-5233270D01*
X2367563Y-5233270D02*
X2358039Y-5271365D01*
X2358039Y-5271365D02*
X2348515Y-5290412D01*
X2348515Y-5290412D02*
X2329467Y-5309460D01*
X2329467Y-5309460D02*
X2300896Y-5318984D01*
X2300896Y-5318984D02*
X2253277Y-5318984D01*
X2453277Y-5318984D02*
X2453277Y-5185650D01*
X2453277Y-5223746D02*
X2462801Y-5204698D01*
X2462801Y-5204698D02*
X2472324Y-5195174D01*
X2472324Y-5195174D02*
X2491372Y-5185650D01*
X2491372Y-5185650D02*
X2510420Y-5185650D01*
X2577086Y-5318984D02*
X2577086Y-5185650D01*
X2577086Y-5118984D02*
X2567563Y-5128508D01*
X2567563Y-5128508D02*
X2577086Y-5138031D01*
X2577086Y-5138031D02*
X2586610Y-5128508D01*
X2586610Y-5128508D02*
X2577086Y-5118984D01*
X2577086Y-5118984D02*
X2577086Y-5138031D01*
X2700896Y-5318984D02*
X2681848Y-5309460D01*
X2681848Y-5309460D02*
X2672324Y-5290412D01*
X2672324Y-5290412D02*
X2672324Y-5118984D01*
X2805658Y-5318984D02*
X2786610Y-5309460D01*
X2786610Y-5309460D02*
X2777086Y-5290412D01*
X2777086Y-5290412D02*
X2777086Y-5118984D01*
X3034229Y-5318984D02*
X3034229Y-5118984D01*
X3034229Y-5118984D02*
X3100896Y-5261841D01*
X3100896Y-5261841D02*
X3167562Y-5118984D01*
X3167562Y-5118984D02*
X3167562Y-5318984D01*
X3348515Y-5318984D02*
X3348515Y-5214222D01*
X3348515Y-5214222D02*
X3338991Y-5195174D01*
X3338991Y-5195174D02*
X3319943Y-5185650D01*
X3319943Y-5185650D02*
X3281848Y-5185650D01*
X3281848Y-5185650D02*
X3262801Y-5195174D01*
X3348515Y-5309460D02*
X3329467Y-5318984D01*
X3329467Y-5318984D02*
X3281848Y-5318984D01*
X3281848Y-5318984D02*
X3262801Y-5309460D01*
X3262801Y-5309460D02*
X3253277Y-5290412D01*
X3253277Y-5290412D02*
X3253277Y-5271365D01*
X3253277Y-5271365D02*
X3262801Y-5252317D01*
X3262801Y-5252317D02*
X3281848Y-5242793D01*
X3281848Y-5242793D02*
X3329467Y-5242793D01*
X3329467Y-5242793D02*
X3348515Y-5233270D01*
X3443753Y-5185650D02*
X3443753Y-5385650D01*
X3443753Y-5195174D02*
X3462801Y-5185650D01*
X3462801Y-5185650D02*
X3500896Y-5185650D01*
X3500896Y-5185650D02*
X3519943Y-5195174D01*
X3519943Y-5195174D02*
X3529467Y-5204698D01*
X3529467Y-5204698D02*
X3538991Y-5223746D01*
X3538991Y-5223746D02*
X3538991Y-5280889D01*
X3538991Y-5280889D02*
X3529467Y-5299936D01*
X3529467Y-5299936D02*
X3519943Y-5309460D01*
X3519943Y-5309460D02*
X3500896Y-5318984D01*
X3500896Y-5318984D02*
X3462801Y-5318984D01*
X3462801Y-5318984D02*
X3443753Y-5309460D01*
X3624705Y-5299936D02*
X3634229Y-5309460D01*
X3634229Y-5309460D02*
X3624705Y-5318984D01*
X3624705Y-5318984D02*
X3615182Y-5309460D01*
X3615182Y-5309460D02*
X3624705Y-5299936D01*
X3624705Y-5299936D02*
X3624705Y-5318984D01*
X3624705Y-5195174D02*
X3634229Y-5204698D01*
X3634229Y-5204698D02*
X3624705Y-5214222D01*
X3624705Y-5214222D02*
X3615182Y-5204698D01*
X3615182Y-5204698D02*
X3624705Y-5195174D01*
X3624705Y-5195174D02*
X3624705Y-5214222D01*
D12*
X1952500Y-5627500D02*
X1992500Y-5667500D01*
X1992500Y-5627500D02*
X1952500Y-5667500D01*
D11*
X2291372Y-5538984D02*
X2310420Y-5538984D01*
X2310420Y-5538984D02*
X2329467Y-5548508D01*
X2329467Y-5548508D02*
X2338991Y-5558031D01*
X2338991Y-5558031D02*
X2348515Y-5577079D01*
X2348515Y-5577079D02*
X2358039Y-5615174D01*
X2358039Y-5615174D02*
X2358039Y-5662793D01*
X2358039Y-5662793D02*
X2348515Y-5700888D01*
X2348515Y-5700888D02*
X2338991Y-5719936D01*
X2338991Y-5719936D02*
X2329467Y-5729460D01*
X2329467Y-5729460D02*
X2310420Y-5738984D01*
X2310420Y-5738984D02*
X2291372Y-5738984D01*
X2291372Y-5738984D02*
X2272324Y-5729460D01*
X2272324Y-5729460D02*
X2262801Y-5719936D01*
X2262801Y-5719936D02*
X2253277Y-5700888D01*
X2253277Y-5700888D02*
X2243753Y-5662793D01*
X2243753Y-5662793D02*
X2243753Y-5615174D01*
X2243753Y-5615174D02*
X2253277Y-5577079D01*
X2253277Y-5577079D02*
X2262801Y-5558031D01*
X2262801Y-5558031D02*
X2272324Y-5548508D01*
X2272324Y-5548508D02*
X2291372Y-5538984D01*
X2443753Y-5719936D02*
X2453277Y-5729460D01*
X2453277Y-5729460D02*
X2443753Y-5738984D01*
X2443753Y-5738984D02*
X2434229Y-5729460D01*
X2434229Y-5729460D02*
X2443753Y-5719936D01*
X2443753Y-5719936D02*
X2443753Y-5738984D01*
X2624705Y-5605650D02*
X2624705Y-5738984D01*
X2577086Y-5529460D02*
X2529467Y-5672317D01*
X2529467Y-5672317D02*
X2653277Y-5672317D01*
X2767563Y-5538984D02*
X2786610Y-5538984D01*
X2786610Y-5538984D02*
X2805658Y-5548508D01*
X2805658Y-5548508D02*
X2815182Y-5558031D01*
X2815182Y-5558031D02*
X2824705Y-5577079D01*
X2824705Y-5577079D02*
X2834229Y-5615174D01*
X2834229Y-5615174D02*
X2834229Y-5662793D01*
X2834229Y-5662793D02*
X2824705Y-5700888D01*
X2824705Y-5700888D02*
X2815182Y-5719936D01*
X2815182Y-5719936D02*
X2805658Y-5729460D01*
X2805658Y-5729460D02*
X2786610Y-5738984D01*
X2786610Y-5738984D02*
X2767563Y-5738984D01*
X2767563Y-5738984D02*
X2748515Y-5729460D01*
X2748515Y-5729460D02*
X2738991Y-5719936D01*
X2738991Y-5719936D02*
X2729467Y-5700888D01*
X2729467Y-5700888D02*
X2719944Y-5662793D01*
X2719944Y-5662793D02*
X2719944Y-5615174D01*
X2719944Y-5615174D02*
X2729467Y-5577079D01*
X2729467Y-5577079D02*
X2738991Y-5558031D01*
X2738991Y-5558031D02*
X2748515Y-5548508D01*
X2748515Y-5548508D02*
X2767563Y-5538984D01*
X2958039Y-5538984D02*
X2977086Y-5538984D01*
X2977086Y-5538984D02*
X2996134Y-5548508D01*
X2996134Y-5548508D02*
X3005658Y-5558031D01*
X3005658Y-5558031D02*
X3015182Y-5577079D01*
X3015182Y-5577079D02*
X3024705Y-5615174D01*
X3024705Y-5615174D02*
X3024705Y-5662793D01*
X3024705Y-5662793D02*
X3015182Y-5700888D01*
X3015182Y-5700888D02*
X3005658Y-5719936D01*
X3005658Y-5719936D02*
X2996134Y-5729460D01*
X2996134Y-5729460D02*
X2977086Y-5738984D01*
X2977086Y-5738984D02*
X2958039Y-5738984D01*
X2958039Y-5738984D02*
X2938991Y-5729460D01*
X2938991Y-5729460D02*
X2929467Y-5719936D01*
X2929467Y-5719936D02*
X2919943Y-5700888D01*
X2919943Y-5700888D02*
X2910420Y-5662793D01*
X2910420Y-5662793D02*
X2910420Y-5615174D01*
X2910420Y-5615174D02*
X2919943Y-5577079D01*
X2919943Y-5577079D02*
X2929467Y-5558031D01*
X2929467Y-5558031D02*
X2938991Y-5548508D01*
X2938991Y-5548508D02*
X2958039Y-5538984D01*
X3110420Y-5738984D02*
X3110420Y-5605650D01*
X3110420Y-5624698D02*
X3119943Y-5615174D01*
X3119943Y-5615174D02*
X3138991Y-5605650D01*
X3138991Y-5605650D02*
X3167563Y-5605650D01*
X3167563Y-5605650D02*
X3186610Y-5615174D01*
X3186610Y-5615174D02*
X3196134Y-5634222D01*
X3196134Y-5634222D02*
X3196134Y-5738984D01*
X3196134Y-5634222D02*
X3205658Y-5615174D01*
X3205658Y-5615174D02*
X3224705Y-5605650D01*
X3224705Y-5605650D02*
X3253277Y-5605650D01*
X3253277Y-5605650D02*
X3272324Y-5615174D01*
X3272324Y-5615174D02*
X3281848Y-5634222D01*
X3281848Y-5634222D02*
X3281848Y-5738984D01*
X3377086Y-5738984D02*
X3377086Y-5605650D01*
X3377086Y-5624698D02*
X3386610Y-5615174D01*
X3386610Y-5615174D02*
X3405658Y-5605650D01*
X3405658Y-5605650D02*
X3434229Y-5605650D01*
X3434229Y-5605650D02*
X3453277Y-5615174D01*
X3453277Y-5615174D02*
X3462801Y-5634222D01*
X3462801Y-5634222D02*
X3462801Y-5738984D01*
X3462801Y-5634222D02*
X3472324Y-5615174D01*
X3472324Y-5615174D02*
X3491372Y-5605650D01*
X3491372Y-5605650D02*
X3519943Y-5605650D01*
X3519943Y-5605650D02*
X3538991Y-5615174D01*
X3538991Y-5615174D02*
X3548515Y-5634222D01*
X3548515Y-5634222D02*
X3548515Y-5738984D01*
X3938991Y-5529460D02*
X3767563Y-5786603D01*
X4196134Y-5538984D02*
X4215182Y-5538984D01*
X4215182Y-5538984D02*
X4234229Y-5548508D01*
X4234229Y-5548508D02*
X4243753Y-5558031D01*
X4243753Y-5558031D02*
X4253277Y-5577079D01*
X4253277Y-5577079D02*
X4262801Y-5615174D01*
X4262801Y-5615174D02*
X4262801Y-5662793D01*
X4262801Y-5662793D02*
X4253277Y-5700888D01*
X4253277Y-5700888D02*
X4243753Y-5719936D01*
X4243753Y-5719936D02*
X4234229Y-5729460D01*
X4234229Y-5729460D02*
X4215182Y-5738984D01*
X4215182Y-5738984D02*
X4196134Y-5738984D01*
X4196134Y-5738984D02*
X4177086Y-5729460D01*
X4177086Y-5729460D02*
X4167563Y-5719936D01*
X4167563Y-5719936D02*
X4158039Y-5700888D01*
X4158039Y-5700888D02*
X4148515Y-5662793D01*
X4148515Y-5662793D02*
X4148515Y-5615174D01*
X4148515Y-5615174D02*
X4158039Y-5577079D01*
X4158039Y-5577079D02*
X4167563Y-5558031D01*
X4167563Y-5558031D02*
X4177086Y-5548508D01*
X4177086Y-5548508D02*
X4196134Y-5538984D01*
X4348515Y-5719936D02*
X4358039Y-5729460D01*
X4358039Y-5729460D02*
X4348515Y-5738984D01*
X4348515Y-5738984D02*
X4338991Y-5729460D01*
X4338991Y-5729460D02*
X4348515Y-5719936D01*
X4348515Y-5719936D02*
X4348515Y-5738984D01*
X4481848Y-5538984D02*
X4500896Y-5538984D01*
X4500896Y-5538984D02*
X4519944Y-5548508D01*
X4519944Y-5548508D02*
X4529468Y-5558031D01*
X4529468Y-5558031D02*
X4538991Y-5577079D01*
X4538991Y-5577079D02*
X4548515Y-5615174D01*
X4548515Y-5615174D02*
X4548515Y-5662793D01*
X4548515Y-5662793D02*
X4538991Y-5700888D01*
X4538991Y-5700888D02*
X4529468Y-5719936D01*
X4529468Y-5719936D02*
X4519944Y-5729460D01*
X4519944Y-5729460D02*
X4500896Y-5738984D01*
X4500896Y-5738984D02*
X4481848Y-5738984D01*
X4481848Y-5738984D02*
X4462801Y-5729460D01*
X4462801Y-5729460D02*
X4453277Y-5719936D01*
X4453277Y-5719936D02*
X4443753Y-5700888D01*
X4443753Y-5700888D02*
X4434229Y-5662793D01*
X4434229Y-5662793D02*
X4434229Y-5615174D01*
X4434229Y-5615174D02*
X4443753Y-5577079D01*
X4443753Y-5577079D02*
X4453277Y-5558031D01*
X4453277Y-5558031D02*
X4462801Y-5548508D01*
X4462801Y-5548508D02*
X4481848Y-5538984D01*
X4738991Y-5738984D02*
X4624706Y-5738984D01*
X4681848Y-5738984D02*
X4681848Y-5538984D01*
X4681848Y-5538984D02*
X4662801Y-5567555D01*
X4662801Y-5567555D02*
X4643753Y-5586603D01*
X4643753Y-5586603D02*
X4624706Y-5596127D01*
X4919944Y-5538984D02*
X4824706Y-5538984D01*
X4824706Y-5538984D02*
X4815182Y-5634222D01*
X4815182Y-5634222D02*
X4824706Y-5624698D01*
X4824706Y-5624698D02*
X4843753Y-5615174D01*
X4843753Y-5615174D02*
X4891372Y-5615174D01*
X4891372Y-5615174D02*
X4910420Y-5624698D01*
X4910420Y-5624698D02*
X4919944Y-5634222D01*
X4919944Y-5634222D02*
X4929468Y-5653269D01*
X4929468Y-5653269D02*
X4929468Y-5700888D01*
X4929468Y-5700888D02*
X4919944Y-5719936D01*
X4919944Y-5719936D02*
X4910420Y-5729460D01*
X4910420Y-5729460D02*
X4891372Y-5738984D01*
X4891372Y-5738984D02*
X4843753Y-5738984D01*
X4843753Y-5738984D02*
X4824706Y-5729460D01*
X4824706Y-5729460D02*
X4815182Y-5719936D01*
X4996134Y-5538984D02*
X5129468Y-5538984D01*
X5129468Y-5538984D02*
X5043753Y-5738984D01*
X5196134Y-5538984D02*
X5196134Y-5577079D01*
X5272325Y-5538984D02*
X5272325Y-5577079D01*
X5567563Y-5815174D02*
X5558039Y-5805650D01*
X5558039Y-5805650D02*
X5538991Y-5777079D01*
X5538991Y-5777079D02*
X5529468Y-5758031D01*
X5529468Y-5758031D02*
X5519944Y-5729460D01*
X5519944Y-5729460D02*
X5510420Y-5681841D01*
X5510420Y-5681841D02*
X5510420Y-5643746D01*
X5510420Y-5643746D02*
X5519944Y-5596127D01*
X5519944Y-5596127D02*
X5529468Y-5567555D01*
X5529468Y-5567555D02*
X5538991Y-5548508D01*
X5538991Y-5548508D02*
X5558039Y-5519936D01*
X5558039Y-5519936D02*
X5567563Y-5510412D01*
X5624706Y-5538984D02*
X5748515Y-5538984D01*
X5748515Y-5538984D02*
X5681848Y-5615174D01*
X5681848Y-5615174D02*
X5710420Y-5615174D01*
X5710420Y-5615174D02*
X5729468Y-5624698D01*
X5729468Y-5624698D02*
X5738991Y-5634222D01*
X5738991Y-5634222D02*
X5748515Y-5653269D01*
X5748515Y-5653269D02*
X5748515Y-5700888D01*
X5748515Y-5700888D02*
X5738991Y-5719936D01*
X5738991Y-5719936D02*
X5729468Y-5729460D01*
X5729468Y-5729460D02*
X5710420Y-5738984D01*
X5710420Y-5738984D02*
X5653277Y-5738984D01*
X5653277Y-5738984D02*
X5634229Y-5729460D01*
X5634229Y-5729460D02*
X5624706Y-5719936D01*
X5815182Y-5538984D02*
X5938991Y-5538984D01*
X5938991Y-5538984D02*
X5872325Y-5615174D01*
X5872325Y-5615174D02*
X5900896Y-5615174D01*
X5900896Y-5615174D02*
X5919944Y-5624698D01*
X5919944Y-5624698D02*
X5929468Y-5634222D01*
X5929468Y-5634222D02*
X5938991Y-5653269D01*
X5938991Y-5653269D02*
X5938991Y-5700888D01*
X5938991Y-5700888D02*
X5929468Y-5719936D01*
X5929468Y-5719936D02*
X5919944Y-5729460D01*
X5919944Y-5729460D02*
X5900896Y-5738984D01*
X5900896Y-5738984D02*
X5843753Y-5738984D01*
X5843753Y-5738984D02*
X5824706Y-5729460D01*
X5824706Y-5729460D02*
X5815182Y-5719936D01*
X6177087Y-5738984D02*
X6177087Y-5538984D01*
X6262801Y-5738984D02*
X6262801Y-5634222D01*
X6262801Y-5634222D02*
X6253277Y-5615174D01*
X6253277Y-5615174D02*
X6234230Y-5605650D01*
X6234230Y-5605650D02*
X6205658Y-5605650D01*
X6205658Y-5605650D02*
X6186610Y-5615174D01*
X6186610Y-5615174D02*
X6177087Y-5624698D01*
X6386610Y-5738984D02*
X6367563Y-5729460D01*
X6367563Y-5729460D02*
X6358039Y-5719936D01*
X6358039Y-5719936D02*
X6348515Y-5700888D01*
X6348515Y-5700888D02*
X6348515Y-5643746D01*
X6348515Y-5643746D02*
X6358039Y-5624698D01*
X6358039Y-5624698D02*
X6367563Y-5615174D01*
X6367563Y-5615174D02*
X6386610Y-5605650D01*
X6386610Y-5605650D02*
X6415182Y-5605650D01*
X6415182Y-5605650D02*
X6434230Y-5615174D01*
X6434230Y-5615174D02*
X6443753Y-5624698D01*
X6443753Y-5624698D02*
X6453277Y-5643746D01*
X6453277Y-5643746D02*
X6453277Y-5700888D01*
X6453277Y-5700888D02*
X6443753Y-5719936D01*
X6443753Y-5719936D02*
X6434230Y-5729460D01*
X6434230Y-5729460D02*
X6415182Y-5738984D01*
X6415182Y-5738984D02*
X6386610Y-5738984D01*
X6567563Y-5738984D02*
X6548515Y-5729460D01*
X6548515Y-5729460D02*
X6538991Y-5710412D01*
X6538991Y-5710412D02*
X6538991Y-5538984D01*
X6719944Y-5729460D02*
X6700896Y-5738984D01*
X6700896Y-5738984D02*
X6662801Y-5738984D01*
X6662801Y-5738984D02*
X6643753Y-5729460D01*
X6643753Y-5729460D02*
X6634230Y-5710412D01*
X6634230Y-5710412D02*
X6634230Y-5634222D01*
X6634230Y-5634222D02*
X6643753Y-5615174D01*
X6643753Y-5615174D02*
X6662801Y-5605650D01*
X6662801Y-5605650D02*
X6700896Y-5605650D01*
X6700896Y-5605650D02*
X6719944Y-5615174D01*
X6719944Y-5615174D02*
X6729468Y-5634222D01*
X6729468Y-5634222D02*
X6729468Y-5653269D01*
X6729468Y-5653269D02*
X6634230Y-5672317D01*
X6805658Y-5729460D02*
X6824706Y-5738984D01*
X6824706Y-5738984D02*
X6862801Y-5738984D01*
X6862801Y-5738984D02*
X6881849Y-5729460D01*
X6881849Y-5729460D02*
X6891372Y-5710412D01*
X6891372Y-5710412D02*
X6891372Y-5700888D01*
X6891372Y-5700888D02*
X6881849Y-5681841D01*
X6881849Y-5681841D02*
X6862801Y-5672317D01*
X6862801Y-5672317D02*
X6834230Y-5672317D01*
X6834230Y-5672317D02*
X6815182Y-5662793D01*
X6815182Y-5662793D02*
X6805658Y-5643746D01*
X6805658Y-5643746D02*
X6805658Y-5634222D01*
X6805658Y-5634222D02*
X6815182Y-5615174D01*
X6815182Y-5615174D02*
X6834230Y-5605650D01*
X6834230Y-5605650D02*
X6862801Y-5605650D01*
X6862801Y-5605650D02*
X6881849Y-5615174D01*
X6958039Y-5815174D02*
X6967563Y-5805650D01*
X6967563Y-5805650D02*
X6986611Y-5777079D01*
X6986611Y-5777079D02*
X6996134Y-5758031D01*
X6996134Y-5758031D02*
X7005658Y-5729460D01*
X7005658Y-5729460D02*
X7015182Y-5681841D01*
X7015182Y-5681841D02*
X7015182Y-5643746D01*
X7015182Y-5643746D02*
X7005658Y-5596127D01*
X7005658Y-5596127D02*
X6996134Y-5567555D01*
X6996134Y-5567555D02*
X6986611Y-5548508D01*
X6986611Y-5548508D02*
X6967563Y-5519936D01*
X6967563Y-5519936D02*
X6958039Y-5510412D01*
D12*
X1992500Y-5911500D02*
G75*
G02*
X1942500Y-5911500I-25000J0D01*
G01*
X1942500Y-5911500D02*
G75*
G02*
X1992500Y-5911500I25000J0D01*
G01*
D11*
X2291372Y-5802984D02*
X2310420Y-5802984D01*
X2310420Y-5802984D02*
X2329467Y-5812508D01*
X2329467Y-5812508D02*
X2338991Y-5822031D01*
X2338991Y-5822031D02*
X2348515Y-5841079D01*
X2348515Y-5841079D02*
X2358039Y-5879174D01*
X2358039Y-5879174D02*
X2358039Y-5926793D01*
X2358039Y-5926793D02*
X2348515Y-5964888D01*
X2348515Y-5964888D02*
X2338991Y-5983936D01*
X2338991Y-5983936D02*
X2329467Y-5993460D01*
X2329467Y-5993460D02*
X2310420Y-6002984D01*
X2310420Y-6002984D02*
X2291372Y-6002984D01*
X2291372Y-6002984D02*
X2272324Y-5993460D01*
X2272324Y-5993460D02*
X2262801Y-5983936D01*
X2262801Y-5983936D02*
X2253277Y-5964888D01*
X2253277Y-5964888D02*
X2243753Y-5926793D01*
X2243753Y-5926793D02*
X2243753Y-5879174D01*
X2243753Y-5879174D02*
X2253277Y-5841079D01*
X2253277Y-5841079D02*
X2262801Y-5822031D01*
X2262801Y-5822031D02*
X2272324Y-5812508D01*
X2272324Y-5812508D02*
X2291372Y-5802984D01*
X2443753Y-5983936D02*
X2453277Y-5993460D01*
X2453277Y-5993460D02*
X2443753Y-6002984D01*
X2443753Y-6002984D02*
X2434229Y-5993460D01*
X2434229Y-5993460D02*
X2443753Y-5983936D01*
X2443753Y-5983936D02*
X2443753Y-6002984D01*
X2634229Y-5802984D02*
X2538991Y-5802984D01*
X2538991Y-5802984D02*
X2529467Y-5898222D01*
X2529467Y-5898222D02*
X2538991Y-5888698D01*
X2538991Y-5888698D02*
X2558039Y-5879174D01*
X2558039Y-5879174D02*
X2605658Y-5879174D01*
X2605658Y-5879174D02*
X2624705Y-5888698D01*
X2624705Y-5888698D02*
X2634229Y-5898222D01*
X2634229Y-5898222D02*
X2643753Y-5917269D01*
X2643753Y-5917269D02*
X2643753Y-5964888D01*
X2643753Y-5964888D02*
X2634229Y-5983936D01*
X2634229Y-5983936D02*
X2624705Y-5993460D01*
X2624705Y-5993460D02*
X2605658Y-6002984D01*
X2605658Y-6002984D02*
X2558039Y-6002984D01*
X2558039Y-6002984D02*
X2538991Y-5993460D01*
X2538991Y-5993460D02*
X2529467Y-5983936D01*
X2767563Y-5802984D02*
X2786610Y-5802984D01*
X2786610Y-5802984D02*
X2805658Y-5812508D01*
X2805658Y-5812508D02*
X2815182Y-5822031D01*
X2815182Y-5822031D02*
X2824705Y-5841079D01*
X2824705Y-5841079D02*
X2834229Y-5879174D01*
X2834229Y-5879174D02*
X2834229Y-5926793D01*
X2834229Y-5926793D02*
X2824705Y-5964888D01*
X2824705Y-5964888D02*
X2815182Y-5983936D01*
X2815182Y-5983936D02*
X2805658Y-5993460D01*
X2805658Y-5993460D02*
X2786610Y-6002984D01*
X2786610Y-6002984D02*
X2767563Y-6002984D01*
X2767563Y-6002984D02*
X2748515Y-5993460D01*
X2748515Y-5993460D02*
X2738991Y-5983936D01*
X2738991Y-5983936D02*
X2729467Y-5964888D01*
X2729467Y-5964888D02*
X2719944Y-5926793D01*
X2719944Y-5926793D02*
X2719944Y-5879174D01*
X2719944Y-5879174D02*
X2729467Y-5841079D01*
X2729467Y-5841079D02*
X2738991Y-5822031D01*
X2738991Y-5822031D02*
X2748515Y-5812508D01*
X2748515Y-5812508D02*
X2767563Y-5802984D01*
X2958039Y-5802984D02*
X2977086Y-5802984D01*
X2977086Y-5802984D02*
X2996134Y-5812508D01*
X2996134Y-5812508D02*
X3005658Y-5822031D01*
X3005658Y-5822031D02*
X3015182Y-5841079D01*
X3015182Y-5841079D02*
X3024705Y-5879174D01*
X3024705Y-5879174D02*
X3024705Y-5926793D01*
X3024705Y-5926793D02*
X3015182Y-5964888D01*
X3015182Y-5964888D02*
X3005658Y-5983936D01*
X3005658Y-5983936D02*
X2996134Y-5993460D01*
X2996134Y-5993460D02*
X2977086Y-6002984D01*
X2977086Y-6002984D02*
X2958039Y-6002984D01*
X2958039Y-6002984D02*
X2938991Y-5993460D01*
X2938991Y-5993460D02*
X2929467Y-5983936D01*
X2929467Y-5983936D02*
X2919943Y-5964888D01*
X2919943Y-5964888D02*
X2910420Y-5926793D01*
X2910420Y-5926793D02*
X2910420Y-5879174D01*
X2910420Y-5879174D02*
X2919943Y-5841079D01*
X2919943Y-5841079D02*
X2929467Y-5822031D01*
X2929467Y-5822031D02*
X2938991Y-5812508D01*
X2938991Y-5812508D02*
X2958039Y-5802984D01*
X3110420Y-6002984D02*
X3110420Y-5869650D01*
X3110420Y-5888698D02*
X3119943Y-5879174D01*
X3119943Y-5879174D02*
X3138991Y-5869650D01*
X3138991Y-5869650D02*
X3167563Y-5869650D01*
X3167563Y-5869650D02*
X3186610Y-5879174D01*
X3186610Y-5879174D02*
X3196134Y-5898222D01*
X3196134Y-5898222D02*
X3196134Y-6002984D01*
X3196134Y-5898222D02*
X3205658Y-5879174D01*
X3205658Y-5879174D02*
X3224705Y-5869650D01*
X3224705Y-5869650D02*
X3253277Y-5869650D01*
X3253277Y-5869650D02*
X3272324Y-5879174D01*
X3272324Y-5879174D02*
X3281848Y-5898222D01*
X3281848Y-5898222D02*
X3281848Y-6002984D01*
X3377086Y-6002984D02*
X3377086Y-5869650D01*
X3377086Y-5888698D02*
X3386610Y-5879174D01*
X3386610Y-5879174D02*
X3405658Y-5869650D01*
X3405658Y-5869650D02*
X3434229Y-5869650D01*
X3434229Y-5869650D02*
X3453277Y-5879174D01*
X3453277Y-5879174D02*
X3462801Y-5898222D01*
X3462801Y-5898222D02*
X3462801Y-6002984D01*
X3462801Y-5898222D02*
X3472324Y-5879174D01*
X3472324Y-5879174D02*
X3491372Y-5869650D01*
X3491372Y-5869650D02*
X3519943Y-5869650D01*
X3519943Y-5869650D02*
X3538991Y-5879174D01*
X3538991Y-5879174D02*
X3548515Y-5898222D01*
X3548515Y-5898222D02*
X3548515Y-6002984D01*
X3938991Y-5793460D02*
X3767563Y-6050603D01*
X4196134Y-5802984D02*
X4215182Y-5802984D01*
X4215182Y-5802984D02*
X4234229Y-5812508D01*
X4234229Y-5812508D02*
X4243753Y-5822031D01*
X4243753Y-5822031D02*
X4253277Y-5841079D01*
X4253277Y-5841079D02*
X4262801Y-5879174D01*
X4262801Y-5879174D02*
X4262801Y-5926793D01*
X4262801Y-5926793D02*
X4253277Y-5964888D01*
X4253277Y-5964888D02*
X4243753Y-5983936D01*
X4243753Y-5983936D02*
X4234229Y-5993460D01*
X4234229Y-5993460D02*
X4215182Y-6002984D01*
X4215182Y-6002984D02*
X4196134Y-6002984D01*
X4196134Y-6002984D02*
X4177086Y-5993460D01*
X4177086Y-5993460D02*
X4167563Y-5983936D01*
X4167563Y-5983936D02*
X4158039Y-5964888D01*
X4158039Y-5964888D02*
X4148515Y-5926793D01*
X4148515Y-5926793D02*
X4148515Y-5879174D01*
X4148515Y-5879174D02*
X4158039Y-5841079D01*
X4158039Y-5841079D02*
X4167563Y-5822031D01*
X4167563Y-5822031D02*
X4177086Y-5812508D01*
X4177086Y-5812508D02*
X4196134Y-5802984D01*
X4348515Y-5983936D02*
X4358039Y-5993460D01*
X4358039Y-5993460D02*
X4348515Y-6002984D01*
X4348515Y-6002984D02*
X4338991Y-5993460D01*
X4338991Y-5993460D02*
X4348515Y-5983936D01*
X4348515Y-5983936D02*
X4348515Y-6002984D01*
X4481848Y-5802984D02*
X4500896Y-5802984D01*
X4500896Y-5802984D02*
X4519944Y-5812508D01*
X4519944Y-5812508D02*
X4529468Y-5822031D01*
X4529468Y-5822031D02*
X4538991Y-5841079D01*
X4538991Y-5841079D02*
X4548515Y-5879174D01*
X4548515Y-5879174D02*
X4548515Y-5926793D01*
X4548515Y-5926793D02*
X4538991Y-5964888D01*
X4538991Y-5964888D02*
X4529468Y-5983936D01*
X4529468Y-5983936D02*
X4519944Y-5993460D01*
X4519944Y-5993460D02*
X4500896Y-6002984D01*
X4500896Y-6002984D02*
X4481848Y-6002984D01*
X4481848Y-6002984D02*
X4462801Y-5993460D01*
X4462801Y-5993460D02*
X4453277Y-5983936D01*
X4453277Y-5983936D02*
X4443753Y-5964888D01*
X4443753Y-5964888D02*
X4434229Y-5926793D01*
X4434229Y-5926793D02*
X4434229Y-5879174D01*
X4434229Y-5879174D02*
X4443753Y-5841079D01*
X4443753Y-5841079D02*
X4453277Y-5822031D01*
X4453277Y-5822031D02*
X4462801Y-5812508D01*
X4462801Y-5812508D02*
X4481848Y-5802984D01*
X4738991Y-6002984D02*
X4624706Y-6002984D01*
X4681848Y-6002984D02*
X4681848Y-5802984D01*
X4681848Y-5802984D02*
X4662801Y-5831555D01*
X4662801Y-5831555D02*
X4643753Y-5850603D01*
X4643753Y-5850603D02*
X4624706Y-5860127D01*
X4834229Y-6002984D02*
X4872325Y-6002984D01*
X4872325Y-6002984D02*
X4891372Y-5993460D01*
X4891372Y-5993460D02*
X4900896Y-5983936D01*
X4900896Y-5983936D02*
X4919944Y-5955365D01*
X4919944Y-5955365D02*
X4929468Y-5917269D01*
X4929468Y-5917269D02*
X4929468Y-5841079D01*
X4929468Y-5841079D02*
X4919944Y-5822031D01*
X4919944Y-5822031D02*
X4910420Y-5812508D01*
X4910420Y-5812508D02*
X4891372Y-5802984D01*
X4891372Y-5802984D02*
X4853277Y-5802984D01*
X4853277Y-5802984D02*
X4834229Y-5812508D01*
X4834229Y-5812508D02*
X4824706Y-5822031D01*
X4824706Y-5822031D02*
X4815182Y-5841079D01*
X4815182Y-5841079D02*
X4815182Y-5888698D01*
X4815182Y-5888698D02*
X4824706Y-5907746D01*
X4824706Y-5907746D02*
X4834229Y-5917269D01*
X4834229Y-5917269D02*
X4853277Y-5926793D01*
X4853277Y-5926793D02*
X4891372Y-5926793D01*
X4891372Y-5926793D02*
X4910420Y-5917269D01*
X4910420Y-5917269D02*
X4919944Y-5907746D01*
X4919944Y-5907746D02*
X4929468Y-5888698D01*
X4996134Y-5802984D02*
X5129468Y-5802984D01*
X5129468Y-5802984D02*
X5043753Y-6002984D01*
X5196134Y-5802984D02*
X5196134Y-5841079D01*
X5272325Y-5802984D02*
X5272325Y-5841079D01*
X5567563Y-6079174D02*
X5558039Y-6069650D01*
X5558039Y-6069650D02*
X5538991Y-6041079D01*
X5538991Y-6041079D02*
X5529468Y-6022031D01*
X5529468Y-6022031D02*
X5519944Y-5993460D01*
X5519944Y-5993460D02*
X5510420Y-5945841D01*
X5510420Y-5945841D02*
X5510420Y-5907746D01*
X5510420Y-5907746D02*
X5519944Y-5860127D01*
X5519944Y-5860127D02*
X5529468Y-5831555D01*
X5529468Y-5831555D02*
X5538991Y-5812508D01*
X5538991Y-5812508D02*
X5558039Y-5783936D01*
X5558039Y-5783936D02*
X5567563Y-5774412D01*
X5681848Y-5802984D02*
X5700896Y-5802984D01*
X5700896Y-5802984D02*
X5719944Y-5812508D01*
X5719944Y-5812508D02*
X5729468Y-5822031D01*
X5729468Y-5822031D02*
X5738991Y-5841079D01*
X5738991Y-5841079D02*
X5748515Y-5879174D01*
X5748515Y-5879174D02*
X5748515Y-5926793D01*
X5748515Y-5926793D02*
X5738991Y-5964888D01*
X5738991Y-5964888D02*
X5729468Y-5983936D01*
X5729468Y-5983936D02*
X5719944Y-5993460D01*
X5719944Y-5993460D02*
X5700896Y-6002984D01*
X5700896Y-6002984D02*
X5681848Y-6002984D01*
X5681848Y-6002984D02*
X5662801Y-5993460D01*
X5662801Y-5993460D02*
X5653277Y-5983936D01*
X5653277Y-5983936D02*
X5643753Y-5964888D01*
X5643753Y-5964888D02*
X5634229Y-5926793D01*
X5634229Y-5926793D02*
X5634229Y-5879174D01*
X5634229Y-5879174D02*
X5643753Y-5841079D01*
X5643753Y-5841079D02*
X5653277Y-5822031D01*
X5653277Y-5822031D02*
X5662801Y-5812508D01*
X5662801Y-5812508D02*
X5681848Y-5802984D01*
X5986610Y-6002984D02*
X5986610Y-5802984D01*
X6072325Y-6002984D02*
X6072325Y-5898222D01*
X6072325Y-5898222D02*
X6062801Y-5879174D01*
X6062801Y-5879174D02*
X6043753Y-5869650D01*
X6043753Y-5869650D02*
X6015182Y-5869650D01*
X6015182Y-5869650D02*
X5996134Y-5879174D01*
X5996134Y-5879174D02*
X5986610Y-5888698D01*
X6196134Y-6002984D02*
X6177087Y-5993460D01*
X6177087Y-5993460D02*
X6167563Y-5983936D01*
X6167563Y-5983936D02*
X6158039Y-5964888D01*
X6158039Y-5964888D02*
X6158039Y-5907746D01*
X6158039Y-5907746D02*
X6167563Y-5888698D01*
X6167563Y-5888698D02*
X6177087Y-5879174D01*
X6177087Y-5879174D02*
X6196134Y-5869650D01*
X6196134Y-5869650D02*
X6224706Y-5869650D01*
X6224706Y-5869650D02*
X6243753Y-5879174D01*
X6243753Y-5879174D02*
X6253277Y-5888698D01*
X6253277Y-5888698D02*
X6262801Y-5907746D01*
X6262801Y-5907746D02*
X6262801Y-5964888D01*
X6262801Y-5964888D02*
X6253277Y-5983936D01*
X6253277Y-5983936D02*
X6243753Y-5993460D01*
X6243753Y-5993460D02*
X6224706Y-6002984D01*
X6224706Y-6002984D02*
X6196134Y-6002984D01*
X6377087Y-6002984D02*
X6358039Y-5993460D01*
X6358039Y-5993460D02*
X6348515Y-5974412D01*
X6348515Y-5974412D02*
X6348515Y-5802984D01*
X6529468Y-5993460D02*
X6510420Y-6002984D01*
X6510420Y-6002984D02*
X6472325Y-6002984D01*
X6472325Y-6002984D02*
X6453277Y-5993460D01*
X6453277Y-5993460D02*
X6443753Y-5974412D01*
X6443753Y-5974412D02*
X6443753Y-5898222D01*
X6443753Y-5898222D02*
X6453277Y-5879174D01*
X6453277Y-5879174D02*
X6472325Y-5869650D01*
X6472325Y-5869650D02*
X6510420Y-5869650D01*
X6510420Y-5869650D02*
X6529468Y-5879174D01*
X6529468Y-5879174D02*
X6538991Y-5898222D01*
X6538991Y-5898222D02*
X6538991Y-5917269D01*
X6538991Y-5917269D02*
X6443753Y-5936317D01*
X6615182Y-5993460D02*
X6634230Y-6002984D01*
X6634230Y-6002984D02*
X6672325Y-6002984D01*
X6672325Y-6002984D02*
X6691372Y-5993460D01*
X6691372Y-5993460D02*
X6700896Y-5974412D01*
X6700896Y-5974412D02*
X6700896Y-5964888D01*
X6700896Y-5964888D02*
X6691372Y-5945841D01*
X6691372Y-5945841D02*
X6672325Y-5936317D01*
X6672325Y-5936317D02*
X6643753Y-5936317D01*
X6643753Y-5936317D02*
X6624706Y-5926793D01*
X6624706Y-5926793D02*
X6615182Y-5907746D01*
X6615182Y-5907746D02*
X6615182Y-5898222D01*
X6615182Y-5898222D02*
X6624706Y-5879174D01*
X6624706Y-5879174D02*
X6643753Y-5869650D01*
X6643753Y-5869650D02*
X6672325Y-5869650D01*
X6672325Y-5869650D02*
X6691372Y-5879174D01*
X6938992Y-5926793D02*
X7091373Y-5926793D01*
X7015182Y-6002984D02*
X7015182Y-5850603D01*
X7329468Y-5822031D02*
X7338992Y-5812508D01*
X7338992Y-5812508D02*
X7358039Y-5802984D01*
X7358039Y-5802984D02*
X7405658Y-5802984D01*
X7405658Y-5802984D02*
X7424706Y-5812508D01*
X7424706Y-5812508D02*
X7434230Y-5822031D01*
X7434230Y-5822031D02*
X7443753Y-5841079D01*
X7443753Y-5841079D02*
X7443753Y-5860127D01*
X7443753Y-5860127D02*
X7434230Y-5888698D01*
X7434230Y-5888698D02*
X7319944Y-6002984D01*
X7319944Y-6002984D02*
X7443753Y-6002984D01*
X7672325Y-5993460D02*
X7691373Y-6002984D01*
X7691373Y-6002984D02*
X7729468Y-6002984D01*
X7729468Y-6002984D02*
X7748515Y-5993460D01*
X7748515Y-5993460D02*
X7758039Y-5974412D01*
X7758039Y-5974412D02*
X7758039Y-5964888D01*
X7758039Y-5964888D02*
X7748515Y-5945841D01*
X7748515Y-5945841D02*
X7729468Y-5936317D01*
X7729468Y-5936317D02*
X7700896Y-5936317D01*
X7700896Y-5936317D02*
X7681849Y-5926793D01*
X7681849Y-5926793D02*
X7672325Y-5907746D01*
X7672325Y-5907746D02*
X7672325Y-5898222D01*
X7672325Y-5898222D02*
X7681849Y-5879174D01*
X7681849Y-5879174D02*
X7700896Y-5869650D01*
X7700896Y-5869650D02*
X7729468Y-5869650D01*
X7729468Y-5869650D02*
X7748515Y-5879174D01*
X7872325Y-6002984D02*
X7853277Y-5993460D01*
X7853277Y-5993460D02*
X7843754Y-5974412D01*
X7843754Y-5974412D02*
X7843754Y-5802984D01*
X7977087Y-6002984D02*
X7958039Y-5993460D01*
X7958039Y-5993460D02*
X7948515Y-5983936D01*
X7948515Y-5983936D02*
X7938992Y-5964888D01*
X7938992Y-5964888D02*
X7938992Y-5907746D01*
X7938992Y-5907746D02*
X7948515Y-5888698D01*
X7948515Y-5888698D02*
X7958039Y-5879174D01*
X7958039Y-5879174D02*
X7977087Y-5869650D01*
X7977087Y-5869650D02*
X8005658Y-5869650D01*
X8005658Y-5869650D02*
X8024706Y-5879174D01*
X8024706Y-5879174D02*
X8034230Y-5888698D01*
X8034230Y-5888698D02*
X8043754Y-5907746D01*
X8043754Y-5907746D02*
X8043754Y-5964888D01*
X8043754Y-5964888D02*
X8034230Y-5983936D01*
X8034230Y-5983936D02*
X8024706Y-5993460D01*
X8024706Y-5993460D02*
X8005658Y-6002984D01*
X8005658Y-6002984D02*
X7977087Y-6002984D01*
X8100896Y-5869650D02*
X8177087Y-5869650D01*
X8129468Y-5802984D02*
X8129468Y-5974412D01*
X8129468Y-5974412D02*
X8138992Y-5993460D01*
X8138992Y-5993460D02*
X8158039Y-6002984D01*
X8158039Y-6002984D02*
X8177087Y-6002984D01*
X8234230Y-5993460D02*
X8253277Y-6002984D01*
X8253277Y-6002984D02*
X8291373Y-6002984D01*
X8291373Y-6002984D02*
X8310420Y-5993460D01*
X8310420Y-5993460D02*
X8319944Y-5974412D01*
X8319944Y-5974412D02*
X8319944Y-5964888D01*
X8319944Y-5964888D02*
X8310420Y-5945841D01*
X8310420Y-5945841D02*
X8291373Y-5936317D01*
X8291373Y-5936317D02*
X8262801Y-5936317D01*
X8262801Y-5936317D02*
X8243754Y-5926793D01*
X8243754Y-5926793D02*
X8234230Y-5907746D01*
X8234230Y-5907746D02*
X8234230Y-5898222D01*
X8234230Y-5898222D02*
X8243754Y-5879174D01*
X8243754Y-5879174D02*
X8262801Y-5869650D01*
X8262801Y-5869650D02*
X8291373Y-5869650D01*
X8291373Y-5869650D02*
X8310420Y-5879174D01*
X8386611Y-6079174D02*
X8396135Y-6069650D01*
X8396135Y-6069650D02*
X8415182Y-6041079D01*
X8415182Y-6041079D02*
X8424706Y-6022031D01*
X8424706Y-6022031D02*
X8434230Y-5993460D01*
X8434230Y-5993460D02*
X8443754Y-5945841D01*
X8443754Y-5945841D02*
X8443754Y-5907746D01*
X8443754Y-5907746D02*
X8434230Y-5860127D01*
X8434230Y-5860127D02*
X8424706Y-5831555D01*
X8424706Y-5831555D02*
X8415182Y-5812508D01*
X8415182Y-5812508D02*
X8396135Y-5783936D01*
X8396135Y-5783936D02*
X8386611Y-5774412D01*
D12*
X1965000Y-6148000D02*
X1965000Y-6203000D01*
X1937500Y-6175500D02*
X1992500Y-6175500D01*
D11*
X2291372Y-6066984D02*
X2310420Y-6066984D01*
X2310420Y-6066984D02*
X2329467Y-6076508D01*
X2329467Y-6076508D02*
X2338991Y-6086031D01*
X2338991Y-6086031D02*
X2348515Y-6105079D01*
X2348515Y-6105079D02*
X2358039Y-6143174D01*
X2358039Y-6143174D02*
X2358039Y-6190793D01*
X2358039Y-6190793D02*
X2348515Y-6228888D01*
X2348515Y-6228888D02*
X2338991Y-6247936D01*
X2338991Y-6247936D02*
X2329467Y-6257460D01*
X2329467Y-6257460D02*
X2310420Y-6266984D01*
X2310420Y-6266984D02*
X2291372Y-6266984D01*
X2291372Y-6266984D02*
X2272324Y-6257460D01*
X2272324Y-6257460D02*
X2262801Y-6247936D01*
X2262801Y-6247936D02*
X2253277Y-6228888D01*
X2253277Y-6228888D02*
X2243753Y-6190793D01*
X2243753Y-6190793D02*
X2243753Y-6143174D01*
X2243753Y-6143174D02*
X2253277Y-6105079D01*
X2253277Y-6105079D02*
X2262801Y-6086031D01*
X2262801Y-6086031D02*
X2272324Y-6076508D01*
X2272324Y-6076508D02*
X2291372Y-6066984D01*
X2443753Y-6247936D02*
X2453277Y-6257460D01*
X2453277Y-6257460D02*
X2443753Y-6266984D01*
X2443753Y-6266984D02*
X2434229Y-6257460D01*
X2434229Y-6257460D02*
X2443753Y-6247936D01*
X2443753Y-6247936D02*
X2443753Y-6266984D01*
X2634229Y-6066984D02*
X2538991Y-6066984D01*
X2538991Y-6066984D02*
X2529467Y-6162222D01*
X2529467Y-6162222D02*
X2538991Y-6152698D01*
X2538991Y-6152698D02*
X2558039Y-6143174D01*
X2558039Y-6143174D02*
X2605658Y-6143174D01*
X2605658Y-6143174D02*
X2624705Y-6152698D01*
X2624705Y-6152698D02*
X2634229Y-6162222D01*
X2634229Y-6162222D02*
X2643753Y-6181269D01*
X2643753Y-6181269D02*
X2643753Y-6228888D01*
X2643753Y-6228888D02*
X2634229Y-6247936D01*
X2634229Y-6247936D02*
X2624705Y-6257460D01*
X2624705Y-6257460D02*
X2605658Y-6266984D01*
X2605658Y-6266984D02*
X2558039Y-6266984D01*
X2558039Y-6266984D02*
X2538991Y-6257460D01*
X2538991Y-6257460D02*
X2529467Y-6247936D01*
X2824705Y-6066984D02*
X2729467Y-6066984D01*
X2729467Y-6066984D02*
X2719944Y-6162222D01*
X2719944Y-6162222D02*
X2729467Y-6152698D01*
X2729467Y-6152698D02*
X2748515Y-6143174D01*
X2748515Y-6143174D02*
X2796134Y-6143174D01*
X2796134Y-6143174D02*
X2815182Y-6152698D01*
X2815182Y-6152698D02*
X2824705Y-6162222D01*
X2824705Y-6162222D02*
X2834229Y-6181269D01*
X2834229Y-6181269D02*
X2834229Y-6228888D01*
X2834229Y-6228888D02*
X2824705Y-6247936D01*
X2824705Y-6247936D02*
X2815182Y-6257460D01*
X2815182Y-6257460D02*
X2796134Y-6266984D01*
X2796134Y-6266984D02*
X2748515Y-6266984D01*
X2748515Y-6266984D02*
X2729467Y-6257460D01*
X2729467Y-6257460D02*
X2719944Y-6247936D01*
X2958039Y-6066984D02*
X2977086Y-6066984D01*
X2977086Y-6066984D02*
X2996134Y-6076508D01*
X2996134Y-6076508D02*
X3005658Y-6086031D01*
X3005658Y-6086031D02*
X3015182Y-6105079D01*
X3015182Y-6105079D02*
X3024705Y-6143174D01*
X3024705Y-6143174D02*
X3024705Y-6190793D01*
X3024705Y-6190793D02*
X3015182Y-6228888D01*
X3015182Y-6228888D02*
X3005658Y-6247936D01*
X3005658Y-6247936D02*
X2996134Y-6257460D01*
X2996134Y-6257460D02*
X2977086Y-6266984D01*
X2977086Y-6266984D02*
X2958039Y-6266984D01*
X2958039Y-6266984D02*
X2938991Y-6257460D01*
X2938991Y-6257460D02*
X2929467Y-6247936D01*
X2929467Y-6247936D02*
X2919943Y-6228888D01*
X2919943Y-6228888D02*
X2910420Y-6190793D01*
X2910420Y-6190793D02*
X2910420Y-6143174D01*
X2910420Y-6143174D02*
X2919943Y-6105079D01*
X2919943Y-6105079D02*
X2929467Y-6086031D01*
X2929467Y-6086031D02*
X2938991Y-6076508D01*
X2938991Y-6076508D02*
X2958039Y-6066984D01*
X3110420Y-6266984D02*
X3110420Y-6133650D01*
X3110420Y-6152698D02*
X3119943Y-6143174D01*
X3119943Y-6143174D02*
X3138991Y-6133650D01*
X3138991Y-6133650D02*
X3167563Y-6133650D01*
X3167563Y-6133650D02*
X3186610Y-6143174D01*
X3186610Y-6143174D02*
X3196134Y-6162222D01*
X3196134Y-6162222D02*
X3196134Y-6266984D01*
X3196134Y-6162222D02*
X3205658Y-6143174D01*
X3205658Y-6143174D02*
X3224705Y-6133650D01*
X3224705Y-6133650D02*
X3253277Y-6133650D01*
X3253277Y-6133650D02*
X3272324Y-6143174D01*
X3272324Y-6143174D02*
X3281848Y-6162222D01*
X3281848Y-6162222D02*
X3281848Y-6266984D01*
X3377086Y-6266984D02*
X3377086Y-6133650D01*
X3377086Y-6152698D02*
X3386610Y-6143174D01*
X3386610Y-6143174D02*
X3405658Y-6133650D01*
X3405658Y-6133650D02*
X3434229Y-6133650D01*
X3434229Y-6133650D02*
X3453277Y-6143174D01*
X3453277Y-6143174D02*
X3462801Y-6162222D01*
X3462801Y-6162222D02*
X3462801Y-6266984D01*
X3462801Y-6162222D02*
X3472324Y-6143174D01*
X3472324Y-6143174D02*
X3491372Y-6133650D01*
X3491372Y-6133650D02*
X3519943Y-6133650D01*
X3519943Y-6133650D02*
X3538991Y-6143174D01*
X3538991Y-6143174D02*
X3548515Y-6162222D01*
X3548515Y-6162222D02*
X3548515Y-6266984D01*
X3938991Y-6057460D02*
X3767563Y-6314603D01*
X4196134Y-6066984D02*
X4215182Y-6066984D01*
X4215182Y-6066984D02*
X4234229Y-6076508D01*
X4234229Y-6076508D02*
X4243753Y-6086031D01*
X4243753Y-6086031D02*
X4253277Y-6105079D01*
X4253277Y-6105079D02*
X4262801Y-6143174D01*
X4262801Y-6143174D02*
X4262801Y-6190793D01*
X4262801Y-6190793D02*
X4253277Y-6228888D01*
X4253277Y-6228888D02*
X4243753Y-6247936D01*
X4243753Y-6247936D02*
X4234229Y-6257460D01*
X4234229Y-6257460D02*
X4215182Y-6266984D01*
X4215182Y-6266984D02*
X4196134Y-6266984D01*
X4196134Y-6266984D02*
X4177086Y-6257460D01*
X4177086Y-6257460D02*
X4167563Y-6247936D01*
X4167563Y-6247936D02*
X4158039Y-6228888D01*
X4158039Y-6228888D02*
X4148515Y-6190793D01*
X4148515Y-6190793D02*
X4148515Y-6143174D01*
X4148515Y-6143174D02*
X4158039Y-6105079D01*
X4158039Y-6105079D02*
X4167563Y-6086031D01*
X4167563Y-6086031D02*
X4177086Y-6076508D01*
X4177086Y-6076508D02*
X4196134Y-6066984D01*
X4348515Y-6247936D02*
X4358039Y-6257460D01*
X4358039Y-6257460D02*
X4348515Y-6266984D01*
X4348515Y-6266984D02*
X4338991Y-6257460D01*
X4338991Y-6257460D02*
X4348515Y-6247936D01*
X4348515Y-6247936D02*
X4348515Y-6266984D01*
X4481848Y-6066984D02*
X4500896Y-6066984D01*
X4500896Y-6066984D02*
X4519944Y-6076508D01*
X4519944Y-6076508D02*
X4529468Y-6086031D01*
X4529468Y-6086031D02*
X4538991Y-6105079D01*
X4538991Y-6105079D02*
X4548515Y-6143174D01*
X4548515Y-6143174D02*
X4548515Y-6190793D01*
X4548515Y-6190793D02*
X4538991Y-6228888D01*
X4538991Y-6228888D02*
X4529468Y-6247936D01*
X4529468Y-6247936D02*
X4519944Y-6257460D01*
X4519944Y-6257460D02*
X4500896Y-6266984D01*
X4500896Y-6266984D02*
X4481848Y-6266984D01*
X4481848Y-6266984D02*
X4462801Y-6257460D01*
X4462801Y-6257460D02*
X4453277Y-6247936D01*
X4453277Y-6247936D02*
X4443753Y-6228888D01*
X4443753Y-6228888D02*
X4434229Y-6190793D01*
X4434229Y-6190793D02*
X4434229Y-6143174D01*
X4434229Y-6143174D02*
X4443753Y-6105079D01*
X4443753Y-6105079D02*
X4453277Y-6086031D01*
X4453277Y-6086031D02*
X4462801Y-6076508D01*
X4462801Y-6076508D02*
X4481848Y-6066984D01*
X4624706Y-6086031D02*
X4634229Y-6076508D01*
X4634229Y-6076508D02*
X4653277Y-6066984D01*
X4653277Y-6066984D02*
X4700896Y-6066984D01*
X4700896Y-6066984D02*
X4719944Y-6076508D01*
X4719944Y-6076508D02*
X4729468Y-6086031D01*
X4729468Y-6086031D02*
X4738991Y-6105079D01*
X4738991Y-6105079D02*
X4738991Y-6124127D01*
X4738991Y-6124127D02*
X4729468Y-6152698D01*
X4729468Y-6152698D02*
X4615182Y-6266984D01*
X4615182Y-6266984D02*
X4738991Y-6266984D01*
X4929468Y-6266984D02*
X4815182Y-6266984D01*
X4872325Y-6266984D02*
X4872325Y-6066984D01*
X4872325Y-6066984D02*
X4853277Y-6095555D01*
X4853277Y-6095555D02*
X4834229Y-6114603D01*
X4834229Y-6114603D02*
X4815182Y-6124127D01*
X4996134Y-6066984D02*
X5129468Y-6066984D01*
X5129468Y-6066984D02*
X5043753Y-6266984D01*
X5196134Y-6066984D02*
X5196134Y-6105079D01*
X5272325Y-6066984D02*
X5272325Y-6105079D01*
X5567563Y-6343174D02*
X5558039Y-6333650D01*
X5558039Y-6333650D02*
X5538991Y-6305079D01*
X5538991Y-6305079D02*
X5529468Y-6286031D01*
X5529468Y-6286031D02*
X5519944Y-6257460D01*
X5519944Y-6257460D02*
X5510420Y-6209841D01*
X5510420Y-6209841D02*
X5510420Y-6171746D01*
X5510420Y-6171746D02*
X5519944Y-6124127D01*
X5519944Y-6124127D02*
X5529468Y-6095555D01*
X5529468Y-6095555D02*
X5538991Y-6076508D01*
X5538991Y-6076508D02*
X5558039Y-6047936D01*
X5558039Y-6047936D02*
X5567563Y-6038412D01*
X5681848Y-6066984D02*
X5700896Y-6066984D01*
X5700896Y-6066984D02*
X5719944Y-6076508D01*
X5719944Y-6076508D02*
X5729468Y-6086031D01*
X5729468Y-6086031D02*
X5738991Y-6105079D01*
X5738991Y-6105079D02*
X5748515Y-6143174D01*
X5748515Y-6143174D02*
X5748515Y-6190793D01*
X5748515Y-6190793D02*
X5738991Y-6228888D01*
X5738991Y-6228888D02*
X5729468Y-6247936D01*
X5729468Y-6247936D02*
X5719944Y-6257460D01*
X5719944Y-6257460D02*
X5700896Y-6266984D01*
X5700896Y-6266984D02*
X5681848Y-6266984D01*
X5681848Y-6266984D02*
X5662801Y-6257460D01*
X5662801Y-6257460D02*
X5653277Y-6247936D01*
X5653277Y-6247936D02*
X5643753Y-6228888D01*
X5643753Y-6228888D02*
X5634229Y-6190793D01*
X5634229Y-6190793D02*
X5634229Y-6143174D01*
X5634229Y-6143174D02*
X5643753Y-6105079D01*
X5643753Y-6105079D02*
X5653277Y-6086031D01*
X5653277Y-6086031D02*
X5662801Y-6076508D01*
X5662801Y-6076508D02*
X5681848Y-6066984D01*
X5986610Y-6266984D02*
X5986610Y-6066984D01*
X6072325Y-6266984D02*
X6072325Y-6162222D01*
X6072325Y-6162222D02*
X6062801Y-6143174D01*
X6062801Y-6143174D02*
X6043753Y-6133650D01*
X6043753Y-6133650D02*
X6015182Y-6133650D01*
X6015182Y-6133650D02*
X5996134Y-6143174D01*
X5996134Y-6143174D02*
X5986610Y-6152698D01*
X6196134Y-6266984D02*
X6177087Y-6257460D01*
X6177087Y-6257460D02*
X6167563Y-6247936D01*
X6167563Y-6247936D02*
X6158039Y-6228888D01*
X6158039Y-6228888D02*
X6158039Y-6171746D01*
X6158039Y-6171746D02*
X6167563Y-6152698D01*
X6167563Y-6152698D02*
X6177087Y-6143174D01*
X6177087Y-6143174D02*
X6196134Y-6133650D01*
X6196134Y-6133650D02*
X6224706Y-6133650D01*
X6224706Y-6133650D02*
X6243753Y-6143174D01*
X6243753Y-6143174D02*
X6253277Y-6152698D01*
X6253277Y-6152698D02*
X6262801Y-6171746D01*
X6262801Y-6171746D02*
X6262801Y-6228888D01*
X6262801Y-6228888D02*
X6253277Y-6247936D01*
X6253277Y-6247936D02*
X6243753Y-6257460D01*
X6243753Y-6257460D02*
X6224706Y-6266984D01*
X6224706Y-6266984D02*
X6196134Y-6266984D01*
X6377087Y-6266984D02*
X6358039Y-6257460D01*
X6358039Y-6257460D02*
X6348515Y-6238412D01*
X6348515Y-6238412D02*
X6348515Y-6066984D01*
X6529468Y-6257460D02*
X6510420Y-6266984D01*
X6510420Y-6266984D02*
X6472325Y-6266984D01*
X6472325Y-6266984D02*
X6453277Y-6257460D01*
X6453277Y-6257460D02*
X6443753Y-6238412D01*
X6443753Y-6238412D02*
X6443753Y-6162222D01*
X6443753Y-6162222D02*
X6453277Y-6143174D01*
X6453277Y-6143174D02*
X6472325Y-6133650D01*
X6472325Y-6133650D02*
X6510420Y-6133650D01*
X6510420Y-6133650D02*
X6529468Y-6143174D01*
X6529468Y-6143174D02*
X6538991Y-6162222D01*
X6538991Y-6162222D02*
X6538991Y-6181269D01*
X6538991Y-6181269D02*
X6443753Y-6200317D01*
X6615182Y-6257460D02*
X6634230Y-6266984D01*
X6634230Y-6266984D02*
X6672325Y-6266984D01*
X6672325Y-6266984D02*
X6691372Y-6257460D01*
X6691372Y-6257460D02*
X6700896Y-6238412D01*
X6700896Y-6238412D02*
X6700896Y-6228888D01*
X6700896Y-6228888D02*
X6691372Y-6209841D01*
X6691372Y-6209841D02*
X6672325Y-6200317D01*
X6672325Y-6200317D02*
X6643753Y-6200317D01*
X6643753Y-6200317D02*
X6624706Y-6190793D01*
X6624706Y-6190793D02*
X6615182Y-6171746D01*
X6615182Y-6171746D02*
X6615182Y-6162222D01*
X6615182Y-6162222D02*
X6624706Y-6143174D01*
X6624706Y-6143174D02*
X6643753Y-6133650D01*
X6643753Y-6133650D02*
X6672325Y-6133650D01*
X6672325Y-6133650D02*
X6691372Y-6143174D01*
X6938992Y-6190793D02*
X7091373Y-6190793D01*
X7015182Y-6266984D02*
X7015182Y-6114603D01*
X7329468Y-6086031D02*
X7338992Y-6076508D01*
X7338992Y-6076508D02*
X7358039Y-6066984D01*
X7358039Y-6066984D02*
X7405658Y-6066984D01*
X7405658Y-6066984D02*
X7424706Y-6076508D01*
X7424706Y-6076508D02*
X7434230Y-6086031D01*
X7434230Y-6086031D02*
X7443753Y-6105079D01*
X7443753Y-6105079D02*
X7443753Y-6124127D01*
X7443753Y-6124127D02*
X7434230Y-6152698D01*
X7434230Y-6152698D02*
X7319944Y-6266984D01*
X7319944Y-6266984D02*
X7443753Y-6266984D01*
X7672325Y-6257460D02*
X7691373Y-6266984D01*
X7691373Y-6266984D02*
X7729468Y-6266984D01*
X7729468Y-6266984D02*
X7748515Y-6257460D01*
X7748515Y-6257460D02*
X7758039Y-6238412D01*
X7758039Y-6238412D02*
X7758039Y-6228888D01*
X7758039Y-6228888D02*
X7748515Y-6209841D01*
X7748515Y-6209841D02*
X7729468Y-6200317D01*
X7729468Y-6200317D02*
X7700896Y-6200317D01*
X7700896Y-6200317D02*
X7681849Y-6190793D01*
X7681849Y-6190793D02*
X7672325Y-6171746D01*
X7672325Y-6171746D02*
X7672325Y-6162222D01*
X7672325Y-6162222D02*
X7681849Y-6143174D01*
X7681849Y-6143174D02*
X7700896Y-6133650D01*
X7700896Y-6133650D02*
X7729468Y-6133650D01*
X7729468Y-6133650D02*
X7748515Y-6143174D01*
X7872325Y-6266984D02*
X7853277Y-6257460D01*
X7853277Y-6257460D02*
X7843754Y-6238412D01*
X7843754Y-6238412D02*
X7843754Y-6066984D01*
X7977087Y-6266984D02*
X7958039Y-6257460D01*
X7958039Y-6257460D02*
X7948515Y-6247936D01*
X7948515Y-6247936D02*
X7938992Y-6228888D01*
X7938992Y-6228888D02*
X7938992Y-6171746D01*
X7938992Y-6171746D02*
X7948515Y-6152698D01*
X7948515Y-6152698D02*
X7958039Y-6143174D01*
X7958039Y-6143174D02*
X7977087Y-6133650D01*
X7977087Y-6133650D02*
X8005658Y-6133650D01*
X8005658Y-6133650D02*
X8024706Y-6143174D01*
X8024706Y-6143174D02*
X8034230Y-6152698D01*
X8034230Y-6152698D02*
X8043754Y-6171746D01*
X8043754Y-6171746D02*
X8043754Y-6228888D01*
X8043754Y-6228888D02*
X8034230Y-6247936D01*
X8034230Y-6247936D02*
X8024706Y-6257460D01*
X8024706Y-6257460D02*
X8005658Y-6266984D01*
X8005658Y-6266984D02*
X7977087Y-6266984D01*
X8100896Y-6133650D02*
X8177087Y-6133650D01*
X8129468Y-6066984D02*
X8129468Y-6238412D01*
X8129468Y-6238412D02*
X8138992Y-6257460D01*
X8138992Y-6257460D02*
X8158039Y-6266984D01*
X8158039Y-6266984D02*
X8177087Y-6266984D01*
X8234230Y-6257460D02*
X8253277Y-6266984D01*
X8253277Y-6266984D02*
X8291373Y-6266984D01*
X8291373Y-6266984D02*
X8310420Y-6257460D01*
X8310420Y-6257460D02*
X8319944Y-6238412D01*
X8319944Y-6238412D02*
X8319944Y-6228888D01*
X8319944Y-6228888D02*
X8310420Y-6209841D01*
X8310420Y-6209841D02*
X8291373Y-6200317D01*
X8291373Y-6200317D02*
X8262801Y-6200317D01*
X8262801Y-6200317D02*
X8243754Y-6190793D01*
X8243754Y-6190793D02*
X8234230Y-6171746D01*
X8234230Y-6171746D02*
X8234230Y-6162222D01*
X8234230Y-6162222D02*
X8243754Y-6143174D01*
X8243754Y-6143174D02*
X8262801Y-6133650D01*
X8262801Y-6133650D02*
X8291373Y-6133650D01*
X8291373Y-6133650D02*
X8310420Y-6143174D01*
X8386611Y-6343174D02*
X8396135Y-6333650D01*
X8396135Y-6333650D02*
X8415182Y-6305079D01*
X8415182Y-6305079D02*
X8424706Y-6286031D01*
X8424706Y-6286031D02*
X8434230Y-6257460D01*
X8434230Y-6257460D02*
X8443754Y-6209841D01*
X8443754Y-6209841D02*
X8443754Y-6171746D01*
X8443754Y-6171746D02*
X8434230Y-6124127D01*
X8434230Y-6124127D02*
X8424706Y-6095555D01*
X8424706Y-6095555D02*
X8415182Y-6076508D01*
X8415182Y-6076508D02*
X8396135Y-6047936D01*
X8396135Y-6047936D02*
X8386611Y-6038412D01*
D12*
X1980784Y-6467784D02*
X1980784Y-6411215D01*
X1924215Y-6411215D01*
X1924215Y-6467784D01*
X1980784Y-6467784D01*
D11*
X2291372Y-6330984D02*
X2310420Y-6330984D01*
X2310420Y-6330984D02*
X2329467Y-6340508D01*
X2329467Y-6340508D02*
X2338991Y-6350031D01*
X2338991Y-6350031D02*
X2348515Y-6369079D01*
X2348515Y-6369079D02*
X2358039Y-6407174D01*
X2358039Y-6407174D02*
X2358039Y-6454793D01*
X2358039Y-6454793D02*
X2348515Y-6492888D01*
X2348515Y-6492888D02*
X2338991Y-6511936D01*
X2338991Y-6511936D02*
X2329467Y-6521460D01*
X2329467Y-6521460D02*
X2310420Y-6530984D01*
X2310420Y-6530984D02*
X2291372Y-6530984D01*
X2291372Y-6530984D02*
X2272324Y-6521460D01*
X2272324Y-6521460D02*
X2262801Y-6511936D01*
X2262801Y-6511936D02*
X2253277Y-6492888D01*
X2253277Y-6492888D02*
X2243753Y-6454793D01*
X2243753Y-6454793D02*
X2243753Y-6407174D01*
X2243753Y-6407174D02*
X2253277Y-6369079D01*
X2253277Y-6369079D02*
X2262801Y-6350031D01*
X2262801Y-6350031D02*
X2272324Y-6340508D01*
X2272324Y-6340508D02*
X2291372Y-6330984D01*
X2443753Y-6511936D02*
X2453277Y-6521460D01*
X2453277Y-6521460D02*
X2443753Y-6530984D01*
X2443753Y-6530984D02*
X2434229Y-6521460D01*
X2434229Y-6521460D02*
X2443753Y-6511936D01*
X2443753Y-6511936D02*
X2443753Y-6530984D01*
X2567563Y-6416698D02*
X2548515Y-6407174D01*
X2548515Y-6407174D02*
X2538991Y-6397650D01*
X2538991Y-6397650D02*
X2529467Y-6378603D01*
X2529467Y-6378603D02*
X2529467Y-6369079D01*
X2529467Y-6369079D02*
X2538991Y-6350031D01*
X2538991Y-6350031D02*
X2548515Y-6340508D01*
X2548515Y-6340508D02*
X2567563Y-6330984D01*
X2567563Y-6330984D02*
X2605658Y-6330984D01*
X2605658Y-6330984D02*
X2624705Y-6340508D01*
X2624705Y-6340508D02*
X2634229Y-6350031D01*
X2634229Y-6350031D02*
X2643753Y-6369079D01*
X2643753Y-6369079D02*
X2643753Y-6378603D01*
X2643753Y-6378603D02*
X2634229Y-6397650D01*
X2634229Y-6397650D02*
X2624705Y-6407174D01*
X2624705Y-6407174D02*
X2605658Y-6416698D01*
X2605658Y-6416698D02*
X2567563Y-6416698D01*
X2567563Y-6416698D02*
X2548515Y-6426222D01*
X2548515Y-6426222D02*
X2538991Y-6435746D01*
X2538991Y-6435746D02*
X2529467Y-6454793D01*
X2529467Y-6454793D02*
X2529467Y-6492888D01*
X2529467Y-6492888D02*
X2538991Y-6511936D01*
X2538991Y-6511936D02*
X2548515Y-6521460D01*
X2548515Y-6521460D02*
X2567563Y-6530984D01*
X2567563Y-6530984D02*
X2605658Y-6530984D01*
X2605658Y-6530984D02*
X2624705Y-6521460D01*
X2624705Y-6521460D02*
X2634229Y-6511936D01*
X2634229Y-6511936D02*
X2643753Y-6492888D01*
X2643753Y-6492888D02*
X2643753Y-6454793D01*
X2643753Y-6454793D02*
X2634229Y-6435746D01*
X2634229Y-6435746D02*
X2624705Y-6426222D01*
X2624705Y-6426222D02*
X2605658Y-6416698D01*
X2767563Y-6330984D02*
X2786610Y-6330984D01*
X2786610Y-6330984D02*
X2805658Y-6340508D01*
X2805658Y-6340508D02*
X2815182Y-6350031D01*
X2815182Y-6350031D02*
X2824705Y-6369079D01*
X2824705Y-6369079D02*
X2834229Y-6407174D01*
X2834229Y-6407174D02*
X2834229Y-6454793D01*
X2834229Y-6454793D02*
X2824705Y-6492888D01*
X2824705Y-6492888D02*
X2815182Y-6511936D01*
X2815182Y-6511936D02*
X2805658Y-6521460D01*
X2805658Y-6521460D02*
X2786610Y-6530984D01*
X2786610Y-6530984D02*
X2767563Y-6530984D01*
X2767563Y-6530984D02*
X2748515Y-6521460D01*
X2748515Y-6521460D02*
X2738991Y-6511936D01*
X2738991Y-6511936D02*
X2729467Y-6492888D01*
X2729467Y-6492888D02*
X2719944Y-6454793D01*
X2719944Y-6454793D02*
X2719944Y-6407174D01*
X2719944Y-6407174D02*
X2729467Y-6369079D01*
X2729467Y-6369079D02*
X2738991Y-6350031D01*
X2738991Y-6350031D02*
X2748515Y-6340508D01*
X2748515Y-6340508D02*
X2767563Y-6330984D01*
X2958039Y-6330984D02*
X2977086Y-6330984D01*
X2977086Y-6330984D02*
X2996134Y-6340508D01*
X2996134Y-6340508D02*
X3005658Y-6350031D01*
X3005658Y-6350031D02*
X3015182Y-6369079D01*
X3015182Y-6369079D02*
X3024705Y-6407174D01*
X3024705Y-6407174D02*
X3024705Y-6454793D01*
X3024705Y-6454793D02*
X3015182Y-6492888D01*
X3015182Y-6492888D02*
X3005658Y-6511936D01*
X3005658Y-6511936D02*
X2996134Y-6521460D01*
X2996134Y-6521460D02*
X2977086Y-6530984D01*
X2977086Y-6530984D02*
X2958039Y-6530984D01*
X2958039Y-6530984D02*
X2938991Y-6521460D01*
X2938991Y-6521460D02*
X2929467Y-6511936D01*
X2929467Y-6511936D02*
X2919943Y-6492888D01*
X2919943Y-6492888D02*
X2910420Y-6454793D01*
X2910420Y-6454793D02*
X2910420Y-6407174D01*
X2910420Y-6407174D02*
X2919943Y-6369079D01*
X2919943Y-6369079D02*
X2929467Y-6350031D01*
X2929467Y-6350031D02*
X2938991Y-6340508D01*
X2938991Y-6340508D02*
X2958039Y-6330984D01*
X3110420Y-6530984D02*
X3110420Y-6397650D01*
X3110420Y-6416698D02*
X3119943Y-6407174D01*
X3119943Y-6407174D02*
X3138991Y-6397650D01*
X3138991Y-6397650D02*
X3167563Y-6397650D01*
X3167563Y-6397650D02*
X3186610Y-6407174D01*
X3186610Y-6407174D02*
X3196134Y-6426222D01*
X3196134Y-6426222D02*
X3196134Y-6530984D01*
X3196134Y-6426222D02*
X3205658Y-6407174D01*
X3205658Y-6407174D02*
X3224705Y-6397650D01*
X3224705Y-6397650D02*
X3253277Y-6397650D01*
X3253277Y-6397650D02*
X3272324Y-6407174D01*
X3272324Y-6407174D02*
X3281848Y-6426222D01*
X3281848Y-6426222D02*
X3281848Y-6530984D01*
X3377086Y-6530984D02*
X3377086Y-6397650D01*
X3377086Y-6416698D02*
X3386610Y-6407174D01*
X3386610Y-6407174D02*
X3405658Y-6397650D01*
X3405658Y-6397650D02*
X3434229Y-6397650D01*
X3434229Y-6397650D02*
X3453277Y-6407174D01*
X3453277Y-6407174D02*
X3462801Y-6426222D01*
X3462801Y-6426222D02*
X3462801Y-6530984D01*
X3462801Y-6426222D02*
X3472324Y-6407174D01*
X3472324Y-6407174D02*
X3491372Y-6397650D01*
X3491372Y-6397650D02*
X3519943Y-6397650D01*
X3519943Y-6397650D02*
X3538991Y-6407174D01*
X3538991Y-6407174D02*
X3548515Y-6426222D01*
X3548515Y-6426222D02*
X3548515Y-6530984D01*
X3938991Y-6321460D02*
X3767563Y-6578603D01*
X4196134Y-6330984D02*
X4215182Y-6330984D01*
X4215182Y-6330984D02*
X4234229Y-6340508D01*
X4234229Y-6340508D02*
X4243753Y-6350031D01*
X4243753Y-6350031D02*
X4253277Y-6369079D01*
X4253277Y-6369079D02*
X4262801Y-6407174D01*
X4262801Y-6407174D02*
X4262801Y-6454793D01*
X4262801Y-6454793D02*
X4253277Y-6492888D01*
X4253277Y-6492888D02*
X4243753Y-6511936D01*
X4243753Y-6511936D02*
X4234229Y-6521460D01*
X4234229Y-6521460D02*
X4215182Y-6530984D01*
X4215182Y-6530984D02*
X4196134Y-6530984D01*
X4196134Y-6530984D02*
X4177086Y-6521460D01*
X4177086Y-6521460D02*
X4167563Y-6511936D01*
X4167563Y-6511936D02*
X4158039Y-6492888D01*
X4158039Y-6492888D02*
X4148515Y-6454793D01*
X4148515Y-6454793D02*
X4148515Y-6407174D01*
X4148515Y-6407174D02*
X4158039Y-6369079D01*
X4158039Y-6369079D02*
X4167563Y-6350031D01*
X4167563Y-6350031D02*
X4177086Y-6340508D01*
X4177086Y-6340508D02*
X4196134Y-6330984D01*
X4348515Y-6511936D02*
X4358039Y-6521460D01*
X4358039Y-6521460D02*
X4348515Y-6530984D01*
X4348515Y-6530984D02*
X4338991Y-6521460D01*
X4338991Y-6521460D02*
X4348515Y-6511936D01*
X4348515Y-6511936D02*
X4348515Y-6530984D01*
X4481848Y-6330984D02*
X4500896Y-6330984D01*
X4500896Y-6330984D02*
X4519944Y-6340508D01*
X4519944Y-6340508D02*
X4529468Y-6350031D01*
X4529468Y-6350031D02*
X4538991Y-6369079D01*
X4538991Y-6369079D02*
X4548515Y-6407174D01*
X4548515Y-6407174D02*
X4548515Y-6454793D01*
X4548515Y-6454793D02*
X4538991Y-6492888D01*
X4538991Y-6492888D02*
X4529468Y-6511936D01*
X4529468Y-6511936D02*
X4519944Y-6521460D01*
X4519944Y-6521460D02*
X4500896Y-6530984D01*
X4500896Y-6530984D02*
X4481848Y-6530984D01*
X4481848Y-6530984D02*
X4462801Y-6521460D01*
X4462801Y-6521460D02*
X4453277Y-6511936D01*
X4453277Y-6511936D02*
X4443753Y-6492888D01*
X4443753Y-6492888D02*
X4434229Y-6454793D01*
X4434229Y-6454793D02*
X4434229Y-6407174D01*
X4434229Y-6407174D02*
X4443753Y-6369079D01*
X4443753Y-6369079D02*
X4453277Y-6350031D01*
X4453277Y-6350031D02*
X4462801Y-6340508D01*
X4462801Y-6340508D02*
X4481848Y-6330984D01*
X4615182Y-6330984D02*
X4738991Y-6330984D01*
X4738991Y-6330984D02*
X4672325Y-6407174D01*
X4672325Y-6407174D02*
X4700896Y-6407174D01*
X4700896Y-6407174D02*
X4719944Y-6416698D01*
X4719944Y-6416698D02*
X4729468Y-6426222D01*
X4729468Y-6426222D02*
X4738991Y-6445269D01*
X4738991Y-6445269D02*
X4738991Y-6492888D01*
X4738991Y-6492888D02*
X4729468Y-6511936D01*
X4729468Y-6511936D02*
X4719944Y-6521460D01*
X4719944Y-6521460D02*
X4700896Y-6530984D01*
X4700896Y-6530984D02*
X4643753Y-6530984D01*
X4643753Y-6530984D02*
X4624706Y-6521460D01*
X4624706Y-6521460D02*
X4615182Y-6511936D01*
X4929468Y-6530984D02*
X4815182Y-6530984D01*
X4872325Y-6530984D02*
X4872325Y-6330984D01*
X4872325Y-6330984D02*
X4853277Y-6359555D01*
X4853277Y-6359555D02*
X4834229Y-6378603D01*
X4834229Y-6378603D02*
X4815182Y-6388127D01*
X5110420Y-6330984D02*
X5015182Y-6330984D01*
X5015182Y-6330984D02*
X5005658Y-6426222D01*
X5005658Y-6426222D02*
X5015182Y-6416698D01*
X5015182Y-6416698D02*
X5034229Y-6407174D01*
X5034229Y-6407174D02*
X5081849Y-6407174D01*
X5081849Y-6407174D02*
X5100896Y-6416698D01*
X5100896Y-6416698D02*
X5110420Y-6426222D01*
X5110420Y-6426222D02*
X5119944Y-6445269D01*
X5119944Y-6445269D02*
X5119944Y-6492888D01*
X5119944Y-6492888D02*
X5110420Y-6511936D01*
X5110420Y-6511936D02*
X5100896Y-6521460D01*
X5100896Y-6521460D02*
X5081849Y-6530984D01*
X5081849Y-6530984D02*
X5034229Y-6530984D01*
X5034229Y-6530984D02*
X5015182Y-6521460D01*
X5015182Y-6521460D02*
X5005658Y-6511936D01*
X5196134Y-6330984D02*
X5196134Y-6369079D01*
X5272325Y-6330984D02*
X5272325Y-6369079D01*
X5567563Y-6607174D02*
X5558039Y-6597650D01*
X5558039Y-6597650D02*
X5538991Y-6569079D01*
X5538991Y-6569079D02*
X5529468Y-6550031D01*
X5529468Y-6550031D02*
X5519944Y-6521460D01*
X5519944Y-6521460D02*
X5510420Y-6473841D01*
X5510420Y-6473841D02*
X5510420Y-6435746D01*
X5510420Y-6435746D02*
X5519944Y-6388127D01*
X5519944Y-6388127D02*
X5529468Y-6359555D01*
X5529468Y-6359555D02*
X5538991Y-6340508D01*
X5538991Y-6340508D02*
X5558039Y-6311936D01*
X5558039Y-6311936D02*
X5567563Y-6302412D01*
X5729468Y-6397650D02*
X5729468Y-6530984D01*
X5681848Y-6321460D02*
X5634229Y-6464317D01*
X5634229Y-6464317D02*
X5758039Y-6464317D01*
X5986610Y-6530984D02*
X5986610Y-6330984D01*
X6072325Y-6530984D02*
X6072325Y-6426222D01*
X6072325Y-6426222D02*
X6062801Y-6407174D01*
X6062801Y-6407174D02*
X6043753Y-6397650D01*
X6043753Y-6397650D02*
X6015182Y-6397650D01*
X6015182Y-6397650D02*
X5996134Y-6407174D01*
X5996134Y-6407174D02*
X5986610Y-6416698D01*
X6196134Y-6530984D02*
X6177087Y-6521460D01*
X6177087Y-6521460D02*
X6167563Y-6511936D01*
X6167563Y-6511936D02*
X6158039Y-6492888D01*
X6158039Y-6492888D02*
X6158039Y-6435746D01*
X6158039Y-6435746D02*
X6167563Y-6416698D01*
X6167563Y-6416698D02*
X6177087Y-6407174D01*
X6177087Y-6407174D02*
X6196134Y-6397650D01*
X6196134Y-6397650D02*
X6224706Y-6397650D01*
X6224706Y-6397650D02*
X6243753Y-6407174D01*
X6243753Y-6407174D02*
X6253277Y-6416698D01*
X6253277Y-6416698D02*
X6262801Y-6435746D01*
X6262801Y-6435746D02*
X6262801Y-6492888D01*
X6262801Y-6492888D02*
X6253277Y-6511936D01*
X6253277Y-6511936D02*
X6243753Y-6521460D01*
X6243753Y-6521460D02*
X6224706Y-6530984D01*
X6224706Y-6530984D02*
X6196134Y-6530984D01*
X6377087Y-6530984D02*
X6358039Y-6521460D01*
X6358039Y-6521460D02*
X6348515Y-6502412D01*
X6348515Y-6502412D02*
X6348515Y-6330984D01*
X6529468Y-6521460D02*
X6510420Y-6530984D01*
X6510420Y-6530984D02*
X6472325Y-6530984D01*
X6472325Y-6530984D02*
X6453277Y-6521460D01*
X6453277Y-6521460D02*
X6443753Y-6502412D01*
X6443753Y-6502412D02*
X6443753Y-6426222D01*
X6443753Y-6426222D02*
X6453277Y-6407174D01*
X6453277Y-6407174D02*
X6472325Y-6397650D01*
X6472325Y-6397650D02*
X6510420Y-6397650D01*
X6510420Y-6397650D02*
X6529468Y-6407174D01*
X6529468Y-6407174D02*
X6538991Y-6426222D01*
X6538991Y-6426222D02*
X6538991Y-6445269D01*
X6538991Y-6445269D02*
X6443753Y-6464317D01*
X6615182Y-6521460D02*
X6634230Y-6530984D01*
X6634230Y-6530984D02*
X6672325Y-6530984D01*
X6672325Y-6530984D02*
X6691372Y-6521460D01*
X6691372Y-6521460D02*
X6700896Y-6502412D01*
X6700896Y-6502412D02*
X6700896Y-6492888D01*
X6700896Y-6492888D02*
X6691372Y-6473841D01*
X6691372Y-6473841D02*
X6672325Y-6464317D01*
X6672325Y-6464317D02*
X6643753Y-6464317D01*
X6643753Y-6464317D02*
X6624706Y-6454793D01*
X6624706Y-6454793D02*
X6615182Y-6435746D01*
X6615182Y-6435746D02*
X6615182Y-6426222D01*
X6615182Y-6426222D02*
X6624706Y-6407174D01*
X6624706Y-6407174D02*
X6643753Y-6397650D01*
X6643753Y-6397650D02*
X6672325Y-6397650D01*
X6672325Y-6397650D02*
X6691372Y-6407174D01*
X6767563Y-6607174D02*
X6777087Y-6597650D01*
X6777087Y-6597650D02*
X6796134Y-6569079D01*
X6796134Y-6569079D02*
X6805658Y-6550031D01*
X6805658Y-6550031D02*
X6815182Y-6521460D01*
X6815182Y-6521460D02*
X6824706Y-6473841D01*
X6824706Y-6473841D02*
X6824706Y-6435746D01*
X6824706Y-6435746D02*
X6815182Y-6388127D01*
X6815182Y-6388127D02*
X6805658Y-6359555D01*
X6805658Y-6359555D02*
X6796134Y-6340508D01*
X6796134Y-6340508D02*
X6777087Y-6311936D01*
X6777087Y-6311936D02*
X6767563Y-6302412D01*
D12*
X1945000Y-6751000D02*
X1992500Y-6703500D01*
X1945000Y-6656000D01*
X1897500Y-6703500D01*
X1945000Y-6751000D01*
D11*
X2291372Y-6594984D02*
X2310420Y-6594984D01*
X2310420Y-6594984D02*
X2329467Y-6604508D01*
X2329467Y-6604508D02*
X2338991Y-6614031D01*
X2338991Y-6614031D02*
X2348515Y-6633079D01*
X2348515Y-6633079D02*
X2358039Y-6671174D01*
X2358039Y-6671174D02*
X2358039Y-6718793D01*
X2358039Y-6718793D02*
X2348515Y-6756888D01*
X2348515Y-6756888D02*
X2338991Y-6775936D01*
X2338991Y-6775936D02*
X2329467Y-6785460D01*
X2329467Y-6785460D02*
X2310420Y-6794984D01*
X2310420Y-6794984D02*
X2291372Y-6794984D01*
X2291372Y-6794984D02*
X2272324Y-6785460D01*
X2272324Y-6785460D02*
X2262801Y-6775936D01*
X2262801Y-6775936D02*
X2253277Y-6756888D01*
X2253277Y-6756888D02*
X2243753Y-6718793D01*
X2243753Y-6718793D02*
X2243753Y-6671174D01*
X2243753Y-6671174D02*
X2253277Y-6633079D01*
X2253277Y-6633079D02*
X2262801Y-6614031D01*
X2262801Y-6614031D02*
X2272324Y-6604508D01*
X2272324Y-6604508D02*
X2291372Y-6594984D01*
X2443753Y-6775936D02*
X2453277Y-6785460D01*
X2453277Y-6785460D02*
X2443753Y-6794984D01*
X2443753Y-6794984D02*
X2434229Y-6785460D01*
X2434229Y-6785460D02*
X2443753Y-6775936D01*
X2443753Y-6775936D02*
X2443753Y-6794984D01*
X2548515Y-6794984D02*
X2586610Y-6794984D01*
X2586610Y-6794984D02*
X2605658Y-6785460D01*
X2605658Y-6785460D02*
X2615182Y-6775936D01*
X2615182Y-6775936D02*
X2634229Y-6747365D01*
X2634229Y-6747365D02*
X2643753Y-6709269D01*
X2643753Y-6709269D02*
X2643753Y-6633079D01*
X2643753Y-6633079D02*
X2634229Y-6614031D01*
X2634229Y-6614031D02*
X2624705Y-6604508D01*
X2624705Y-6604508D02*
X2605658Y-6594984D01*
X2605658Y-6594984D02*
X2567563Y-6594984D01*
X2567563Y-6594984D02*
X2548515Y-6604508D01*
X2548515Y-6604508D02*
X2538991Y-6614031D01*
X2538991Y-6614031D02*
X2529467Y-6633079D01*
X2529467Y-6633079D02*
X2529467Y-6680698D01*
X2529467Y-6680698D02*
X2538991Y-6699746D01*
X2538991Y-6699746D02*
X2548515Y-6709269D01*
X2548515Y-6709269D02*
X2567563Y-6718793D01*
X2567563Y-6718793D02*
X2605658Y-6718793D01*
X2605658Y-6718793D02*
X2624705Y-6709269D01*
X2624705Y-6709269D02*
X2634229Y-6699746D01*
X2634229Y-6699746D02*
X2643753Y-6680698D01*
X2824705Y-6594984D02*
X2729467Y-6594984D01*
X2729467Y-6594984D02*
X2719944Y-6690222D01*
X2719944Y-6690222D02*
X2729467Y-6680698D01*
X2729467Y-6680698D02*
X2748515Y-6671174D01*
X2748515Y-6671174D02*
X2796134Y-6671174D01*
X2796134Y-6671174D02*
X2815182Y-6680698D01*
X2815182Y-6680698D02*
X2824705Y-6690222D01*
X2824705Y-6690222D02*
X2834229Y-6709269D01*
X2834229Y-6709269D02*
X2834229Y-6756888D01*
X2834229Y-6756888D02*
X2824705Y-6775936D01*
X2824705Y-6775936D02*
X2815182Y-6785460D01*
X2815182Y-6785460D02*
X2796134Y-6794984D01*
X2796134Y-6794984D02*
X2748515Y-6794984D01*
X2748515Y-6794984D02*
X2729467Y-6785460D01*
X2729467Y-6785460D02*
X2719944Y-6775936D01*
X2958039Y-6594984D02*
X2977086Y-6594984D01*
X2977086Y-6594984D02*
X2996134Y-6604508D01*
X2996134Y-6604508D02*
X3005658Y-6614031D01*
X3005658Y-6614031D02*
X3015182Y-6633079D01*
X3015182Y-6633079D02*
X3024705Y-6671174D01*
X3024705Y-6671174D02*
X3024705Y-6718793D01*
X3024705Y-6718793D02*
X3015182Y-6756888D01*
X3015182Y-6756888D02*
X3005658Y-6775936D01*
X3005658Y-6775936D02*
X2996134Y-6785460D01*
X2996134Y-6785460D02*
X2977086Y-6794984D01*
X2977086Y-6794984D02*
X2958039Y-6794984D01*
X2958039Y-6794984D02*
X2938991Y-6785460D01*
X2938991Y-6785460D02*
X2929467Y-6775936D01*
X2929467Y-6775936D02*
X2919943Y-6756888D01*
X2919943Y-6756888D02*
X2910420Y-6718793D01*
X2910420Y-6718793D02*
X2910420Y-6671174D01*
X2910420Y-6671174D02*
X2919943Y-6633079D01*
X2919943Y-6633079D02*
X2929467Y-6614031D01*
X2929467Y-6614031D02*
X2938991Y-6604508D01*
X2938991Y-6604508D02*
X2958039Y-6594984D01*
X3110420Y-6794984D02*
X3110420Y-6661650D01*
X3110420Y-6680698D02*
X3119943Y-6671174D01*
X3119943Y-6671174D02*
X3138991Y-6661650D01*
X3138991Y-6661650D02*
X3167563Y-6661650D01*
X3167563Y-6661650D02*
X3186610Y-6671174D01*
X3186610Y-6671174D02*
X3196134Y-6690222D01*
X3196134Y-6690222D02*
X3196134Y-6794984D01*
X3196134Y-6690222D02*
X3205658Y-6671174D01*
X3205658Y-6671174D02*
X3224705Y-6661650D01*
X3224705Y-6661650D02*
X3253277Y-6661650D01*
X3253277Y-6661650D02*
X3272324Y-6671174D01*
X3272324Y-6671174D02*
X3281848Y-6690222D01*
X3281848Y-6690222D02*
X3281848Y-6794984D01*
X3377086Y-6794984D02*
X3377086Y-6661650D01*
X3377086Y-6680698D02*
X3386610Y-6671174D01*
X3386610Y-6671174D02*
X3405658Y-6661650D01*
X3405658Y-6661650D02*
X3434229Y-6661650D01*
X3434229Y-6661650D02*
X3453277Y-6671174D01*
X3453277Y-6671174D02*
X3462801Y-6690222D01*
X3462801Y-6690222D02*
X3462801Y-6794984D01*
X3462801Y-6690222D02*
X3472324Y-6671174D01*
X3472324Y-6671174D02*
X3491372Y-6661650D01*
X3491372Y-6661650D02*
X3519943Y-6661650D01*
X3519943Y-6661650D02*
X3538991Y-6671174D01*
X3538991Y-6671174D02*
X3548515Y-6690222D01*
X3548515Y-6690222D02*
X3548515Y-6794984D01*
X3938991Y-6585460D02*
X3767563Y-6842603D01*
X4196134Y-6594984D02*
X4215182Y-6594984D01*
X4215182Y-6594984D02*
X4234229Y-6604508D01*
X4234229Y-6604508D02*
X4243753Y-6614031D01*
X4243753Y-6614031D02*
X4253277Y-6633079D01*
X4253277Y-6633079D02*
X4262801Y-6671174D01*
X4262801Y-6671174D02*
X4262801Y-6718793D01*
X4262801Y-6718793D02*
X4253277Y-6756888D01*
X4253277Y-6756888D02*
X4243753Y-6775936D01*
X4243753Y-6775936D02*
X4234229Y-6785460D01*
X4234229Y-6785460D02*
X4215182Y-6794984D01*
X4215182Y-6794984D02*
X4196134Y-6794984D01*
X4196134Y-6794984D02*
X4177086Y-6785460D01*
X4177086Y-6785460D02*
X4167563Y-6775936D01*
X4167563Y-6775936D02*
X4158039Y-6756888D01*
X4158039Y-6756888D02*
X4148515Y-6718793D01*
X4148515Y-6718793D02*
X4148515Y-6671174D01*
X4148515Y-6671174D02*
X4158039Y-6633079D01*
X4158039Y-6633079D02*
X4167563Y-6614031D01*
X4167563Y-6614031D02*
X4177086Y-6604508D01*
X4177086Y-6604508D02*
X4196134Y-6594984D01*
X4348515Y-6775936D02*
X4358039Y-6785460D01*
X4358039Y-6785460D02*
X4348515Y-6794984D01*
X4348515Y-6794984D02*
X4338991Y-6785460D01*
X4338991Y-6785460D02*
X4348515Y-6775936D01*
X4348515Y-6775936D02*
X4348515Y-6794984D01*
X4481848Y-6594984D02*
X4500896Y-6594984D01*
X4500896Y-6594984D02*
X4519944Y-6604508D01*
X4519944Y-6604508D02*
X4529468Y-6614031D01*
X4529468Y-6614031D02*
X4538991Y-6633079D01*
X4538991Y-6633079D02*
X4548515Y-6671174D01*
X4548515Y-6671174D02*
X4548515Y-6718793D01*
X4548515Y-6718793D02*
X4538991Y-6756888D01*
X4538991Y-6756888D02*
X4529468Y-6775936D01*
X4529468Y-6775936D02*
X4519944Y-6785460D01*
X4519944Y-6785460D02*
X4500896Y-6794984D01*
X4500896Y-6794984D02*
X4481848Y-6794984D01*
X4481848Y-6794984D02*
X4462801Y-6785460D01*
X4462801Y-6785460D02*
X4453277Y-6775936D01*
X4453277Y-6775936D02*
X4443753Y-6756888D01*
X4443753Y-6756888D02*
X4434229Y-6718793D01*
X4434229Y-6718793D02*
X4434229Y-6671174D01*
X4434229Y-6671174D02*
X4443753Y-6633079D01*
X4443753Y-6633079D02*
X4453277Y-6614031D01*
X4453277Y-6614031D02*
X4462801Y-6604508D01*
X4462801Y-6604508D02*
X4481848Y-6594984D01*
X4615182Y-6594984D02*
X4738991Y-6594984D01*
X4738991Y-6594984D02*
X4672325Y-6671174D01*
X4672325Y-6671174D02*
X4700896Y-6671174D01*
X4700896Y-6671174D02*
X4719944Y-6680698D01*
X4719944Y-6680698D02*
X4729468Y-6690222D01*
X4729468Y-6690222D02*
X4738991Y-6709269D01*
X4738991Y-6709269D02*
X4738991Y-6756888D01*
X4738991Y-6756888D02*
X4729468Y-6775936D01*
X4729468Y-6775936D02*
X4719944Y-6785460D01*
X4719944Y-6785460D02*
X4700896Y-6794984D01*
X4700896Y-6794984D02*
X4643753Y-6794984D01*
X4643753Y-6794984D02*
X4624706Y-6785460D01*
X4624706Y-6785460D02*
X4615182Y-6775936D01*
X4805658Y-6594984D02*
X4938991Y-6594984D01*
X4938991Y-6594984D02*
X4853277Y-6794984D01*
X5100896Y-6661650D02*
X5100896Y-6794984D01*
X5053277Y-6585460D02*
X5005658Y-6728317D01*
X5005658Y-6728317D02*
X5129468Y-6728317D01*
X5196134Y-6594984D02*
X5196134Y-6633079D01*
X5272325Y-6594984D02*
X5272325Y-6633079D01*
X5567563Y-6871174D02*
X5558039Y-6861650D01*
X5558039Y-6861650D02*
X5538991Y-6833079D01*
X5538991Y-6833079D02*
X5529468Y-6814031D01*
X5529468Y-6814031D02*
X5519944Y-6785460D01*
X5519944Y-6785460D02*
X5510420Y-6737841D01*
X5510420Y-6737841D02*
X5510420Y-6699746D01*
X5510420Y-6699746D02*
X5519944Y-6652127D01*
X5519944Y-6652127D02*
X5529468Y-6623555D01*
X5529468Y-6623555D02*
X5538991Y-6604508D01*
X5538991Y-6604508D02*
X5558039Y-6575936D01*
X5558039Y-6575936D02*
X5567563Y-6566412D01*
X5729468Y-6661650D02*
X5729468Y-6794984D01*
X5681848Y-6585460D02*
X5634229Y-6728317D01*
X5634229Y-6728317D02*
X5758039Y-6728317D01*
X5986610Y-6794984D02*
X5986610Y-6594984D01*
X6072325Y-6794984D02*
X6072325Y-6690222D01*
X6072325Y-6690222D02*
X6062801Y-6671174D01*
X6062801Y-6671174D02*
X6043753Y-6661650D01*
X6043753Y-6661650D02*
X6015182Y-6661650D01*
X6015182Y-6661650D02*
X5996134Y-6671174D01*
X5996134Y-6671174D02*
X5986610Y-6680698D01*
X6196134Y-6794984D02*
X6177087Y-6785460D01*
X6177087Y-6785460D02*
X6167563Y-6775936D01*
X6167563Y-6775936D02*
X6158039Y-6756888D01*
X6158039Y-6756888D02*
X6158039Y-6699746D01*
X6158039Y-6699746D02*
X6167563Y-6680698D01*
X6167563Y-6680698D02*
X6177087Y-6671174D01*
X6177087Y-6671174D02*
X6196134Y-6661650D01*
X6196134Y-6661650D02*
X6224706Y-6661650D01*
X6224706Y-6661650D02*
X6243753Y-6671174D01*
X6243753Y-6671174D02*
X6253277Y-6680698D01*
X6253277Y-6680698D02*
X6262801Y-6699746D01*
X6262801Y-6699746D02*
X6262801Y-6756888D01*
X6262801Y-6756888D02*
X6253277Y-6775936D01*
X6253277Y-6775936D02*
X6243753Y-6785460D01*
X6243753Y-6785460D02*
X6224706Y-6794984D01*
X6224706Y-6794984D02*
X6196134Y-6794984D01*
X6377087Y-6794984D02*
X6358039Y-6785460D01*
X6358039Y-6785460D02*
X6348515Y-6766412D01*
X6348515Y-6766412D02*
X6348515Y-6594984D01*
X6529468Y-6785460D02*
X6510420Y-6794984D01*
X6510420Y-6794984D02*
X6472325Y-6794984D01*
X6472325Y-6794984D02*
X6453277Y-6785460D01*
X6453277Y-6785460D02*
X6443753Y-6766412D01*
X6443753Y-6766412D02*
X6443753Y-6690222D01*
X6443753Y-6690222D02*
X6453277Y-6671174D01*
X6453277Y-6671174D02*
X6472325Y-6661650D01*
X6472325Y-6661650D02*
X6510420Y-6661650D01*
X6510420Y-6661650D02*
X6529468Y-6671174D01*
X6529468Y-6671174D02*
X6538991Y-6690222D01*
X6538991Y-6690222D02*
X6538991Y-6709269D01*
X6538991Y-6709269D02*
X6443753Y-6728317D01*
X6615182Y-6785460D02*
X6634230Y-6794984D01*
X6634230Y-6794984D02*
X6672325Y-6794984D01*
X6672325Y-6794984D02*
X6691372Y-6785460D01*
X6691372Y-6785460D02*
X6700896Y-6766412D01*
X6700896Y-6766412D02*
X6700896Y-6756888D01*
X6700896Y-6756888D02*
X6691372Y-6737841D01*
X6691372Y-6737841D02*
X6672325Y-6728317D01*
X6672325Y-6728317D02*
X6643753Y-6728317D01*
X6643753Y-6728317D02*
X6624706Y-6718793D01*
X6624706Y-6718793D02*
X6615182Y-6699746D01*
X6615182Y-6699746D02*
X6615182Y-6690222D01*
X6615182Y-6690222D02*
X6624706Y-6671174D01*
X6624706Y-6671174D02*
X6643753Y-6661650D01*
X6643753Y-6661650D02*
X6672325Y-6661650D01*
X6672325Y-6661650D02*
X6691372Y-6671174D01*
X6767563Y-6871174D02*
X6777087Y-6861650D01*
X6777087Y-6861650D02*
X6796134Y-6833079D01*
X6796134Y-6833079D02*
X6805658Y-6814031D01*
X6805658Y-6814031D02*
X6815182Y-6785460D01*
X6815182Y-6785460D02*
X6824706Y-6737841D01*
X6824706Y-6737841D02*
X6824706Y-6699746D01*
X6824706Y-6699746D02*
X6815182Y-6652127D01*
X6815182Y-6652127D02*
X6805658Y-6623555D01*
X6805658Y-6623555D02*
X6796134Y-6604508D01*
X6796134Y-6604508D02*
X6777087Y-6575936D01*
X6777087Y-6575936D02*
X6767563Y-6566412D01*
D12*
X1892500Y-6917500D02*
X1992500Y-7017500D01*
X1992500Y-6917500D02*
X1892500Y-7017500D01*
X1992500Y-6967500D02*
G75*
G02*
X1892500Y-6967500I-50000J0D01*
G01*
X1892500Y-6967500D02*
G75*
G02*
X1992500Y-6967500I50000J0D01*
G01*
D11*
X2358039Y-7058984D02*
X2243753Y-7058984D01*
X2300896Y-7058984D02*
X2300896Y-6858984D01*
X2300896Y-6858984D02*
X2281848Y-6887555D01*
X2281848Y-6887555D02*
X2262801Y-6906603D01*
X2262801Y-6906603D02*
X2243753Y-6916127D01*
X2443753Y-7039936D02*
X2453277Y-7049460D01*
X2453277Y-7049460D02*
X2443753Y-7058984D01*
X2443753Y-7058984D02*
X2434229Y-7049460D01*
X2434229Y-7049460D02*
X2443753Y-7039936D01*
X2443753Y-7039936D02*
X2443753Y-7058984D01*
X2577086Y-6858984D02*
X2596134Y-6858984D01*
X2596134Y-6858984D02*
X2615182Y-6868508D01*
X2615182Y-6868508D02*
X2624705Y-6878031D01*
X2624705Y-6878031D02*
X2634229Y-6897079D01*
X2634229Y-6897079D02*
X2643753Y-6935174D01*
X2643753Y-6935174D02*
X2643753Y-6982793D01*
X2643753Y-6982793D02*
X2634229Y-7020888D01*
X2634229Y-7020888D02*
X2624705Y-7039936D01*
X2624705Y-7039936D02*
X2615182Y-7049460D01*
X2615182Y-7049460D02*
X2596134Y-7058984D01*
X2596134Y-7058984D02*
X2577086Y-7058984D01*
X2577086Y-7058984D02*
X2558039Y-7049460D01*
X2558039Y-7049460D02*
X2548515Y-7039936D01*
X2548515Y-7039936D02*
X2538991Y-7020888D01*
X2538991Y-7020888D02*
X2529467Y-6982793D01*
X2529467Y-6982793D02*
X2529467Y-6935174D01*
X2529467Y-6935174D02*
X2538991Y-6897079D01*
X2538991Y-6897079D02*
X2548515Y-6878031D01*
X2548515Y-6878031D02*
X2558039Y-6868508D01*
X2558039Y-6868508D02*
X2577086Y-6858984D01*
X2767563Y-6858984D02*
X2786610Y-6858984D01*
X2786610Y-6858984D02*
X2805658Y-6868508D01*
X2805658Y-6868508D02*
X2815182Y-6878031D01*
X2815182Y-6878031D02*
X2824705Y-6897079D01*
X2824705Y-6897079D02*
X2834229Y-6935174D01*
X2834229Y-6935174D02*
X2834229Y-6982793D01*
X2834229Y-6982793D02*
X2824705Y-7020888D01*
X2824705Y-7020888D02*
X2815182Y-7039936D01*
X2815182Y-7039936D02*
X2805658Y-7049460D01*
X2805658Y-7049460D02*
X2786610Y-7058984D01*
X2786610Y-7058984D02*
X2767563Y-7058984D01*
X2767563Y-7058984D02*
X2748515Y-7049460D01*
X2748515Y-7049460D02*
X2738991Y-7039936D01*
X2738991Y-7039936D02*
X2729467Y-7020888D01*
X2729467Y-7020888D02*
X2719944Y-6982793D01*
X2719944Y-6982793D02*
X2719944Y-6935174D01*
X2719944Y-6935174D02*
X2729467Y-6897079D01*
X2729467Y-6897079D02*
X2738991Y-6878031D01*
X2738991Y-6878031D02*
X2748515Y-6868508D01*
X2748515Y-6868508D02*
X2767563Y-6858984D01*
X2958039Y-6858984D02*
X2977086Y-6858984D01*
X2977086Y-6858984D02*
X2996134Y-6868508D01*
X2996134Y-6868508D02*
X3005658Y-6878031D01*
X3005658Y-6878031D02*
X3015182Y-6897079D01*
X3015182Y-6897079D02*
X3024705Y-6935174D01*
X3024705Y-6935174D02*
X3024705Y-6982793D01*
X3024705Y-6982793D02*
X3015182Y-7020888D01*
X3015182Y-7020888D02*
X3005658Y-7039936D01*
X3005658Y-7039936D02*
X2996134Y-7049460D01*
X2996134Y-7049460D02*
X2977086Y-7058984D01*
X2977086Y-7058984D02*
X2958039Y-7058984D01*
X2958039Y-7058984D02*
X2938991Y-7049460D01*
X2938991Y-7049460D02*
X2929467Y-7039936D01*
X2929467Y-7039936D02*
X2919943Y-7020888D01*
X2919943Y-7020888D02*
X2910420Y-6982793D01*
X2910420Y-6982793D02*
X2910420Y-6935174D01*
X2910420Y-6935174D02*
X2919943Y-6897079D01*
X2919943Y-6897079D02*
X2929467Y-6878031D01*
X2929467Y-6878031D02*
X2938991Y-6868508D01*
X2938991Y-6868508D02*
X2958039Y-6858984D01*
X3110420Y-7058984D02*
X3110420Y-6925650D01*
X3110420Y-6944698D02*
X3119943Y-6935174D01*
X3119943Y-6935174D02*
X3138991Y-6925650D01*
X3138991Y-6925650D02*
X3167563Y-6925650D01*
X3167563Y-6925650D02*
X3186610Y-6935174D01*
X3186610Y-6935174D02*
X3196134Y-6954222D01*
X3196134Y-6954222D02*
X3196134Y-7058984D01*
X3196134Y-6954222D02*
X3205658Y-6935174D01*
X3205658Y-6935174D02*
X3224705Y-6925650D01*
X3224705Y-6925650D02*
X3253277Y-6925650D01*
X3253277Y-6925650D02*
X3272324Y-6935174D01*
X3272324Y-6935174D02*
X3281848Y-6954222D01*
X3281848Y-6954222D02*
X3281848Y-7058984D01*
X3377086Y-7058984D02*
X3377086Y-6925650D01*
X3377086Y-6944698D02*
X3386610Y-6935174D01*
X3386610Y-6935174D02*
X3405658Y-6925650D01*
X3405658Y-6925650D02*
X3434229Y-6925650D01*
X3434229Y-6925650D02*
X3453277Y-6935174D01*
X3453277Y-6935174D02*
X3462801Y-6954222D01*
X3462801Y-6954222D02*
X3462801Y-7058984D01*
X3462801Y-6954222D02*
X3472324Y-6935174D01*
X3472324Y-6935174D02*
X3491372Y-6925650D01*
X3491372Y-6925650D02*
X3519943Y-6925650D01*
X3519943Y-6925650D02*
X3538991Y-6935174D01*
X3538991Y-6935174D02*
X3548515Y-6954222D01*
X3548515Y-6954222D02*
X3548515Y-7058984D01*
X3938991Y-6849460D02*
X3767563Y-7106603D01*
X4196134Y-6858984D02*
X4215182Y-6858984D01*
X4215182Y-6858984D02*
X4234229Y-6868508D01*
X4234229Y-6868508D02*
X4243753Y-6878031D01*
X4243753Y-6878031D02*
X4253277Y-6897079D01*
X4253277Y-6897079D02*
X4262801Y-6935174D01*
X4262801Y-6935174D02*
X4262801Y-6982793D01*
X4262801Y-6982793D02*
X4253277Y-7020888D01*
X4253277Y-7020888D02*
X4243753Y-7039936D01*
X4243753Y-7039936D02*
X4234229Y-7049460D01*
X4234229Y-7049460D02*
X4215182Y-7058984D01*
X4215182Y-7058984D02*
X4196134Y-7058984D01*
X4196134Y-7058984D02*
X4177086Y-7049460D01*
X4177086Y-7049460D02*
X4167563Y-7039936D01*
X4167563Y-7039936D02*
X4158039Y-7020888D01*
X4158039Y-7020888D02*
X4148515Y-6982793D01*
X4148515Y-6982793D02*
X4148515Y-6935174D01*
X4148515Y-6935174D02*
X4158039Y-6897079D01*
X4158039Y-6897079D02*
X4167563Y-6878031D01*
X4167563Y-6878031D02*
X4177086Y-6868508D01*
X4177086Y-6868508D02*
X4196134Y-6858984D01*
X4348515Y-7039936D02*
X4358039Y-7049460D01*
X4358039Y-7049460D02*
X4348515Y-7058984D01*
X4348515Y-7058984D02*
X4338991Y-7049460D01*
X4338991Y-7049460D02*
X4348515Y-7039936D01*
X4348515Y-7039936D02*
X4348515Y-7058984D01*
X4481848Y-6858984D02*
X4500896Y-6858984D01*
X4500896Y-6858984D02*
X4519944Y-6868508D01*
X4519944Y-6868508D02*
X4529468Y-6878031D01*
X4529468Y-6878031D02*
X4538991Y-6897079D01*
X4538991Y-6897079D02*
X4548515Y-6935174D01*
X4548515Y-6935174D02*
X4548515Y-6982793D01*
X4548515Y-6982793D02*
X4538991Y-7020888D01*
X4538991Y-7020888D02*
X4529468Y-7039936D01*
X4529468Y-7039936D02*
X4519944Y-7049460D01*
X4519944Y-7049460D02*
X4500896Y-7058984D01*
X4500896Y-7058984D02*
X4481848Y-7058984D01*
X4481848Y-7058984D02*
X4462801Y-7049460D01*
X4462801Y-7049460D02*
X4453277Y-7039936D01*
X4453277Y-7039936D02*
X4443753Y-7020888D01*
X4443753Y-7020888D02*
X4434229Y-6982793D01*
X4434229Y-6982793D02*
X4434229Y-6935174D01*
X4434229Y-6935174D02*
X4443753Y-6897079D01*
X4443753Y-6897079D02*
X4453277Y-6878031D01*
X4453277Y-6878031D02*
X4462801Y-6868508D01*
X4462801Y-6868508D02*
X4481848Y-6858984D01*
X4615182Y-6858984D02*
X4738991Y-6858984D01*
X4738991Y-6858984D02*
X4672325Y-6935174D01*
X4672325Y-6935174D02*
X4700896Y-6935174D01*
X4700896Y-6935174D02*
X4719944Y-6944698D01*
X4719944Y-6944698D02*
X4729468Y-6954222D01*
X4729468Y-6954222D02*
X4738991Y-6973269D01*
X4738991Y-6973269D02*
X4738991Y-7020888D01*
X4738991Y-7020888D02*
X4729468Y-7039936D01*
X4729468Y-7039936D02*
X4719944Y-7049460D01*
X4719944Y-7049460D02*
X4700896Y-7058984D01*
X4700896Y-7058984D02*
X4643753Y-7058984D01*
X4643753Y-7058984D02*
X4624706Y-7049460D01*
X4624706Y-7049460D02*
X4615182Y-7039936D01*
X4834229Y-7058984D02*
X4872325Y-7058984D01*
X4872325Y-7058984D02*
X4891372Y-7049460D01*
X4891372Y-7049460D02*
X4900896Y-7039936D01*
X4900896Y-7039936D02*
X4919944Y-7011365D01*
X4919944Y-7011365D02*
X4929468Y-6973269D01*
X4929468Y-6973269D02*
X4929468Y-6897079D01*
X4929468Y-6897079D02*
X4919944Y-6878031D01*
X4919944Y-6878031D02*
X4910420Y-6868508D01*
X4910420Y-6868508D02*
X4891372Y-6858984D01*
X4891372Y-6858984D02*
X4853277Y-6858984D01*
X4853277Y-6858984D02*
X4834229Y-6868508D01*
X4834229Y-6868508D02*
X4824706Y-6878031D01*
X4824706Y-6878031D02*
X4815182Y-6897079D01*
X4815182Y-6897079D02*
X4815182Y-6944698D01*
X4815182Y-6944698D02*
X4824706Y-6963746D01*
X4824706Y-6963746D02*
X4834229Y-6973269D01*
X4834229Y-6973269D02*
X4853277Y-6982793D01*
X4853277Y-6982793D02*
X4891372Y-6982793D01*
X4891372Y-6982793D02*
X4910420Y-6973269D01*
X4910420Y-6973269D02*
X4919944Y-6963746D01*
X4919944Y-6963746D02*
X4929468Y-6944698D01*
X5100896Y-6925650D02*
X5100896Y-7058984D01*
X5053277Y-6849460D02*
X5005658Y-6992317D01*
X5005658Y-6992317D02*
X5129468Y-6992317D01*
X5196134Y-6858984D02*
X5196134Y-6897079D01*
X5272325Y-6858984D02*
X5272325Y-6897079D01*
X5567563Y-7135174D02*
X5558039Y-7125650D01*
X5558039Y-7125650D02*
X5538991Y-7097079D01*
X5538991Y-7097079D02*
X5529468Y-7078031D01*
X5529468Y-7078031D02*
X5519944Y-7049460D01*
X5519944Y-7049460D02*
X5510420Y-7001841D01*
X5510420Y-7001841D02*
X5510420Y-6963746D01*
X5510420Y-6963746D02*
X5519944Y-6916127D01*
X5519944Y-6916127D02*
X5529468Y-6887555D01*
X5529468Y-6887555D02*
X5538991Y-6868508D01*
X5538991Y-6868508D02*
X5558039Y-6839936D01*
X5558039Y-6839936D02*
X5567563Y-6830412D01*
X5634229Y-6878031D02*
X5643753Y-6868508D01*
X5643753Y-6868508D02*
X5662801Y-6858984D01*
X5662801Y-6858984D02*
X5710420Y-6858984D01*
X5710420Y-6858984D02*
X5729468Y-6868508D01*
X5729468Y-6868508D02*
X5738991Y-6878031D01*
X5738991Y-6878031D02*
X5748515Y-6897079D01*
X5748515Y-6897079D02*
X5748515Y-6916127D01*
X5748515Y-6916127D02*
X5738991Y-6944698D01*
X5738991Y-6944698D02*
X5624706Y-7058984D01*
X5624706Y-7058984D02*
X5748515Y-7058984D01*
X5986610Y-7058984D02*
X5986610Y-6858984D01*
X6072325Y-7058984D02*
X6072325Y-6954222D01*
X6072325Y-6954222D02*
X6062801Y-6935174D01*
X6062801Y-6935174D02*
X6043753Y-6925650D01*
X6043753Y-6925650D02*
X6015182Y-6925650D01*
X6015182Y-6925650D02*
X5996134Y-6935174D01*
X5996134Y-6935174D02*
X5986610Y-6944698D01*
X6196134Y-7058984D02*
X6177087Y-7049460D01*
X6177087Y-7049460D02*
X6167563Y-7039936D01*
X6167563Y-7039936D02*
X6158039Y-7020888D01*
X6158039Y-7020888D02*
X6158039Y-6963746D01*
X6158039Y-6963746D02*
X6167563Y-6944698D01*
X6167563Y-6944698D02*
X6177087Y-6935174D01*
X6177087Y-6935174D02*
X6196134Y-6925650D01*
X6196134Y-6925650D02*
X6224706Y-6925650D01*
X6224706Y-6925650D02*
X6243753Y-6935174D01*
X6243753Y-6935174D02*
X6253277Y-6944698D01*
X6253277Y-6944698D02*
X6262801Y-6963746D01*
X6262801Y-6963746D02*
X6262801Y-7020888D01*
X6262801Y-7020888D02*
X6253277Y-7039936D01*
X6253277Y-7039936D02*
X6243753Y-7049460D01*
X6243753Y-7049460D02*
X6224706Y-7058984D01*
X6224706Y-7058984D02*
X6196134Y-7058984D01*
X6377087Y-7058984D02*
X6358039Y-7049460D01*
X6358039Y-7049460D02*
X6348515Y-7030412D01*
X6348515Y-7030412D02*
X6348515Y-6858984D01*
X6529468Y-7049460D02*
X6510420Y-7058984D01*
X6510420Y-7058984D02*
X6472325Y-7058984D01*
X6472325Y-7058984D02*
X6453277Y-7049460D01*
X6453277Y-7049460D02*
X6443753Y-7030412D01*
X6443753Y-7030412D02*
X6443753Y-6954222D01*
X6443753Y-6954222D02*
X6453277Y-6935174D01*
X6453277Y-6935174D02*
X6472325Y-6925650D01*
X6472325Y-6925650D02*
X6510420Y-6925650D01*
X6510420Y-6925650D02*
X6529468Y-6935174D01*
X6529468Y-6935174D02*
X6538991Y-6954222D01*
X6538991Y-6954222D02*
X6538991Y-6973269D01*
X6538991Y-6973269D02*
X6443753Y-6992317D01*
X6615182Y-7049460D02*
X6634230Y-7058984D01*
X6634230Y-7058984D02*
X6672325Y-7058984D01*
X6672325Y-7058984D02*
X6691372Y-7049460D01*
X6691372Y-7049460D02*
X6700896Y-7030412D01*
X6700896Y-7030412D02*
X6700896Y-7020888D01*
X6700896Y-7020888D02*
X6691372Y-7001841D01*
X6691372Y-7001841D02*
X6672325Y-6992317D01*
X6672325Y-6992317D02*
X6643753Y-6992317D01*
X6643753Y-6992317D02*
X6624706Y-6982793D01*
X6624706Y-6982793D02*
X6615182Y-6963746D01*
X6615182Y-6963746D02*
X6615182Y-6954222D01*
X6615182Y-6954222D02*
X6624706Y-6935174D01*
X6624706Y-6935174D02*
X6643753Y-6925650D01*
X6643753Y-6925650D02*
X6672325Y-6925650D01*
X6672325Y-6925650D02*
X6691372Y-6935174D01*
X6767563Y-7135174D02*
X6777087Y-7125650D01*
X6777087Y-7125650D02*
X6796134Y-7097079D01*
X6796134Y-7097079D02*
X6805658Y-7078031D01*
X6805658Y-7078031D02*
X6815182Y-7049460D01*
X6815182Y-7049460D02*
X6824706Y-7001841D01*
X6824706Y-7001841D02*
X6824706Y-6963746D01*
X6824706Y-6963746D02*
X6815182Y-6916127D01*
X6815182Y-6916127D02*
X6805658Y-6887555D01*
X6805658Y-6887555D02*
X6796134Y-6868508D01*
X6796134Y-6868508D02*
X6777087Y-6839936D01*
X6777087Y-6839936D02*
X6767563Y-6830412D01*
M02*
