%TF.GenerationSoftware,KiCad,Pcbnew,8.0.2*%
%TF.CreationDate,2024-05-27T00:00:39+02:00*%
%TF.ProjectId,ESP-Logger-HW,4553502d-4c6f-4676-9765-722d48572e6b,rev?*%
%TF.SameCoordinates,Original*%
%TF.FileFunction,Copper,L2,Bot*%
%TF.FilePolarity,Positive*%
%FSLAX46Y46*%
G04 Gerber Fmt 4.6, Leading zero omitted, Abs format (unit mm)*
G04 Created by KiCad (PCBNEW 8.0.2) date 2024-05-27 00:00:39*
%MOMM*%
%LPD*%
G01*
G04 APERTURE LIST*
G04 Aperture macros list*
%AMRoundRect*
0 Rectangle with rounded corners*
0 $1 Rounding radius*
0 $2 $3 $4 $5 $6 $7 $8 $9 X,Y pos of 4 corners*
0 Add a 4 corners polygon primitive as box body*
4,1,4,$2,$3,$4,$5,$6,$7,$8,$9,$2,$3,0*
0 Add four circle primitives for the rounded corners*
1,1,$1+$1,$2,$3*
1,1,$1+$1,$4,$5*
1,1,$1+$1,$6,$7*
1,1,$1+$1,$8,$9*
0 Add four rect primitives between the rounded corners*
20,1,$1+$1,$2,$3,$4,$5,0*
20,1,$1+$1,$4,$5,$6,$7,0*
20,1,$1+$1,$6,$7,$8,$9,0*
20,1,$1+$1,$8,$9,$2,$3,0*%
G04 Aperture macros list end*
%TA.AperFunction,ComponentPad*%
%ADD10R,1.500000X1.500000*%
%TD*%
%TA.AperFunction,ComponentPad*%
%ADD11C,1.500000*%
%TD*%
%TA.AperFunction,ComponentPad*%
%ADD12RoundRect,0.250000X0.725000X-0.600000X0.725000X0.600000X-0.725000X0.600000X-0.725000X-0.600000X0*%
%TD*%
%TA.AperFunction,ComponentPad*%
%ADD13O,1.950000X1.700000*%
%TD*%
%TA.AperFunction,ComponentPad*%
%ADD14RoundRect,0.250000X-0.750000X0.600000X-0.750000X-0.600000X0.750000X-0.600000X0.750000X0.600000X0*%
%TD*%
%TA.AperFunction,ComponentPad*%
%ADD15O,2.000000X1.700000*%
%TD*%
%TA.AperFunction,SMDPad,CuDef*%
%ADD16R,1.350000X0.400000*%
%TD*%
%TA.AperFunction,ComponentPad*%
%ADD17O,1.550000X0.890000*%
%TD*%
%TA.AperFunction,SMDPad,CuDef*%
%ADD18R,1.550000X1.200000*%
%TD*%
%TA.AperFunction,ComponentPad*%
%ADD19O,0.950000X1.250000*%
%TD*%
%TA.AperFunction,SMDPad,CuDef*%
%ADD20R,1.550000X1.500000*%
%TD*%
%TA.AperFunction,ViaPad*%
%ADD21C,0.600000*%
%TD*%
%TA.AperFunction,Conductor*%
%ADD22C,0.250000*%
%TD*%
G04 APERTURE END LIST*
D10*
%TO.P,DHT1,1,VCC*%
%TO.N,VCC*%
X24130000Y-45720000D03*
D11*
%TO.P,DHT1,2,IO*%
%TO.N,Net-(DHT1-IO)*%
X26670000Y-45720000D03*
%TO.P,DHT1,3,NC*%
%TO.N,unconnected-(DHT1-NC-Pad3)*%
X29210000Y-45720000D03*
%TO.P,DHT1,4,GND*%
%TO.N,GND*%
X31750000Y-45720000D03*
%TD*%
D12*
%TO.P,J1,1,Pin_1*%
%TO.N,Net-(ESP1-IO0)*%
X36500000Y-40000000D03*
D13*
%TO.P,J1,2,Pin_2*%
%TO.N,Net-(ESP1-EN)*%
X36500000Y-37500000D03*
%TO.P,J1,3,Pin_3*%
%TO.N,Net-(ESP1-TXD0)*%
X36500000Y-35000000D03*
%TO.P,J1,4,Pin_4*%
%TO.N,Net-(ESP1-RXD0)*%
X36500000Y-32500000D03*
%TD*%
D14*
%TO.P,J2,1,Pin_1*%
%TO.N,GND*%
X28475000Y-35000000D03*
D15*
%TO.P,J2,2,Pin_2*%
%TO.N,Net-(J2-Pin_2)*%
X28475000Y-37500000D03*
%TD*%
D16*
%TO.P,J3,1,VBUS*%
%TO.N,Net-(J2-Pin_2)*%
X24000000Y-39450000D03*
%TO.P,J3,2,D-*%
%TO.N,unconnected-(J3-D--Pad2)*%
X24000000Y-38800000D03*
%TO.P,J3,3,D+*%
%TO.N,unconnected-(J3-D+-Pad3)*%
X24000000Y-38150000D03*
%TO.P,J3,4,ID*%
%TO.N,unconnected-(J3-ID-Pad4)*%
X24000000Y-37500000D03*
%TO.P,J3,5,GND*%
%TO.N,GND*%
X24000000Y-36850000D03*
D17*
%TO.P,J3,6,Shield*%
X21300000Y-41650000D03*
D18*
X21300000Y-41050000D03*
D19*
X24000000Y-40650000D03*
D20*
X21300000Y-39150000D03*
X21300000Y-37150000D03*
D19*
X24000000Y-35650000D03*
D18*
X21300000Y-35250000D03*
D17*
X21300000Y-34650000D03*
%TD*%
D21*
%TO.N,VCC*%
X30500000Y-30000000D03*
%TO.N,Net-(ESP1-EN)*%
X38000000Y-31000000D03*
X38000000Y-27500000D03*
%TO.N,GND*%
X47500000Y-37500000D03*
X50500000Y-37500000D03*
X50500000Y-39000000D03*
X26500000Y-40500000D03*
X49000000Y-36000000D03*
X33000000Y-29000000D03*
X49000000Y-39000000D03*
X47500000Y-39000000D03*
X50500000Y-36000000D03*
X49000000Y-37500000D03*
X27000000Y-35500000D03*
X47500000Y-34500000D03*
X46000000Y-34500000D03*
X46000000Y-36000000D03*
X23500000Y-27500000D03*
X47500000Y-36000000D03*
X50500000Y-34500000D03*
X46000000Y-37500000D03*
X46000000Y-39000000D03*
X49000000Y-34500000D03*
%TO.N,Net-(D1-A)*%
X55500000Y-38000000D03*
X31000000Y-21000000D03*
%TO.N,Net-(D2-A)*%
X55500000Y-39000000D03*
X31000000Y-23000000D03*
%TO.N,Net-(D3-A)*%
X31000000Y-25000000D03*
X55500000Y-41500000D03*
%TO.N,Net-(ESP1-IO0)*%
X44000000Y-45000000D03*
%TO.N,Net-(ESP1-RXD0)*%
X44000000Y-33565000D03*
%TO.N,Net-(ESP1-TXD0)*%
X43000000Y-34000000D03*
%TO.N,Net-(J2-Pin_2)*%
X25000000Y-39500000D03*
%TD*%
D22*
%TO.N,VCC*%
X30500000Y-39350000D02*
X30500000Y-30000000D01*
X24130000Y-45720000D02*
X30500000Y-39350000D01*
%TO.N,Net-(ESP1-EN)*%
X38000000Y-27500000D02*
X38000000Y-31000000D01*
%TO.N,GND*%
X23600000Y-35250000D02*
X24000000Y-35650000D01*
X23600000Y-41050000D02*
X24000000Y-40650000D01*
X25650000Y-36850000D02*
X27000000Y-35500000D01*
X21300000Y-35250000D02*
X21300000Y-37150000D01*
X24000000Y-36850000D02*
X24000000Y-35650000D01*
X21300000Y-37150000D02*
X21300000Y-39150000D01*
X21300000Y-41050000D02*
X23600000Y-41050000D01*
X25650000Y-36850000D02*
X25650000Y-29650000D01*
X21300000Y-35250000D02*
X23600000Y-35250000D01*
X26300000Y-29000000D02*
X25650000Y-29650000D01*
X25650000Y-39650000D02*
X26500000Y-40500000D01*
X33000000Y-29000000D02*
X26300000Y-29000000D01*
X25650000Y-36850000D02*
X25650000Y-39650000D01*
X25650000Y-29650000D02*
X23500000Y-27500000D01*
X24000000Y-36850000D02*
X25650000Y-36850000D01*
X21300000Y-39150000D02*
X21300000Y-41050000D01*
%TO.N,Net-(D1-A)*%
X52500000Y-33727208D02*
X51254594Y-32481802D01*
X55500000Y-38000000D02*
X52500000Y-35000000D01*
X52500000Y-35000000D02*
X52500000Y-33727208D01*
X51254594Y-32481802D02*
X45254594Y-32481802D01*
X33772792Y-21000000D02*
X31000000Y-21000000D01*
X45254594Y-32481802D02*
X33772792Y-21000000D01*
%TO.N,Net-(D2-A)*%
X45068198Y-32931802D02*
X35136396Y-23000000D01*
X55500000Y-39000000D02*
X52000000Y-35500000D01*
X35136396Y-23000000D02*
X31000000Y-23000000D01*
X52000000Y-35500000D02*
X52000000Y-33863604D01*
X51068198Y-32931802D02*
X45068198Y-32931802D01*
X52000000Y-33863604D02*
X51068198Y-32931802D01*
%TO.N,Net-(D3-A)*%
X36500000Y-25000000D02*
X31000000Y-25000000D01*
X51500000Y-37500000D02*
X51500000Y-34000000D01*
X55500000Y-41500000D02*
X51500000Y-37500000D01*
X51000000Y-33500000D02*
X45000000Y-33500000D01*
X45000000Y-33500000D02*
X36500000Y-25000000D01*
X51500000Y-34000000D02*
X51000000Y-33500000D01*
%TO.N,Net-(ESP1-IO0)*%
X36500000Y-40000000D02*
X39000000Y-40000000D01*
X39000000Y-40000000D02*
X44000000Y-45000000D01*
%TO.N,Net-(ESP1-RXD0)*%
X42935000Y-32500000D02*
X36500000Y-32500000D01*
X44000000Y-33565000D02*
X42935000Y-32500000D01*
%TO.N,Net-(ESP1-TXD0)*%
X43000000Y-34000000D02*
X42000000Y-35000000D01*
X42000000Y-35000000D02*
X36500000Y-35000000D01*
%TO.N,Net-(J2-Pin_2)*%
X24950000Y-39450000D02*
X25000000Y-39500000D01*
X24000000Y-39450000D02*
X24950000Y-39450000D01*
%TD*%
%TA.AperFunction,Conductor*%
%TO.N,GND*%
G36*
X50753273Y-34153185D02*
G01*
X50773915Y-34169819D01*
X50830181Y-34226085D01*
X50863666Y-34287408D01*
X50866500Y-34313766D01*
X50866500Y-37562398D01*
X50890843Y-37684777D01*
X50890845Y-37684785D01*
X50938598Y-37800072D01*
X50938599Y-37800074D01*
X50938600Y-37800075D01*
X50979102Y-37860691D01*
X50999980Y-37927366D01*
X51000000Y-37929580D01*
X51000000Y-39376000D01*
X50980315Y-39443039D01*
X50927511Y-39488794D01*
X50876000Y-39500000D01*
X45624000Y-39500000D01*
X45556961Y-39480315D01*
X45511206Y-39427511D01*
X45500000Y-39376000D01*
X45500000Y-34257500D01*
X45519685Y-34190461D01*
X45572489Y-34144706D01*
X45624000Y-34133500D01*
X50686234Y-34133500D01*
X50753273Y-34153185D01*
G37*
%TD.AperFunction*%
%TD*%
%TA.AperFunction,Conductor*%
%TO.N,GND*%
G36*
X24943039Y-34019685D02*
G01*
X24988794Y-34072489D01*
X25000000Y-34124000D01*
X25000000Y-34832877D01*
X24980315Y-34899916D01*
X24927511Y-34945671D01*
X24858353Y-34955615D01*
X24794797Y-34926590D01*
X24772899Y-34901769D01*
X24757334Y-34878475D01*
X24757329Y-34878469D01*
X24621530Y-34742670D01*
X24621526Y-34742667D01*
X24461842Y-34635969D01*
X24461833Y-34635964D01*
X24284397Y-34562468D01*
X24284389Y-34562466D01*
X24250000Y-34555625D01*
X24250000Y-35384943D01*
X24233134Y-35344225D01*
X24155775Y-35266866D01*
X24054701Y-35225000D01*
X23945299Y-35225000D01*
X23844225Y-35266866D01*
X23766866Y-35344225D01*
X23750000Y-35384943D01*
X23750000Y-34555625D01*
X23715610Y-34562466D01*
X23715602Y-34562468D01*
X23538166Y-34635964D01*
X23538157Y-34635969D01*
X23378473Y-34742667D01*
X23378469Y-34742670D01*
X23242670Y-34878469D01*
X23242667Y-34878473D01*
X23135969Y-35038157D01*
X23135964Y-35038166D01*
X23062468Y-35215602D01*
X23062466Y-35215610D01*
X23025789Y-35399999D01*
X23025790Y-35400000D01*
X23743763Y-35400000D01*
X23725000Y-35445299D01*
X23725000Y-35854701D01*
X23743763Y-35900000D01*
X23025789Y-35900000D01*
X23062466Y-36084389D01*
X23062469Y-36084399D01*
X23069097Y-36100401D01*
X23076564Y-36169871D01*
X23045288Y-36232349D01*
X23028848Y-36247117D01*
X22967811Y-36292810D01*
X22967809Y-36292812D01*
X22881649Y-36407906D01*
X22881645Y-36407913D01*
X22831403Y-36542620D01*
X22831401Y-36542627D01*
X22825000Y-36602155D01*
X22825000Y-36650000D01*
X22972217Y-36650000D01*
X23039256Y-36669685D01*
X23085011Y-36722489D01*
X23094955Y-36791647D01*
X23065930Y-36855203D01*
X23046530Y-36873264D01*
X22961739Y-36936739D01*
X22914148Y-37000311D01*
X22858216Y-37042182D01*
X22827227Y-37047772D01*
X22825000Y-37050000D01*
X22825000Y-37097833D01*
X22829181Y-37136725D01*
X22823384Y-37182914D01*
X22824795Y-37183248D01*
X22823010Y-37190799D01*
X22816500Y-37251345D01*
X22816500Y-37342138D01*
X22796815Y-37409177D01*
X22744011Y-37454932D01*
X22674853Y-37464876D01*
X22611297Y-37435851D01*
X22604819Y-37429819D01*
X22575000Y-37400000D01*
X21550000Y-37400000D01*
X21550000Y-38900000D01*
X22575000Y-38900000D01*
X22604819Y-38870181D01*
X22666142Y-38836696D01*
X22735834Y-38841680D01*
X22791767Y-38883552D01*
X22816184Y-38949016D01*
X22816500Y-38957862D01*
X22816500Y-39048640D01*
X22823284Y-39111746D01*
X22823284Y-39138254D01*
X22816500Y-39201359D01*
X22816500Y-39342138D01*
X22796815Y-39409177D01*
X22744011Y-39454932D01*
X22674853Y-39464876D01*
X22611297Y-39435851D01*
X22604819Y-39429819D01*
X22575000Y-39400000D01*
X21550000Y-39400000D01*
X21550000Y-40800000D01*
X22575000Y-40800000D01*
X22575000Y-40402172D01*
X22574999Y-40402155D01*
X22568598Y-40342627D01*
X22568595Y-40342616D01*
X22522240Y-40218334D01*
X22517255Y-40148643D01*
X22522240Y-40131666D01*
X22568595Y-40007383D01*
X22568598Y-40007372D01*
X22574999Y-39947844D01*
X22575000Y-39947827D01*
X22575000Y-39765742D01*
X22594685Y-39698703D01*
X22647489Y-39652948D01*
X22716647Y-39643004D01*
X22780203Y-39672029D01*
X22817977Y-39730807D01*
X22822289Y-39752487D01*
X22823010Y-39759201D01*
X22823011Y-39759204D01*
X22858002Y-39853015D01*
X22874111Y-39896204D01*
X22961739Y-40013261D01*
X23025490Y-40060985D01*
X23067361Y-40116918D01*
X23072345Y-40186609D01*
X23065742Y-40207700D01*
X23062468Y-40215604D01*
X23062466Y-40215611D01*
X23025789Y-40399999D01*
X23025790Y-40400000D01*
X23743763Y-40400000D01*
X23725000Y-40445299D01*
X23725000Y-40854701D01*
X23743763Y-40900000D01*
X23025789Y-40900000D01*
X23062466Y-41084389D01*
X23062468Y-41084397D01*
X23135964Y-41261833D01*
X23135969Y-41261842D01*
X23242667Y-41421526D01*
X23242670Y-41421530D01*
X23378469Y-41557329D01*
X23378473Y-41557332D01*
X23538157Y-41664030D01*
X23538167Y-41664035D01*
X23715599Y-41737530D01*
X23715606Y-41737533D01*
X23750000Y-41744373D01*
X23750000Y-40915056D01*
X23766866Y-40955775D01*
X23844225Y-41033134D01*
X23945299Y-41075000D01*
X24054701Y-41075000D01*
X24155775Y-41033134D01*
X24233134Y-40955775D01*
X24250000Y-40915056D01*
X24250000Y-41744372D01*
X24284393Y-41737533D01*
X24284400Y-41737530D01*
X24461832Y-41664035D01*
X24461842Y-41664030D01*
X24621526Y-41557332D01*
X24621530Y-41557329D01*
X24757330Y-41421529D01*
X24772897Y-41398232D01*
X24826509Y-41353426D01*
X24895834Y-41344719D01*
X24958862Y-41374873D01*
X24995582Y-41434316D01*
X25000000Y-41467122D01*
X25000000Y-42376000D01*
X24980315Y-42443039D01*
X24927511Y-42488794D01*
X24876000Y-42500000D01*
X22415794Y-42500000D01*
X22348755Y-42480315D01*
X22303000Y-42427511D01*
X22293056Y-42358353D01*
X22322081Y-42294797D01*
X22328113Y-42288319D01*
X22364026Y-42252405D01*
X22364029Y-42252401D01*
X22467444Y-42097631D01*
X22467451Y-42097618D01*
X22538682Y-41925649D01*
X22538683Y-41925644D01*
X22543784Y-41900000D01*
X21674728Y-41900000D01*
X21766614Y-41861940D01*
X21836940Y-41791614D01*
X21875000Y-41699728D01*
X21875000Y-41600272D01*
X21836940Y-41508386D01*
X21766614Y-41438060D01*
X21674728Y-41400000D01*
X22575000Y-41400000D01*
X22575000Y-41300000D01*
X21174000Y-41300000D01*
X21106961Y-41280315D01*
X21061206Y-41227511D01*
X21050000Y-41176000D01*
X21050000Y-36900000D01*
X21550000Y-36900000D01*
X22575000Y-36900000D01*
X22575000Y-36352172D01*
X22574999Y-36352155D01*
X22568598Y-36292627D01*
X22568595Y-36292616D01*
X22522240Y-36168334D01*
X22517255Y-36098643D01*
X22522240Y-36081666D01*
X22568595Y-35957383D01*
X22568598Y-35957372D01*
X22574999Y-35897844D01*
X22575000Y-35897827D01*
X22575000Y-35500000D01*
X21550000Y-35500000D01*
X21550000Y-36900000D01*
X21050000Y-36900000D01*
X21050000Y-35124000D01*
X21069685Y-35056961D01*
X21122489Y-35011206D01*
X21174000Y-35000000D01*
X22575000Y-35000000D01*
X22575000Y-34900000D01*
X21674728Y-34900000D01*
X21766614Y-34861940D01*
X21836940Y-34791614D01*
X21875000Y-34699728D01*
X21875000Y-34600272D01*
X21836940Y-34508386D01*
X21766614Y-34438060D01*
X21674728Y-34400000D01*
X22543784Y-34400000D01*
X22538683Y-34374355D01*
X22538682Y-34374350D01*
X22467451Y-34202381D01*
X22467442Y-34202365D01*
X22461111Y-34192889D01*
X22440234Y-34126211D01*
X22458720Y-34058831D01*
X22510699Y-34012142D01*
X22564214Y-34000000D01*
X24876000Y-34000000D01*
X24943039Y-34019685D01*
G37*
%TD.AperFunction*%
%TA.AperFunction,Conductor*%
G36*
X24250000Y-36667500D02*
G01*
X24230315Y-36734539D01*
X24177511Y-36780294D01*
X24126000Y-36791500D01*
X23874000Y-36791500D01*
X23806961Y-36771815D01*
X23761206Y-36719011D01*
X23750000Y-36667500D01*
X23750000Y-35915056D01*
X23766866Y-35955775D01*
X23844225Y-36033134D01*
X23945299Y-36075000D01*
X24054701Y-36075000D01*
X24155775Y-36033134D01*
X24233134Y-35955775D01*
X24250000Y-35915056D01*
X24250000Y-36667500D01*
G37*
%TD.AperFunction*%
%TD*%
M02*
