%TF.GenerationSoftware,KiCad,Pcbnew,8.0.2*%
%TF.CreationDate,2024-05-27T00:00:39+02:00*%
%TF.ProjectId,ESP-Logger-HW,4553502d-4c6f-4676-9765-722d48572e6b,rev?*%
%TF.SameCoordinates,Original*%
%TF.FileFunction,Copper,L1,Top*%
%TF.FilePolarity,Positive*%
%FSLAX46Y46*%
G04 Gerber Fmt 4.6, Leading zero omitted, Abs format (unit mm)*
G04 Created by KiCad (PCBNEW 8.0.2) date 2024-05-27 00:00:39*
%MOMM*%
%LPD*%
G01*
G04 APERTURE LIST*
G04 Aperture macros list*
%AMRoundRect*
0 Rectangle with rounded corners*
0 $1 Rounding radius*
0 $2 $3 $4 $5 $6 $7 $8 $9 X,Y pos of 4 corners*
0 Add a 4 corners polygon primitive as box body*
4,1,4,$2,$3,$4,$5,$6,$7,$8,$9,$2,$3,0*
0 Add four circle primitives for the rounded corners*
1,1,$1+$1,$2,$3*
1,1,$1+$1,$4,$5*
1,1,$1+$1,$6,$7*
1,1,$1+$1,$8,$9*
0 Add four rect primitives between the rounded corners*
20,1,$1+$1,$2,$3,$4,$5,0*
20,1,$1+$1,$4,$5,$6,$7,0*
20,1,$1+$1,$6,$7,$8,$9,0*
20,1,$1+$1,$8,$9,$2,$3,0*%
G04 Aperture macros list end*
%TA.AperFunction,SMDPad,CuDef*%
%ADD10RoundRect,0.237500X-0.287500X-0.237500X0.287500X-0.237500X0.287500X0.237500X-0.287500X0.237500X0*%
%TD*%
%TA.AperFunction,SMDPad,CuDef*%
%ADD11RoundRect,0.237500X0.237500X-0.300000X0.237500X0.300000X-0.237500X0.300000X-0.237500X-0.300000X0*%
%TD*%
%TA.AperFunction,SMDPad,CuDef*%
%ADD12O,2.500000X0.900000*%
%TD*%
%TA.AperFunction,SMDPad,CuDef*%
%ADD13O,0.900000X2.500000*%
%TD*%
%TA.AperFunction,SMDPad,CuDef*%
%ADD14R,6.000000X6.000000*%
%TD*%
%TA.AperFunction,SMDPad,CuDef*%
%ADD15RoundRect,0.237500X0.250000X0.237500X-0.250000X0.237500X-0.250000X-0.237500X0.250000X-0.237500X0*%
%TD*%
%TA.AperFunction,SMDPad,CuDef*%
%ADD16RoundRect,0.237500X-0.237500X0.250000X-0.237500X-0.250000X0.237500X-0.250000X0.237500X0.250000X0*%
%TD*%
%TA.AperFunction,ComponentPad*%
%ADD17R,1.500000X1.500000*%
%TD*%
%TA.AperFunction,ComponentPad*%
%ADD18C,1.500000*%
%TD*%
%TA.AperFunction,SMDPad,CuDef*%
%ADD19RoundRect,0.237500X0.237500X-0.250000X0.237500X0.250000X-0.237500X0.250000X-0.237500X-0.250000X0*%
%TD*%
%TA.AperFunction,SMDPad,CuDef*%
%ADD20RoundRect,0.237500X-0.237500X0.300000X-0.237500X-0.300000X0.237500X-0.300000X0.237500X0.300000X0*%
%TD*%
%TA.AperFunction,SMDPad,CuDef*%
%ADD21RoundRect,0.375000X-0.625000X-0.375000X0.625000X-0.375000X0.625000X0.375000X-0.625000X0.375000X0*%
%TD*%
%TA.AperFunction,SMDPad,CuDef*%
%ADD22RoundRect,0.500000X-0.500000X-1.400000X0.500000X-1.400000X0.500000X1.400000X-0.500000X1.400000X0*%
%TD*%
%TA.AperFunction,SMDPad,CuDef*%
%ADD23RoundRect,0.237500X0.300000X0.237500X-0.300000X0.237500X-0.300000X-0.237500X0.300000X-0.237500X0*%
%TD*%
%TA.AperFunction,ComponentPad*%
%ADD24RoundRect,0.250000X0.725000X-0.600000X0.725000X0.600000X-0.725000X0.600000X-0.725000X-0.600000X0*%
%TD*%
%TA.AperFunction,ComponentPad*%
%ADD25O,1.950000X1.700000*%
%TD*%
%TA.AperFunction,ComponentPad*%
%ADD26RoundRect,0.250000X-0.750000X0.600000X-0.750000X-0.600000X0.750000X-0.600000X0.750000X0.600000X0*%
%TD*%
%TA.AperFunction,ComponentPad*%
%ADD27O,2.000000X1.700000*%
%TD*%
%TA.AperFunction,ComponentPad*%
%ADD28O,1.550000X0.890000*%
%TD*%
%TA.AperFunction,ComponentPad*%
%ADD29O,0.950000X1.250000*%
%TD*%
%TA.AperFunction,ViaPad*%
%ADD30C,0.600000*%
%TD*%
%TA.AperFunction,Conductor*%
%ADD31C,0.250000*%
%TD*%
G04 APERTURE END LIST*
D10*
%TO.P,D3,1,K*%
%TO.N,Net-(D3-K)*%
X26750000Y-25000000D03*
%TO.P,D3,2,A*%
%TO.N,Net-(D3-A)*%
X28500000Y-25000000D03*
%TD*%
%TO.P,D2,1,K*%
%TO.N,Net-(D2-K)*%
X26750000Y-23000000D03*
%TO.P,D2,2,A*%
%TO.N,Net-(D2-A)*%
X28500000Y-23000000D03*
%TD*%
D11*
%TO.P,C2,1*%
%TO.N,VCC*%
X33500000Y-30000000D03*
%TO.P,C2,2*%
%TO.N,GND*%
X33500000Y-28275000D03*
%TD*%
D12*
%TO.P,ESP1,1,GND*%
%TO.N,GND*%
X39560000Y-29130000D03*
%TO.P,ESP1,2,3V3*%
%TO.N,VCC*%
X39560000Y-30400000D03*
%TO.P,ESP1,3,EN*%
%TO.N,Net-(ESP1-EN)*%
X39560000Y-31670000D03*
%TO.P,ESP1,4,SENSOR_VP*%
%TO.N,unconnected-(ESP1-SENSOR_VP-Pad4)*%
X39560000Y-32940000D03*
%TO.P,ESP1,5,SENSOR_VN*%
%TO.N,unconnected-(ESP1-SENSOR_VN-Pad5)*%
X39560000Y-34210000D03*
%TO.P,ESP1,6,IO34*%
%TO.N,unconnected-(ESP1-IO34-Pad6)*%
X39560000Y-35480000D03*
%TO.P,ESP1,7,IO35*%
%TO.N,unconnected-(ESP1-IO35-Pad7)*%
X39560000Y-36750000D03*
%TO.P,ESP1,8,IO32*%
%TO.N,unconnected-(ESP1-IO32-Pad8)*%
X39560000Y-38020000D03*
%TO.P,ESP1,9,IO33*%
%TO.N,unconnected-(ESP1-IO33-Pad9)*%
X39560000Y-39290000D03*
%TO.P,ESP1,10,IO25*%
%TO.N,unconnected-(ESP1-IO25-Pad10)*%
X39560000Y-40560000D03*
%TO.P,ESP1,11,IO26*%
%TO.N,unconnected-(ESP1-IO26-Pad11)*%
X39560000Y-41830000D03*
%TO.P,ESP1,12,IO27*%
%TO.N,unconnected-(ESP1-IO27-Pad12)*%
X39560000Y-43100000D03*
%TO.P,ESP1,13,IO14*%
%TO.N,unconnected-(ESP1-IO14-Pad13)*%
X39560000Y-44370000D03*
%TO.P,ESP1,14,IO12*%
%TO.N,unconnected-(ESP1-IO12-Pad14)*%
X39560000Y-45640000D03*
D13*
%TO.P,ESP1,15,GND*%
%TO.N,unconnected-(ESP1-GND-Pad15)*%
X42845000Y-47130000D03*
%TO.P,ESP1,16,IO13*%
%TO.N,unconnected-(ESP1-IO13-Pad16)*%
X44115000Y-47130000D03*
%TO.P,ESP1,17,SD2*%
%TO.N,unconnected-(ESP1-SD2-Pad17)*%
X45385000Y-47130000D03*
%TO.P,ESP1,18,SD3*%
%TO.N,unconnected-(ESP1-SD3-Pad18)*%
X46655000Y-47130000D03*
%TO.P,ESP1,19,CMD*%
%TO.N,unconnected-(ESP1-CMD-Pad19)*%
X47925000Y-47130000D03*
%TO.P,ESP1,20,CLK*%
%TO.N,unconnected-(ESP1-CLK-Pad20)*%
X49195000Y-47130000D03*
%TO.P,ESP1,21,SDO*%
%TO.N,unconnected-(ESP1-SDO-Pad21)*%
X50465000Y-47130000D03*
%TO.P,ESP1,22,SD1*%
%TO.N,unconnected-(ESP1-SD1-Pad22)*%
X51735000Y-47130000D03*
%TO.P,ESP1,23,IO15*%
%TO.N,unconnected-(ESP1-IO15-Pad23)*%
X53005000Y-47130000D03*
%TO.P,ESP1,24,IO2*%
%TO.N,unconnected-(ESP1-IO2-Pad24)*%
X54275000Y-47130000D03*
D12*
%TO.P,ESP1,25,IO0*%
%TO.N,Net-(ESP1-IO0)*%
X57560000Y-45640000D03*
%TO.P,ESP1,26,IO4*%
%TO.N,Net-(DHT1-IO)*%
X57560000Y-44370000D03*
%TO.P,ESP1,27,IO16*%
%TO.N,unconnected-(ESP1-IO16-Pad27)*%
X57560000Y-43100000D03*
%TO.P,ESP1,28,IO17*%
%TO.N,Net-(D3-A)*%
X57560000Y-41830000D03*
%TO.P,ESP1,29,IO5*%
%TO.N,unconnected-(ESP1-IO5-Pad29)*%
X57560000Y-40560000D03*
%TO.P,ESP1,30,IO18*%
%TO.N,Net-(D2-A)*%
X57560000Y-39290000D03*
%TO.P,ESP1,31,IO19*%
%TO.N,Net-(D1-A)*%
X57560000Y-38020000D03*
%TO.P,ESP1,32,NC*%
%TO.N,unconnected-(ESP1-NC-Pad32)*%
X57560000Y-36750000D03*
%TO.P,ESP1,33,IO21*%
%TO.N,unconnected-(ESP1-IO21-Pad33)*%
X57560000Y-35480000D03*
%TO.P,ESP1,34,RXD0*%
%TO.N,Net-(ESP1-RXD0)*%
X57560000Y-34210000D03*
%TO.P,ESP1,35,TXD0*%
%TO.N,Net-(ESP1-TXD0)*%
X57560000Y-32940000D03*
%TO.P,ESP1,36,IO22*%
%TO.N,unconnected-(ESP1-IO22-Pad36)*%
X57560000Y-31670000D03*
%TO.P,ESP1,37,IO23*%
%TO.N,unconnected-(ESP1-IO23-Pad37)*%
X57560000Y-30400000D03*
%TO.P,ESP1,38,GND*%
%TO.N,GND*%
X57560000Y-29130000D03*
D14*
%TO.P,ESP1,39,GND-PAD*%
X48260000Y-36830000D03*
%TD*%
D15*
%TO.P,R2,1*%
%TO.N,Net-(D1-K)*%
X24325000Y-21000000D03*
%TO.P,R2,2*%
%TO.N,GND*%
X22500000Y-21000000D03*
%TD*%
D16*
%TO.P,R1,1*%
%TO.N,Net-(DHT1-IO)*%
X35500000Y-45675000D03*
%TO.P,R1,2*%
%TO.N,VCC*%
X35500000Y-47500000D03*
%TD*%
D15*
%TO.P,R3,1*%
%TO.N,Net-(D2-K)*%
X24250000Y-23000000D03*
%TO.P,R3,2*%
%TO.N,GND*%
X22425000Y-23000000D03*
%TD*%
D17*
%TO.P,DHT1,1,VCC*%
%TO.N,VCC*%
X24130000Y-45720000D03*
D18*
%TO.P,DHT1,2,IO*%
%TO.N,Net-(DHT1-IO)*%
X26670000Y-45720000D03*
%TO.P,DHT1,3,NC*%
%TO.N,unconnected-(DHT1-NC-Pad3)*%
X29210000Y-45720000D03*
%TO.P,DHT1,4,GND*%
%TO.N,GND*%
X31750000Y-45720000D03*
%TD*%
D15*
%TO.P,R4,1*%
%TO.N,Net-(D3-K)*%
X24250000Y-25000000D03*
%TO.P,R4,2*%
%TO.N,GND*%
X22425000Y-25000000D03*
%TD*%
D19*
%TO.P,R5,1*%
%TO.N,VCC*%
X33500000Y-24500000D03*
%TO.P,R5,2*%
%TO.N,Net-(ESP1-EN)*%
X33500000Y-22675000D03*
%TD*%
D10*
%TO.P,D1,1,K*%
%TO.N,Net-(D1-K)*%
X26750000Y-21000000D03*
%TO.P,D1,2,A*%
%TO.N,Net-(D1-A)*%
X28500000Y-21000000D03*
%TD*%
D20*
%TO.P,C3,1*%
%TO.N,Net-(ESP1-EN)*%
X36500000Y-22775000D03*
%TO.P,C3,2*%
%TO.N,GND*%
X36500000Y-24500000D03*
%TD*%
D11*
%TO.P,C1,1*%
%TO.N,VCC*%
X36500000Y-30000000D03*
%TO.P,C1,2*%
%TO.N,GND*%
X36500000Y-28275000D03*
%TD*%
D21*
%TO.P,U1,1,GND*%
%TO.N,GND*%
X21350000Y-27200000D03*
%TO.P,U1,2,VO*%
%TO.N,VCC*%
X21350000Y-29500000D03*
D22*
X27650000Y-29500000D03*
D21*
%TO.P,U1,3,VI*%
%TO.N,Net-(J2-Pin_2)*%
X21350000Y-31800000D03*
%TD*%
D23*
%TO.P,C4,1*%
%TO.N,Net-(J2-Pin_2)*%
X28362500Y-41500000D03*
%TO.P,C4,2*%
%TO.N,GND*%
X26637500Y-41500000D03*
%TD*%
D24*
%TO.P,J1,1,Pin_1*%
%TO.N,Net-(ESP1-IO0)*%
X36500000Y-40000000D03*
D25*
%TO.P,J1,2,Pin_2*%
%TO.N,Net-(ESP1-EN)*%
X36500000Y-37500000D03*
%TO.P,J1,3,Pin_3*%
%TO.N,Net-(ESP1-TXD0)*%
X36500000Y-35000000D03*
%TO.P,J1,4,Pin_4*%
%TO.N,Net-(ESP1-RXD0)*%
X36500000Y-32500000D03*
%TD*%
D26*
%TO.P,J2,1,Pin_1*%
%TO.N,GND*%
X28475000Y-35000000D03*
D27*
%TO.P,J2,2,Pin_2*%
%TO.N,Net-(J2-Pin_2)*%
X28475000Y-37500000D03*
%TD*%
D28*
%TO.P,J3,6,Shield*%
%TO.N,GND*%
X21300000Y-41650000D03*
D29*
X24000000Y-40650000D03*
X24000000Y-35650000D03*
D28*
X21300000Y-34650000D03*
%TD*%
D30*
%TO.N,VCC*%
X30500000Y-30000000D03*
%TO.N,Net-(ESP1-EN)*%
X38000000Y-31000000D03*
X38000000Y-27500000D03*
%TO.N,GND*%
X47500000Y-37500000D03*
X50500000Y-37500000D03*
X50500000Y-39000000D03*
X26500000Y-40500000D03*
X49000000Y-36000000D03*
X33000000Y-29000000D03*
X49000000Y-39000000D03*
X47500000Y-39000000D03*
X50500000Y-36000000D03*
X49000000Y-37500000D03*
X27000000Y-35500000D03*
X47500000Y-34500000D03*
X46000000Y-34500000D03*
X46000000Y-36000000D03*
X23500000Y-27500000D03*
X47500000Y-36000000D03*
X50500000Y-34500000D03*
X46000000Y-37500000D03*
X46000000Y-39000000D03*
X49000000Y-34500000D03*
%TO.N,Net-(D1-A)*%
X55500000Y-38000000D03*
X31000000Y-21000000D03*
%TO.N,Net-(D2-A)*%
X55500000Y-39000000D03*
X31000000Y-23000000D03*
%TO.N,Net-(D3-A)*%
X31000000Y-25000000D03*
X55500000Y-41500000D03*
%TO.N,Net-(ESP1-IO0)*%
X44000000Y-45000000D03*
%TO.N,Net-(ESP1-RXD0)*%
X44000000Y-33565000D03*
%TO.N,Net-(ESP1-TXD0)*%
X43000000Y-34000000D03*
%TO.N,Net-(J2-Pin_2)*%
X25000000Y-39500000D03*
%TD*%
D31*
%TO.N,VCC*%
X35500000Y-47500000D02*
X25910000Y-47500000D01*
X32000000Y-25000000D02*
X32000000Y-30000000D01*
X31000000Y-30000000D02*
X30500000Y-30000000D01*
X33500000Y-30000000D02*
X36500000Y-30000000D01*
X25910000Y-47500000D02*
X24130000Y-45720000D01*
X32000000Y-30000000D02*
X31000000Y-30000000D01*
X36500000Y-30000000D02*
X39160000Y-30000000D01*
X39160000Y-30000000D02*
X39560000Y-30400000D01*
X32500000Y-24500000D02*
X32000000Y-25000000D01*
X28150000Y-30000000D02*
X27650000Y-29500000D01*
X30500000Y-30000000D02*
X28150000Y-30000000D01*
X33500000Y-30000000D02*
X32000000Y-30000000D01*
X33500000Y-24500000D02*
X32500000Y-24500000D01*
X21350000Y-29500000D02*
X27650000Y-29500000D01*
%TO.N,Net-(ESP1-EN)*%
X38000000Y-23500000D02*
X38000000Y-27500000D01*
X37275000Y-22775000D02*
X38000000Y-23500000D01*
X38000000Y-31000000D02*
X35000000Y-31000000D01*
X35500000Y-37500000D02*
X36500000Y-37500000D01*
X38670000Y-31670000D02*
X39560000Y-31670000D01*
X36400000Y-22675000D02*
X36500000Y-22775000D01*
X36500000Y-22775000D02*
X37275000Y-22775000D01*
X33500000Y-22675000D02*
X36400000Y-22675000D01*
X34000000Y-32000000D02*
X34000000Y-36000000D01*
X34000000Y-36000000D02*
X35500000Y-37500000D01*
X35000000Y-31000000D02*
X34000000Y-32000000D01*
X38000000Y-31000000D02*
X38670000Y-31670000D01*
%TO.N,Net-(D1-K)*%
X24325000Y-21000000D02*
X26750000Y-21000000D01*
%TO.N,GND*%
X31750000Y-45720000D02*
X30857500Y-45720000D01*
X26500000Y-41362500D02*
X26637500Y-41500000D01*
X21500000Y-21000000D02*
X21350000Y-21150000D01*
X36362500Y-44862500D02*
X32607500Y-44862500D01*
X26500000Y-40500000D02*
X26500000Y-41362500D01*
X36500000Y-28275000D02*
X37275000Y-28275000D01*
X27975000Y-35500000D02*
X28475000Y-35000000D01*
X50500000Y-34500000D02*
X50590000Y-34500000D01*
X27000000Y-35500000D02*
X27975000Y-35500000D01*
X48260000Y-36830000D02*
X49000000Y-36090000D01*
X48260000Y-38836016D02*
X40096016Y-47000000D01*
X38130000Y-29130000D02*
X39560000Y-29130000D01*
X33500000Y-28275000D02*
X36500000Y-28275000D01*
X33500000Y-28275000D02*
X33500000Y-28500000D01*
X49090000Y-36000000D02*
X50500000Y-34590000D01*
X30857500Y-45720000D02*
X26637500Y-41500000D01*
X22425000Y-25000000D02*
X21350000Y-25000000D01*
X38500000Y-47000000D02*
X36362500Y-44862500D01*
X22425000Y-23000000D02*
X21350000Y-23000000D01*
X23500000Y-27500000D02*
X21650000Y-27500000D01*
X50500000Y-34590000D02*
X50500000Y-34500000D01*
X49000000Y-36090000D02*
X49000000Y-36000000D01*
X21350000Y-23000000D02*
X21350000Y-25000000D01*
X37275000Y-28275000D02*
X38130000Y-29130000D01*
X22500000Y-21000000D02*
X21500000Y-21000000D01*
X33500000Y-28500000D02*
X33000000Y-29000000D01*
X32607500Y-44862500D02*
X31750000Y-45720000D01*
X49000000Y-36000000D02*
X49090000Y-36000000D01*
X21350000Y-25000000D02*
X21350000Y-27200000D01*
X48260000Y-36830000D02*
X48260000Y-38836016D01*
X57560000Y-29130000D02*
X39560000Y-29130000D01*
X21350000Y-21150000D02*
X21350000Y-23000000D01*
X36500000Y-24500000D02*
X36500000Y-28275000D01*
X21650000Y-27500000D02*
X21350000Y-27200000D01*
X40096016Y-47000000D02*
X38500000Y-47000000D01*
%TO.N,Net-(D1-A)*%
X57560000Y-38020000D02*
X55520000Y-38020000D01*
X55520000Y-38020000D02*
X55500000Y-38000000D01*
X28500000Y-21000000D02*
X31000000Y-21000000D01*
%TO.N,Net-(D2-K)*%
X24250000Y-23000000D02*
X26750000Y-23000000D01*
%TO.N,Net-(D2-A)*%
X55790000Y-39290000D02*
X55500000Y-39000000D01*
X57560000Y-39290000D02*
X55790000Y-39290000D01*
X28500000Y-23000000D02*
X31000000Y-23000000D01*
%TO.N,Net-(D3-A)*%
X57560000Y-41830000D02*
X55830000Y-41830000D01*
X55830000Y-41830000D02*
X55500000Y-41500000D01*
X28500000Y-25000000D02*
X31000000Y-25000000D01*
%TO.N,Net-(D3-K)*%
X24250000Y-25000000D02*
X26750000Y-25000000D01*
%TO.N,Net-(DHT1-IO)*%
X37275000Y-47450000D02*
X40628984Y-47450000D01*
X34125000Y-47050000D02*
X35500000Y-45675000D01*
X43708984Y-44370000D02*
X57560000Y-44370000D01*
X26670000Y-45720000D02*
X28000000Y-47050000D01*
X37275000Y-47450000D02*
X35500000Y-45675000D01*
X40628984Y-47450000D02*
X43708984Y-44370000D01*
X28000000Y-47050000D02*
X34125000Y-47050000D01*
%TO.N,Net-(ESP1-IO0)*%
X55640000Y-45640000D02*
X57560000Y-45640000D01*
X55145000Y-45145000D02*
X55640000Y-45640000D01*
X44000000Y-45000000D02*
X44145000Y-45145000D01*
X44145000Y-45145000D02*
X55145000Y-45145000D01*
%TO.N,Net-(ESP1-RXD0)*%
X44065000Y-33500000D02*
X44000000Y-33565000D01*
X57560000Y-34210000D02*
X52290000Y-34210000D01*
X52290000Y-34210000D02*
X51580000Y-33500000D01*
X51580000Y-33500000D02*
X44065000Y-33500000D01*
%TO.N,Net-(ESP1-TXD0)*%
X43375000Y-33625000D02*
X43000000Y-34000000D01*
X43556116Y-32940000D02*
X43375000Y-33121116D01*
X43375000Y-33121116D02*
X43375000Y-33625000D01*
X57560000Y-32940000D02*
X43556116Y-32940000D01*
%TO.N,Net-(J2-Pin_2)*%
X25500000Y-39000000D02*
X25500000Y-38375000D01*
X28362500Y-41237500D02*
X26625000Y-39500000D01*
X26625000Y-39500000D02*
X25500000Y-38375000D01*
X28475000Y-37500000D02*
X28475000Y-37650000D01*
X28475000Y-37650000D02*
X26625000Y-39500000D01*
X22800000Y-31800000D02*
X21350000Y-31800000D01*
X25000000Y-39500000D02*
X25500000Y-39000000D01*
X25500000Y-38375000D02*
X25500000Y-34500000D01*
X25500000Y-34500000D02*
X22800000Y-31800000D01*
X28362500Y-41500000D02*
X28362500Y-41237500D01*
%TD*%
%TA.AperFunction,Conductor*%
%TO.N,GND*%
G36*
X26084540Y-30153185D02*
G01*
X26130295Y-30205989D01*
X26141501Y-30257500D01*
X26141501Y-30949542D01*
X26156091Y-31097699D01*
X26213760Y-31287808D01*
X26307401Y-31462998D01*
X26307405Y-31463005D01*
X26433431Y-31616568D01*
X26586994Y-31742594D01*
X26587001Y-31742598D01*
X26762191Y-31836239D01*
X26762193Y-31836239D01*
X26762196Y-31836241D01*
X26952299Y-31893908D01*
X26952298Y-31893908D01*
X26962766Y-31894938D01*
X27100453Y-31908500D01*
X28199546Y-31908499D01*
X28347701Y-31893908D01*
X28537804Y-31836241D01*
X28713004Y-31742595D01*
X28866568Y-31616568D01*
X28992595Y-31463004D01*
X29086241Y-31287804D01*
X29143908Y-31097701D01*
X29158500Y-30949547D01*
X29158500Y-30757500D01*
X29178185Y-30690461D01*
X29230989Y-30644706D01*
X29282500Y-30633500D01*
X29952840Y-30633500D01*
X30018812Y-30652507D01*
X30146977Y-30733039D01*
X30146980Y-30733041D01*
X30146984Y-30733042D01*
X30146985Y-30733043D01*
X30240731Y-30765846D01*
X30318953Y-30793217D01*
X30318958Y-30793218D01*
X30499996Y-30813616D01*
X30500000Y-30813616D01*
X30500004Y-30813616D01*
X30681041Y-30793218D01*
X30681044Y-30793217D01*
X30681047Y-30793217D01*
X30853015Y-30733043D01*
X30853017Y-30733041D01*
X30853019Y-30733041D01*
X30853022Y-30733039D01*
X30981188Y-30652507D01*
X31047160Y-30633500D01*
X31937606Y-30633500D01*
X32522503Y-30633500D01*
X32589542Y-30653185D01*
X32628041Y-30692403D01*
X32673339Y-30765842D01*
X32673342Y-30765846D01*
X32796653Y-30889157D01*
X32796657Y-30889160D01*
X32945071Y-30980704D01*
X32945074Y-30980705D01*
X32945080Y-30980709D01*
X33110619Y-31035562D01*
X33212787Y-31046000D01*
X33758734Y-31045999D01*
X33825773Y-31065683D01*
X33871528Y-31118487D01*
X33881472Y-31187646D01*
X33852447Y-31251202D01*
X33846415Y-31257680D01*
X33716252Y-31387844D01*
X33596167Y-31507929D01*
X33552047Y-31552049D01*
X33507927Y-31596168D01*
X33438603Y-31699918D01*
X33438598Y-31699927D01*
X33390845Y-31815214D01*
X33390843Y-31815222D01*
X33366500Y-31937601D01*
X33366500Y-36062398D01*
X33390843Y-36184777D01*
X33390845Y-36184785D01*
X33438598Y-36300072D01*
X33438603Y-36300081D01*
X33507928Y-36403832D01*
X33507931Y-36403836D01*
X35092217Y-37988121D01*
X35115021Y-38019507D01*
X35180958Y-38148915D01*
X35213106Y-38212009D01*
X35338794Y-38385004D01*
X35338796Y-38385006D01*
X35470893Y-38517103D01*
X35504378Y-38578426D01*
X35499394Y-38648118D01*
X35457522Y-38704051D01*
X35448309Y-38710322D01*
X35301351Y-38800967D01*
X35301347Y-38800970D01*
X35175971Y-38926346D01*
X35082886Y-39077259D01*
X35082884Y-39077264D01*
X35027113Y-39245572D01*
X35016500Y-39349447D01*
X35016500Y-40650537D01*
X35016501Y-40650553D01*
X35027113Y-40754427D01*
X35080642Y-40915970D01*
X35082885Y-40922738D01*
X35175970Y-41073652D01*
X35301348Y-41199030D01*
X35452262Y-41292115D01*
X35620574Y-41347887D01*
X35724455Y-41358500D01*
X37275544Y-41358499D01*
X37379426Y-41347887D01*
X37547738Y-41292115D01*
X37698652Y-41199030D01*
X37792965Y-41104716D01*
X37854284Y-41071234D01*
X37923976Y-41076218D01*
X37979910Y-41118089D01*
X37983732Y-41123489D01*
X37985470Y-41126089D01*
X38006361Y-41192762D01*
X37987889Y-41260146D01*
X37985483Y-41263891D01*
X37910591Y-41375973D01*
X37910586Y-41375982D01*
X37838334Y-41550415D01*
X37838332Y-41550423D01*
X37801500Y-41735591D01*
X37801500Y-41924408D01*
X37838332Y-42109576D01*
X37838334Y-42109584D01*
X37910586Y-42284017D01*
X37910591Y-42284026D01*
X37985483Y-42396109D01*
X38006361Y-42462787D01*
X37987876Y-42530167D01*
X37985483Y-42533891D01*
X37910591Y-42645973D01*
X37910586Y-42645982D01*
X37838334Y-42820415D01*
X37838332Y-42820423D01*
X37801500Y-43005591D01*
X37801500Y-43194408D01*
X37838332Y-43379576D01*
X37838334Y-43379584D01*
X37910586Y-43554017D01*
X37910591Y-43554026D01*
X37985483Y-43666109D01*
X38006361Y-43732787D01*
X37987876Y-43800167D01*
X37985483Y-43803891D01*
X37910591Y-43915973D01*
X37910586Y-43915982D01*
X37838334Y-44090415D01*
X37838332Y-44090423D01*
X37801500Y-44275591D01*
X37801500Y-44464408D01*
X37838332Y-44649576D01*
X37838334Y-44649584D01*
X37910586Y-44824017D01*
X37910591Y-44824026D01*
X37985483Y-44936109D01*
X38006361Y-45002787D01*
X37987876Y-45070167D01*
X37985483Y-45073891D01*
X37910591Y-45185973D01*
X37910586Y-45185982D01*
X37838334Y-45360415D01*
X37838332Y-45360423D01*
X37801500Y-45545591D01*
X37801500Y-45734408D01*
X37838332Y-45919576D01*
X37838334Y-45919584D01*
X37910586Y-46094017D01*
X37910591Y-46094026D01*
X38015483Y-46251007D01*
X38015486Y-46251011D01*
X38148988Y-46384513D01*
X38148992Y-46384516D01*
X38305973Y-46489408D01*
X38305979Y-46489411D01*
X38305980Y-46489412D01*
X38480416Y-46561666D01*
X38499843Y-46565530D01*
X38526751Y-46570883D01*
X38588662Y-46603268D01*
X38623236Y-46663983D01*
X38619497Y-46733753D01*
X38578631Y-46790425D01*
X38513613Y-46816006D01*
X38502560Y-46816500D01*
X37588766Y-46816500D01*
X37521727Y-46796815D01*
X37501085Y-46780181D01*
X36519818Y-45798914D01*
X36486333Y-45737591D01*
X36483499Y-45711233D01*
X36483499Y-45375294D01*
X36483498Y-45375278D01*
X36476991Y-45311584D01*
X36473062Y-45273119D01*
X36418209Y-45107580D01*
X36418205Y-45107574D01*
X36418204Y-45107571D01*
X36326660Y-44959157D01*
X36326657Y-44959153D01*
X36203346Y-44835842D01*
X36203342Y-44835839D01*
X36054928Y-44744295D01*
X36054922Y-44744292D01*
X36054920Y-44744291D01*
X35993066Y-44723795D01*
X35889382Y-44689438D01*
X35787214Y-44679000D01*
X35212794Y-44679000D01*
X35212778Y-44679001D01*
X35110617Y-44689438D01*
X34945082Y-44744290D01*
X34945071Y-44744295D01*
X34796657Y-44835839D01*
X34796653Y-44835842D01*
X34673342Y-44959153D01*
X34673339Y-44959157D01*
X34581795Y-45107571D01*
X34581790Y-45107582D01*
X34526938Y-45273117D01*
X34516500Y-45375279D01*
X34516500Y-45711232D01*
X34496815Y-45778271D01*
X34480181Y-45798913D01*
X34318732Y-45960363D01*
X34028085Y-46251011D01*
X33898915Y-46380181D01*
X33837592Y-46413666D01*
X33811234Y-46416500D01*
X32999080Y-46416500D01*
X32932041Y-46396815D01*
X32886286Y-46344011D01*
X32876342Y-46274853D01*
X32886698Y-46240095D01*
X32929101Y-46149159D01*
X32929105Y-46149150D01*
X32985710Y-45937894D01*
X32985712Y-45937884D01*
X33004775Y-45720000D01*
X33004775Y-45719999D01*
X32985712Y-45502115D01*
X32985710Y-45502105D01*
X32929105Y-45290849D01*
X32929101Y-45290840D01*
X32836667Y-45092614D01*
X32836666Y-45092612D01*
X32793124Y-45030428D01*
X32793124Y-45030427D01*
X32150000Y-45673551D01*
X32150000Y-45667339D01*
X32122741Y-45565606D01*
X32070080Y-45474394D01*
X31995606Y-45399920D01*
X31904394Y-45347259D01*
X31802661Y-45320000D01*
X31796447Y-45320000D01*
X32439571Y-44676874D01*
X32377387Y-44633333D01*
X32179159Y-44540898D01*
X32179150Y-44540894D01*
X31967894Y-44484289D01*
X31967884Y-44484287D01*
X31750001Y-44465225D01*
X31749999Y-44465225D01*
X31532115Y-44484287D01*
X31532105Y-44484289D01*
X31320849Y-44540894D01*
X31320840Y-44540898D01*
X31122613Y-44633333D01*
X31060428Y-44676874D01*
X31703554Y-45320000D01*
X31697339Y-45320000D01*
X31595606Y-45347259D01*
X31504394Y-45399920D01*
X31429920Y-45474394D01*
X31377259Y-45565606D01*
X31350000Y-45667339D01*
X31350000Y-45673554D01*
X30706874Y-45030428D01*
X30663334Y-45092611D01*
X30597070Y-45234713D01*
X30550897Y-45287152D01*
X30483703Y-45306303D01*
X30416822Y-45286087D01*
X30372306Y-45234711D01*
X30349583Y-45185982D01*
X30304056Y-45088347D01*
X30304054Y-45088344D01*
X30304053Y-45088342D01*
X30200066Y-44939834D01*
X30177749Y-44907962D01*
X30022038Y-44752251D01*
X29841654Y-44625944D01*
X29841650Y-44625942D01*
X29642081Y-44532882D01*
X29642079Y-44532881D01*
X29642076Y-44532880D01*
X29460735Y-44484289D01*
X29429372Y-44475885D01*
X29429365Y-44475884D01*
X29210002Y-44456693D01*
X29209998Y-44456693D01*
X28990634Y-44475884D01*
X28990627Y-44475885D01*
X28777920Y-44532881D01*
X28578346Y-44625944D01*
X28578342Y-44625946D01*
X28397967Y-44752247D01*
X28397960Y-44752252D01*
X28242252Y-44907960D01*
X28242247Y-44907967D01*
X28115946Y-45088342D01*
X28115944Y-45088346D01*
X28052382Y-45224657D01*
X28006210Y-45277096D01*
X27939016Y-45296248D01*
X27872135Y-45276032D01*
X27827618Y-45224657D01*
X27809580Y-45185974D01*
X27764056Y-45088347D01*
X27764054Y-45088344D01*
X27764053Y-45088342D01*
X27660066Y-44939834D01*
X27637749Y-44907962D01*
X27482038Y-44752251D01*
X27301654Y-44625944D01*
X27301650Y-44625942D01*
X27102081Y-44532882D01*
X27102079Y-44532881D01*
X27102076Y-44532880D01*
X26920735Y-44484289D01*
X26889372Y-44475885D01*
X26889365Y-44475884D01*
X26670002Y-44456693D01*
X26669998Y-44456693D01*
X26450634Y-44475884D01*
X26450627Y-44475885D01*
X26237920Y-44532881D01*
X26038346Y-44625944D01*
X26038342Y-44625946D01*
X25857967Y-44752247D01*
X25857960Y-44752252D01*
X25702252Y-44907960D01*
X25702251Y-44907962D01*
X25614075Y-45033890D01*
X25559498Y-45077515D01*
X25489999Y-45084707D01*
X25427645Y-45053185D01*
X25392231Y-44992955D01*
X25388500Y-44962766D01*
X25388500Y-44921362D01*
X25388499Y-44921345D01*
X25385157Y-44890270D01*
X25381989Y-44860799D01*
X25372680Y-44835842D01*
X25359522Y-44800564D01*
X25330889Y-44723796D01*
X25243261Y-44606739D01*
X25126204Y-44519111D01*
X24989203Y-44468011D01*
X24928654Y-44461500D01*
X24928638Y-44461500D01*
X23331362Y-44461500D01*
X23331345Y-44461500D01*
X23270797Y-44468011D01*
X23270795Y-44468011D01*
X23133795Y-44519111D01*
X23016739Y-44606739D01*
X22929111Y-44723795D01*
X22878011Y-44860795D01*
X22878011Y-44860797D01*
X22871500Y-44921345D01*
X22871500Y-46518654D01*
X22878011Y-46579202D01*
X22878011Y-46579204D01*
X22909633Y-46663983D01*
X22929111Y-46716204D01*
X23016739Y-46833261D01*
X23133796Y-46920889D01*
X23270799Y-46971989D01*
X23298050Y-46974918D01*
X23331345Y-46978499D01*
X23331362Y-46978500D01*
X24441234Y-46978500D01*
X24508273Y-46998185D01*
X24528915Y-47014819D01*
X25506163Y-47992068D01*
X25506167Y-47992071D01*
X25609918Y-48061396D01*
X25609924Y-48061399D01*
X25609925Y-48061400D01*
X25725215Y-48109155D01*
X25847601Y-48133499D01*
X25847605Y-48133500D01*
X25847606Y-48133500D01*
X25972394Y-48133500D01*
X34553344Y-48133500D01*
X34620383Y-48153185D01*
X34658883Y-48192404D01*
X34673341Y-48215845D01*
X34796653Y-48339157D01*
X34796657Y-48339160D01*
X34945071Y-48430704D01*
X34945074Y-48430705D01*
X34945080Y-48430709D01*
X35110619Y-48485562D01*
X35212787Y-48496000D01*
X35787212Y-48495999D01*
X35889381Y-48485562D01*
X36054920Y-48430709D01*
X36203346Y-48339158D01*
X36326658Y-48215846D01*
X36418209Y-48067420D01*
X36473062Y-47901881D01*
X36479717Y-47836738D01*
X36506113Y-47772047D01*
X36563294Y-47731896D01*
X36633105Y-47729032D01*
X36690756Y-47761660D01*
X36871163Y-47942068D01*
X36871167Y-47942071D01*
X36974918Y-48011396D01*
X36974924Y-48011399D01*
X36974925Y-48011400D01*
X37090215Y-48059155D01*
X37212601Y-48083499D01*
X37212605Y-48083500D01*
X37212606Y-48083500D01*
X40691379Y-48083500D01*
X40691380Y-48083499D01*
X40813769Y-48059155D01*
X40929059Y-48011400D01*
X41032817Y-47942071D01*
X41674819Y-47300069D01*
X41736142Y-47266584D01*
X41805833Y-47271568D01*
X41861767Y-47313439D01*
X41886184Y-47378904D01*
X41886500Y-47387750D01*
X41886500Y-48024408D01*
X41923332Y-48209576D01*
X41923334Y-48209584D01*
X41995586Y-48384017D01*
X41995591Y-48384026D01*
X42100483Y-48541007D01*
X42100486Y-48541011D01*
X42233988Y-48674513D01*
X42233992Y-48674516D01*
X42390973Y-48779408D01*
X42390979Y-48779411D01*
X42390980Y-48779412D01*
X42565416Y-48851666D01*
X42750591Y-48888499D01*
X42750595Y-48888500D01*
X42750596Y-48888500D01*
X42939405Y-48888500D01*
X42939406Y-48888499D01*
X43124584Y-48851666D01*
X43299020Y-48779412D01*
X43411110Y-48704515D01*
X43477786Y-48683638D01*
X43545166Y-48702122D01*
X43548869Y-48704502D01*
X43660980Y-48779412D01*
X43835416Y-48851666D01*
X44020591Y-48888499D01*
X44020595Y-48888500D01*
X44020596Y-48888500D01*
X44209405Y-48888500D01*
X44209406Y-48888499D01*
X44394584Y-48851666D01*
X44569020Y-48779412D01*
X44681110Y-48704515D01*
X44747786Y-48683638D01*
X44815166Y-48702122D01*
X44818869Y-48704502D01*
X44930980Y-48779412D01*
X45105416Y-48851666D01*
X45290591Y-48888499D01*
X45290595Y-48888500D01*
X45290596Y-48888500D01*
X45479405Y-48888500D01*
X45479406Y-48888499D01*
X45664584Y-48851666D01*
X45839020Y-48779412D01*
X45951110Y-48704515D01*
X46017786Y-48683638D01*
X46085166Y-48702122D01*
X46088869Y-48704502D01*
X46200980Y-48779412D01*
X46375416Y-48851666D01*
X46560591Y-48888499D01*
X46560595Y-48888500D01*
X46560596Y-48888500D01*
X46749405Y-48888500D01*
X46749406Y-48888499D01*
X46934584Y-48851666D01*
X47109020Y-48779412D01*
X47221110Y-48704515D01*
X47287786Y-48683638D01*
X47355166Y-48702122D01*
X47358869Y-48704502D01*
X47470980Y-48779412D01*
X47645416Y-48851666D01*
X47830591Y-48888499D01*
X47830595Y-48888500D01*
X47830596Y-48888500D01*
X48019405Y-48888500D01*
X48019406Y-48888499D01*
X48204584Y-48851666D01*
X48379020Y-48779412D01*
X48491110Y-48704515D01*
X48557786Y-48683638D01*
X48625166Y-48702122D01*
X48628869Y-48704502D01*
X48740980Y-48779412D01*
X48915416Y-48851666D01*
X49100591Y-48888499D01*
X49100595Y-48888500D01*
X49100596Y-48888500D01*
X49289405Y-48888500D01*
X49289406Y-48888499D01*
X49474584Y-48851666D01*
X49649020Y-48779412D01*
X49761110Y-48704515D01*
X49827786Y-48683638D01*
X49895166Y-48702122D01*
X49898869Y-48704502D01*
X50010980Y-48779412D01*
X50185416Y-48851666D01*
X50370591Y-48888499D01*
X50370595Y-48888500D01*
X50370596Y-48888500D01*
X50559405Y-48888500D01*
X50559406Y-48888499D01*
X50744584Y-48851666D01*
X50919020Y-48779412D01*
X51031110Y-48704515D01*
X51097786Y-48683638D01*
X51165166Y-48702122D01*
X51168869Y-48704502D01*
X51280980Y-48779412D01*
X51455416Y-48851666D01*
X51640591Y-48888499D01*
X51640595Y-48888500D01*
X51640596Y-48888500D01*
X51829405Y-48888500D01*
X51829406Y-48888499D01*
X52014584Y-48851666D01*
X52189020Y-48779412D01*
X52301110Y-48704515D01*
X52367786Y-48683638D01*
X52435166Y-48702122D01*
X52438869Y-48704502D01*
X52550980Y-48779412D01*
X52725416Y-48851666D01*
X52910591Y-48888499D01*
X52910595Y-48888500D01*
X52910596Y-48888500D01*
X53099405Y-48888500D01*
X53099406Y-48888499D01*
X53284584Y-48851666D01*
X53459020Y-48779412D01*
X53571110Y-48704515D01*
X53637786Y-48683638D01*
X53705166Y-48702122D01*
X53708869Y-48704502D01*
X53820980Y-48779412D01*
X53995416Y-48851666D01*
X54180591Y-48888499D01*
X54180595Y-48888500D01*
X54180596Y-48888500D01*
X54369405Y-48888500D01*
X54369406Y-48888499D01*
X54554584Y-48851666D01*
X54729020Y-48779412D01*
X54886008Y-48674516D01*
X55019516Y-48541008D01*
X55124412Y-48384020D01*
X55196666Y-48209584D01*
X55233500Y-48024404D01*
X55233500Y-46342896D01*
X55253185Y-46275857D01*
X55305989Y-46230102D01*
X55375147Y-46220158D01*
X55404946Y-46228333D01*
X55421447Y-46235168D01*
X55455215Y-46249155D01*
X55455217Y-46249155D01*
X55455222Y-46249157D01*
X55577601Y-46273499D01*
X55577605Y-46273500D01*
X55577606Y-46273500D01*
X55577607Y-46273500D01*
X55702394Y-46273500D01*
X55986614Y-46273500D01*
X56053653Y-46293185D01*
X56074290Y-46309814D01*
X56116130Y-46351654D01*
X56148993Y-46384517D01*
X56305973Y-46489408D01*
X56305979Y-46489411D01*
X56305980Y-46489412D01*
X56480416Y-46561666D01*
X56665591Y-46598499D01*
X56665595Y-46598500D01*
X56665596Y-46598500D01*
X58454405Y-46598500D01*
X58454406Y-46598499D01*
X58639584Y-46561666D01*
X58814020Y-46489412D01*
X58971008Y-46384516D01*
X59104516Y-46251008D01*
X59209412Y-46094020D01*
X59261439Y-45968415D01*
X59305280Y-45914012D01*
X59371574Y-45891947D01*
X59439273Y-45909226D01*
X59486884Y-45960363D01*
X59500000Y-46015868D01*
X59500000Y-49376000D01*
X59480315Y-49443039D01*
X59427511Y-49488794D01*
X59376000Y-49500000D01*
X20624000Y-49500000D01*
X20556961Y-49480315D01*
X20511206Y-49427511D01*
X20500000Y-49376000D01*
X20500000Y-42663758D01*
X20519685Y-42596719D01*
X20572489Y-42550964D01*
X20641647Y-42541020D01*
X20671456Y-42549198D01*
X20694357Y-42558684D01*
X20694361Y-42558685D01*
X20876921Y-42594999D01*
X20876924Y-42595000D01*
X21050000Y-42595000D01*
X21050000Y-41900000D01*
X21550000Y-41900000D01*
X21550000Y-42595000D01*
X21723076Y-42595000D01*
X21723078Y-42594999D01*
X21905638Y-42558685D01*
X21905646Y-42558683D01*
X22077622Y-42487449D01*
X22077631Y-42487444D01*
X22232401Y-42384029D01*
X22232405Y-42384026D01*
X22364026Y-42252405D01*
X22364029Y-42252401D01*
X22467444Y-42097631D01*
X22467451Y-42097618D01*
X22538682Y-41925649D01*
X22538683Y-41925644D01*
X22543784Y-41900000D01*
X21674728Y-41900000D01*
X21766614Y-41861940D01*
X21836940Y-41791614D01*
X21838994Y-41786654D01*
X25600001Y-41786654D01*
X25610319Y-41887652D01*
X25664546Y-42051300D01*
X25664551Y-42051311D01*
X25755052Y-42198034D01*
X25755055Y-42198038D01*
X25876961Y-42319944D01*
X25876965Y-42319947D01*
X26023688Y-42410448D01*
X26023699Y-42410453D01*
X26187347Y-42464680D01*
X26288351Y-42474999D01*
X26387500Y-42474998D01*
X26387500Y-41750000D01*
X25600001Y-41750000D01*
X25600001Y-41786654D01*
X21838994Y-41786654D01*
X21875000Y-41699728D01*
X21875000Y-41600272D01*
X21836940Y-41508386D01*
X21766614Y-41438060D01*
X21674728Y-41400000D01*
X22543784Y-41400000D01*
X22538683Y-41374355D01*
X22538682Y-41374350D01*
X22467451Y-41202381D01*
X22467444Y-41202368D01*
X22364029Y-41047598D01*
X22364026Y-41047594D01*
X22232405Y-40915973D01*
X22232401Y-40915970D01*
X22077631Y-40812555D01*
X22077622Y-40812550D01*
X21905646Y-40741316D01*
X21905638Y-40741314D01*
X21723077Y-40705000D01*
X21550000Y-40705000D01*
X21550000Y-41400000D01*
X21050000Y-41400000D01*
X21050000Y-40705000D01*
X20876923Y-40705000D01*
X20694361Y-40741314D01*
X20694349Y-40741317D01*
X20671452Y-40750802D01*
X20601983Y-40758271D01*
X20539504Y-40726996D01*
X20503852Y-40666907D01*
X20500000Y-40636241D01*
X20500000Y-35663758D01*
X20519685Y-35596719D01*
X20572489Y-35550964D01*
X20641647Y-35541020D01*
X20671456Y-35549198D01*
X20694357Y-35558684D01*
X20694361Y-35558685D01*
X20876921Y-35594999D01*
X20876924Y-35595000D01*
X21050000Y-35595000D01*
X21050000Y-34900000D01*
X21550000Y-34900000D01*
X21550000Y-35595000D01*
X21723076Y-35595000D01*
X21723078Y-35594999D01*
X21905638Y-35558685D01*
X21905646Y-35558683D01*
X22077622Y-35487449D01*
X22077631Y-35487444D01*
X22232401Y-35384029D01*
X22232405Y-35384026D01*
X22364026Y-35252405D01*
X22364029Y-35252401D01*
X22467444Y-35097631D01*
X22467451Y-35097618D01*
X22538682Y-34925649D01*
X22538683Y-34925644D01*
X22543784Y-34900000D01*
X21674728Y-34900000D01*
X21766614Y-34861940D01*
X21836940Y-34791614D01*
X21875000Y-34699728D01*
X21875000Y-34600272D01*
X21836940Y-34508386D01*
X21766614Y-34438060D01*
X21674728Y-34400000D01*
X22543784Y-34400000D01*
X22538683Y-34374355D01*
X22538682Y-34374350D01*
X22467451Y-34202381D01*
X22467444Y-34202368D01*
X22364029Y-34047598D01*
X22364026Y-34047594D01*
X22232405Y-33915973D01*
X22232401Y-33915970D01*
X22077631Y-33812555D01*
X22077622Y-33812550D01*
X21905646Y-33741316D01*
X21905638Y-33741314D01*
X21723077Y-33705000D01*
X21550000Y-33705000D01*
X21550000Y-34400000D01*
X21050000Y-34400000D01*
X21050000Y-33705000D01*
X20876923Y-33705000D01*
X20694361Y-33741314D01*
X20694349Y-33741317D01*
X20671452Y-33750802D01*
X20601983Y-33758271D01*
X20539504Y-33726996D01*
X20503852Y-33666907D01*
X20500000Y-33636241D01*
X20500000Y-33179801D01*
X20519685Y-33112762D01*
X20572489Y-33067007D01*
X20633731Y-33056184D01*
X20663157Y-33058500D01*
X22036842Y-33058499D01*
X22113971Y-33052430D01*
X22293362Y-33004362D01*
X22458839Y-32920047D01*
X22603170Y-32803170D01*
X22652572Y-32742162D01*
X22710055Y-32702454D01*
X22779885Y-32700126D01*
X22836616Y-32732520D01*
X24495994Y-34391898D01*
X24529479Y-34453221D01*
X24524495Y-34522913D01*
X24482623Y-34578846D01*
X24417159Y-34603263D01*
X24360860Y-34594140D01*
X24284397Y-34562468D01*
X24284389Y-34562466D01*
X24250000Y-34555625D01*
X24250000Y-35384943D01*
X24233134Y-35344225D01*
X24155775Y-35266866D01*
X24054701Y-35225000D01*
X23945299Y-35225000D01*
X23844225Y-35266866D01*
X23766866Y-35344225D01*
X23750000Y-35384943D01*
X23750000Y-34555625D01*
X23715610Y-34562466D01*
X23715602Y-34562468D01*
X23538166Y-34635964D01*
X23538157Y-34635969D01*
X23378473Y-34742667D01*
X23378469Y-34742670D01*
X23242670Y-34878469D01*
X23242667Y-34878473D01*
X23135969Y-35038157D01*
X23135964Y-35038166D01*
X23062468Y-35215602D01*
X23062466Y-35215610D01*
X23025789Y-35399999D01*
X23025790Y-35400000D01*
X23743763Y-35400000D01*
X23725000Y-35445299D01*
X23725000Y-35854701D01*
X23743763Y-35900000D01*
X23025789Y-35900000D01*
X23062466Y-36084389D01*
X23062468Y-36084397D01*
X23135964Y-36261833D01*
X23135969Y-36261842D01*
X23242667Y-36421526D01*
X23242670Y-36421530D01*
X23378469Y-36557329D01*
X23378473Y-36557332D01*
X23538157Y-36664030D01*
X23538167Y-36664035D01*
X23715599Y-36737530D01*
X23715606Y-36737533D01*
X23750000Y-36744373D01*
X23750000Y-35915056D01*
X23766866Y-35955775D01*
X23844225Y-36033134D01*
X23945299Y-36075000D01*
X24054701Y-36075000D01*
X24155775Y-36033134D01*
X24233134Y-35955775D01*
X24250000Y-35915056D01*
X24250000Y-36744372D01*
X24284393Y-36737533D01*
X24284400Y-36737530D01*
X24461832Y-36664035D01*
X24461842Y-36664030D01*
X24621526Y-36557332D01*
X24621530Y-36557329D01*
X24654819Y-36524041D01*
X24716142Y-36490556D01*
X24785834Y-36495540D01*
X24841767Y-36537412D01*
X24866184Y-36602876D01*
X24866500Y-36611722D01*
X24866500Y-38602163D01*
X24846815Y-38669202D01*
X24794011Y-38714957D01*
X24783461Y-38719201D01*
X24733416Y-38736713D01*
X24646983Y-38766957D01*
X24492718Y-38863889D01*
X24363889Y-38992718D01*
X24266958Y-39146982D01*
X24206782Y-39318953D01*
X24206781Y-39318958D01*
X24186384Y-39499996D01*
X24186384Y-39500003D01*
X24206781Y-39681038D01*
X24206782Y-39681044D01*
X24206782Y-39681046D01*
X24206783Y-39681047D01*
X24241653Y-39780701D01*
X24243042Y-39784669D01*
X24250000Y-39825623D01*
X24250000Y-40384943D01*
X24233134Y-40344225D01*
X24155775Y-40266866D01*
X24054701Y-40225000D01*
X23945299Y-40225000D01*
X23844225Y-40266866D01*
X23766866Y-40344225D01*
X23750000Y-40384943D01*
X23750000Y-39555625D01*
X23715610Y-39562466D01*
X23715602Y-39562468D01*
X23538166Y-39635964D01*
X23538157Y-39635969D01*
X23378473Y-39742667D01*
X23378469Y-39742670D01*
X23242670Y-39878469D01*
X23242667Y-39878473D01*
X23135969Y-40038157D01*
X23135964Y-40038166D01*
X23062468Y-40215602D01*
X23062466Y-40215610D01*
X23025789Y-40399999D01*
X23025790Y-40400000D01*
X23743763Y-40400000D01*
X23725000Y-40445299D01*
X23725000Y-40854701D01*
X23743763Y-40900000D01*
X23025789Y-40900000D01*
X23062466Y-41084389D01*
X23062468Y-41084397D01*
X23135964Y-41261833D01*
X23135969Y-41261842D01*
X23242667Y-41421526D01*
X23242670Y-41421530D01*
X23378469Y-41557329D01*
X23378473Y-41557332D01*
X23538157Y-41664030D01*
X23538167Y-41664035D01*
X23715599Y-41737530D01*
X23715606Y-41737533D01*
X23750000Y-41744373D01*
X23750000Y-40915056D01*
X23766866Y-40955775D01*
X23844225Y-41033134D01*
X23945299Y-41075000D01*
X24054701Y-41075000D01*
X24155775Y-41033134D01*
X24233134Y-40955775D01*
X24250000Y-40915056D01*
X24250000Y-41744372D01*
X24284393Y-41737533D01*
X24284400Y-41737530D01*
X24461832Y-41664035D01*
X24461842Y-41664030D01*
X24621526Y-41557332D01*
X24621530Y-41557329D01*
X24757329Y-41421530D01*
X24757332Y-41421526D01*
X24864030Y-41261842D01*
X24864035Y-41261833D01*
X24937531Y-41084397D01*
X24937533Y-41084389D01*
X24974210Y-40900000D01*
X24256237Y-40900000D01*
X24275000Y-40854701D01*
X24275000Y-40445299D01*
X24256237Y-40400000D01*
X24974211Y-40400000D01*
X25004094Y-40363586D01*
X25033376Y-40325891D01*
X25092021Y-40303248D01*
X25181041Y-40293218D01*
X25181044Y-40293217D01*
X25181047Y-40293217D01*
X25353015Y-40233043D01*
X25507281Y-40136111D01*
X25636111Y-40007281D01*
X25733043Y-39853015D01*
X25758347Y-39780699D01*
X25799067Y-39723924D01*
X25864019Y-39698176D01*
X25932581Y-39711632D01*
X25963069Y-39733973D01*
X26542415Y-40313319D01*
X26575900Y-40374642D01*
X26570916Y-40444334D01*
X26529044Y-40500267D01*
X26463580Y-40524684D01*
X26454735Y-40525000D01*
X26288361Y-40525000D01*
X26288344Y-40525001D01*
X26187347Y-40535319D01*
X26023699Y-40589546D01*
X26023688Y-40589551D01*
X25876965Y-40680052D01*
X25876961Y-40680055D01*
X25755055Y-40801961D01*
X25755052Y-40801965D01*
X25664551Y-40948688D01*
X25664546Y-40948699D01*
X25610319Y-41112347D01*
X25600000Y-41213345D01*
X25600000Y-41250000D01*
X26763500Y-41250000D01*
X26830539Y-41269685D01*
X26876294Y-41322489D01*
X26887500Y-41374000D01*
X26887500Y-42474999D01*
X26986640Y-42474999D01*
X26986654Y-42474998D01*
X27087652Y-42464680D01*
X27251300Y-42410453D01*
X27251311Y-42410448D01*
X27398034Y-42319947D01*
X27406301Y-42311680D01*
X27467622Y-42278191D01*
X27537314Y-42283170D01*
X27581670Y-42311674D01*
X27596653Y-42326657D01*
X27596657Y-42326660D01*
X27745071Y-42418204D01*
X27745074Y-42418205D01*
X27745080Y-42418209D01*
X27910619Y-42473062D01*
X28012787Y-42483500D01*
X28712212Y-42483499D01*
X28814381Y-42473062D01*
X28979920Y-42418209D01*
X29128346Y-42326658D01*
X29251658Y-42203346D01*
X29343209Y-42054920D01*
X29398062Y-41889381D01*
X29408500Y-41787213D01*
X29408499Y-41212788D01*
X29398062Y-41110619D01*
X29343209Y-40945080D01*
X29343205Y-40945074D01*
X29343204Y-40945071D01*
X29251660Y-40796657D01*
X29251657Y-40796653D01*
X29128346Y-40673342D01*
X29128342Y-40673339D01*
X28979928Y-40581795D01*
X28979922Y-40581792D01*
X28979920Y-40581791D01*
X28979338Y-40581598D01*
X28814382Y-40526938D01*
X28712220Y-40516500D01*
X28712213Y-40516500D01*
X28588766Y-40516500D01*
X28521727Y-40496815D01*
X28501085Y-40480181D01*
X27608584Y-39587680D01*
X27575099Y-39526357D01*
X27580083Y-39456665D01*
X27608580Y-39412323D01*
X28126084Y-38894818D01*
X28187407Y-38861334D01*
X28213765Y-38858500D01*
X28731915Y-38858500D01*
X28731916Y-38858500D01*
X28943116Y-38825049D01*
X29146483Y-38758972D01*
X29337009Y-38661894D01*
X29510004Y-38536206D01*
X29661206Y-38385004D01*
X29786894Y-38212009D01*
X29883972Y-38021483D01*
X29950049Y-37818116D01*
X29983500Y-37606916D01*
X29983500Y-37393084D01*
X29950049Y-37181884D01*
X29905628Y-37045168D01*
X29883973Y-36978519D01*
X29883972Y-36978516D01*
X29815638Y-36844404D01*
X29786894Y-36787991D01*
X29661206Y-36614996D01*
X29522929Y-36476719D01*
X29489444Y-36415396D01*
X29494428Y-36345704D01*
X29536300Y-36289771D01*
X29545513Y-36283499D01*
X29693345Y-36192315D01*
X29817315Y-36068345D01*
X29909356Y-35919124D01*
X29909358Y-35919119D01*
X29964505Y-35752697D01*
X29964506Y-35752690D01*
X29974999Y-35649986D01*
X29975000Y-35649973D01*
X29975000Y-35250000D01*
X28908012Y-35250000D01*
X28940925Y-35192993D01*
X28975000Y-35065826D01*
X28975000Y-34934174D01*
X28940925Y-34807007D01*
X28908012Y-34750000D01*
X29974999Y-34750000D01*
X29974999Y-34350028D01*
X29974998Y-34350013D01*
X29964505Y-34247302D01*
X29909358Y-34080880D01*
X29909356Y-34080875D01*
X29817315Y-33931654D01*
X29693345Y-33807684D01*
X29544124Y-33715643D01*
X29544119Y-33715641D01*
X29377697Y-33660494D01*
X29377690Y-33660493D01*
X29274986Y-33650000D01*
X28725000Y-33650000D01*
X28725000Y-34566988D01*
X28667993Y-34534075D01*
X28540826Y-34500000D01*
X28409174Y-34500000D01*
X28282007Y-34534075D01*
X28225000Y-34566988D01*
X28225000Y-33650000D01*
X27675028Y-33650000D01*
X27675012Y-33650001D01*
X27572302Y-33660494D01*
X27405880Y-33715641D01*
X27405875Y-33715643D01*
X27256654Y-33807684D01*
X27132684Y-33931654D01*
X27040643Y-34080875D01*
X27040641Y-34080880D01*
X26985494Y-34247302D01*
X26985493Y-34247309D01*
X26975000Y-34350013D01*
X26975000Y-34750000D01*
X28041988Y-34750000D01*
X28009075Y-34807007D01*
X27975000Y-34934174D01*
X27975000Y-35065826D01*
X28009075Y-35192993D01*
X28041988Y-35250000D01*
X26975001Y-35250000D01*
X26975001Y-35649986D01*
X26985494Y-35752697D01*
X27040641Y-35919119D01*
X27040643Y-35919124D01*
X27132684Y-36068345D01*
X27256654Y-36192315D01*
X27404486Y-36283499D01*
X27451210Y-36335447D01*
X27462433Y-36404410D01*
X27434589Y-36468492D01*
X27427071Y-36476719D01*
X27288793Y-36614997D01*
X27163106Y-36787990D01*
X27066027Y-36978516D01*
X27066026Y-36978519D01*
X26999951Y-37181882D01*
X26966500Y-37393084D01*
X26966500Y-37606915D01*
X26999951Y-37818117D01*
X27066027Y-38021482D01*
X27072918Y-38035006D01*
X27085814Y-38103675D01*
X27059537Y-38168416D01*
X27050114Y-38178981D01*
X26712680Y-38516414D01*
X26651357Y-38549899D01*
X26581665Y-38544915D01*
X26537318Y-38516414D01*
X26169819Y-38148915D01*
X26136334Y-38087592D01*
X26133500Y-38061234D01*
X26133500Y-34437605D01*
X26133499Y-34437601D01*
X26121766Y-34378616D01*
X26109155Y-34315215D01*
X26074821Y-34232325D01*
X26061401Y-34199925D01*
X26048787Y-34181047D01*
X25992072Y-34096166D01*
X25992069Y-34096163D01*
X23203836Y-31307931D01*
X23203832Y-31307928D01*
X23100081Y-31238603D01*
X23100072Y-31238598D01*
X22984785Y-31190845D01*
X22984777Y-31190843D01*
X22890747Y-31172139D01*
X22828836Y-31139754D01*
X22804453Y-31106817D01*
X22773465Y-31046000D01*
X22720047Y-30941161D01*
X22603170Y-30796830D01*
X22540851Y-30746365D01*
X22501140Y-30688879D01*
X22498812Y-30619048D01*
X22534607Y-30559044D01*
X22540852Y-30553634D01*
X22603170Y-30503170D01*
X22720047Y-30358839D01*
X22771682Y-30257500D01*
X22800367Y-30201204D01*
X22848341Y-30150409D01*
X22910851Y-30133500D01*
X26017501Y-30133500D01*
X26084540Y-30153185D01*
G37*
%TD.AperFunction*%
%TA.AperFunction,Conductor*%
G36*
X35531481Y-23328185D02*
G01*
X35577236Y-23380989D01*
X35581370Y-23391516D01*
X35581795Y-23392428D01*
X35673339Y-23540842D01*
X35673342Y-23540846D01*
X35688325Y-23555829D01*
X35721810Y-23617152D01*
X35716826Y-23686844D01*
X35688329Y-23731188D01*
X35680052Y-23739465D01*
X35589551Y-23886188D01*
X35589546Y-23886199D01*
X35535319Y-24049847D01*
X35525000Y-24150845D01*
X35525000Y-24250000D01*
X36626000Y-24250000D01*
X36693039Y-24269685D01*
X36738794Y-24322489D01*
X36750000Y-24374000D01*
X36750000Y-25537499D01*
X36786640Y-25537499D01*
X36786654Y-25537498D01*
X36887652Y-25527180D01*
X37051300Y-25472953D01*
X37051307Y-25472950D01*
X37177402Y-25395173D01*
X37244795Y-25376732D01*
X37311458Y-25397654D01*
X37356228Y-25451296D01*
X37366500Y-25500711D01*
X37366500Y-26952839D01*
X37347494Y-27018811D01*
X37266956Y-27146984D01*
X37266955Y-27146988D01*
X37234967Y-27238405D01*
X37194246Y-27295181D01*
X37129293Y-27320928D01*
X37060731Y-27307472D01*
X37052827Y-27302987D01*
X37051308Y-27302050D01*
X37051300Y-27302046D01*
X36887652Y-27247819D01*
X36786654Y-27237500D01*
X36750000Y-27237500D01*
X36750000Y-28025000D01*
X37330246Y-28025000D01*
X37397285Y-28044685D01*
X37417927Y-28061319D01*
X37492719Y-28136111D01*
X37646985Y-28233043D01*
X37804378Y-28288117D01*
X37818953Y-28293217D01*
X37818958Y-28293218D01*
X37953427Y-28308369D01*
X38017841Y-28335435D01*
X38057397Y-28393030D01*
X38059534Y-28462867D01*
X38027230Y-28519266D01*
X38022086Y-28524410D01*
X37918124Y-28679999D01*
X37918119Y-28680008D01*
X37846507Y-28852896D01*
X37846506Y-28852899D01*
X37841115Y-28879999D01*
X37841116Y-28880000D01*
X41278884Y-28880000D01*
X41278884Y-28879999D01*
X41273493Y-28852899D01*
X41273492Y-28852896D01*
X41201880Y-28680008D01*
X41201875Y-28679999D01*
X41097913Y-28524410D01*
X41097910Y-28524406D01*
X40965593Y-28392089D01*
X40965589Y-28392086D01*
X40810000Y-28288124D01*
X40809987Y-28288117D01*
X40690346Y-28238561D01*
X40635942Y-28194720D01*
X40613877Y-28128426D01*
X40631156Y-28060727D01*
X40682293Y-28013116D01*
X40737798Y-28000000D01*
X56382202Y-28000000D01*
X56449241Y-28019685D01*
X56494996Y-28072489D01*
X56504940Y-28141647D01*
X56475915Y-28205203D01*
X56429654Y-28238561D01*
X56310012Y-28288117D01*
X56309999Y-28288124D01*
X56154410Y-28392086D01*
X56154406Y-28392089D01*
X56022089Y-28524406D01*
X56022086Y-28524410D01*
X55918124Y-28679999D01*
X55918119Y-28680008D01*
X55846507Y-28852896D01*
X55846506Y-28852899D01*
X55841115Y-28879999D01*
X55841116Y-28880000D01*
X57686000Y-28880000D01*
X57753039Y-28899685D01*
X57798794Y-28952489D01*
X57810000Y-29004000D01*
X57810000Y-29256000D01*
X57790315Y-29323039D01*
X57737511Y-29368794D01*
X57686000Y-29380000D01*
X55841116Y-29380000D01*
X55846506Y-29407100D01*
X55846507Y-29407103D01*
X55918119Y-29579991D01*
X55918124Y-29580000D01*
X55990594Y-29688459D01*
X56011472Y-29755137D01*
X55992987Y-29822517D01*
X55990594Y-29826240D01*
X55910594Y-29945968D01*
X55910586Y-29945982D01*
X55838334Y-30120415D01*
X55838332Y-30120423D01*
X55801500Y-30305591D01*
X55801500Y-30494408D01*
X55838332Y-30679576D01*
X55838334Y-30679584D01*
X55910586Y-30854017D01*
X55910591Y-30854026D01*
X55985483Y-30966109D01*
X56006361Y-31032787D01*
X55987876Y-31100167D01*
X55985483Y-31103891D01*
X55910591Y-31215973D01*
X55910586Y-31215982D01*
X55838334Y-31390415D01*
X55838332Y-31390423D01*
X55801500Y-31575591D01*
X55801500Y-31764408D01*
X55838332Y-31949576D01*
X55838334Y-31949584D01*
X55910586Y-32124017D01*
X55910601Y-32124044D01*
X55910604Y-32124059D01*
X55912919Y-32129648D01*
X55911859Y-32130086D01*
X55924844Y-32192446D01*
X55899846Y-32257691D01*
X55843542Y-32299063D01*
X55801244Y-32306500D01*
X43493718Y-32306500D01*
X43371335Y-32330843D01*
X43371330Y-32330845D01*
X43337564Y-32344829D01*
X43337565Y-32344830D01*
X43256042Y-32378598D01*
X43256038Y-32378600D01*
X43152287Y-32447924D01*
X43152285Y-32447925D01*
X43114237Y-32485974D01*
X42971167Y-32629045D01*
X42942368Y-32657844D01*
X42882927Y-32717284D01*
X42813603Y-32821034D01*
X42813598Y-32821043D01*
X42765845Y-32936330D01*
X42765843Y-32936338D01*
X42741500Y-33058717D01*
X42741500Y-33145902D01*
X42721815Y-33212941D01*
X42669011Y-33258696D01*
X42658463Y-33262940D01*
X42648526Y-33266417D01*
X42646982Y-33266958D01*
X42492718Y-33363889D01*
X42363889Y-33492718D01*
X42266958Y-33646982D01*
X42206782Y-33818953D01*
X42206781Y-33818958D01*
X42186384Y-33999996D01*
X42186384Y-34000003D01*
X42206781Y-34181041D01*
X42206782Y-34181046D01*
X42266958Y-34353017D01*
X42320109Y-34437606D01*
X42363889Y-34507281D01*
X42492719Y-34636111D01*
X42646985Y-34733043D01*
X42814372Y-34791614D01*
X42818953Y-34793217D01*
X42818958Y-34793218D01*
X42999996Y-34813616D01*
X43000000Y-34813616D01*
X43000004Y-34813616D01*
X43181041Y-34793218D01*
X43181044Y-34793217D01*
X43181047Y-34793217D01*
X43353015Y-34733043D01*
X43507281Y-34636111D01*
X43636111Y-34507281D01*
X43694218Y-34414803D01*
X43746550Y-34368514D01*
X43813094Y-34357557D01*
X43999997Y-34378616D01*
X44000000Y-34378616D01*
X44000004Y-34378616D01*
X44181041Y-34358218D01*
X44181044Y-34358217D01*
X44181047Y-34358217D01*
X44353015Y-34298043D01*
X44507281Y-34201111D01*
X44538573Y-34169819D01*
X44599896Y-34136334D01*
X44626254Y-34133500D01*
X44636000Y-34133500D01*
X44703039Y-34153185D01*
X44748794Y-34205989D01*
X44760000Y-34257500D01*
X44760000Y-36580000D01*
X51760000Y-36580000D01*
X51760000Y-34849757D01*
X51779685Y-34782718D01*
X51832489Y-34736963D01*
X51901647Y-34727019D01*
X51952890Y-34746655D01*
X51970019Y-34758100D01*
X51989917Y-34771396D01*
X51989919Y-34771397D01*
X51989925Y-34771401D01*
X52010285Y-34779834D01*
X52059145Y-34800073D01*
X52059150Y-34800074D01*
X52059152Y-34800075D01*
X52105215Y-34819155D01*
X52227601Y-34843499D01*
X52227605Y-34843500D01*
X52227606Y-34843500D01*
X52227607Y-34843500D01*
X52352394Y-34843500D01*
X55801244Y-34843500D01*
X55868283Y-34863185D01*
X55914038Y-34915989D01*
X55923982Y-34985147D01*
X55912495Y-35020176D01*
X55912919Y-35020352D01*
X55910613Y-35025918D01*
X55910601Y-35025956D01*
X55910586Y-35025982D01*
X55838334Y-35200415D01*
X55838332Y-35200423D01*
X55801500Y-35385591D01*
X55801500Y-35574408D01*
X55838332Y-35759576D01*
X55838334Y-35759584D01*
X55910586Y-35934017D01*
X55910591Y-35934026D01*
X55985483Y-36046109D01*
X56006361Y-36112787D01*
X55987876Y-36180167D01*
X55985483Y-36183891D01*
X55910591Y-36295973D01*
X55910586Y-36295982D01*
X55838334Y-36470415D01*
X55838332Y-36470423D01*
X55801500Y-36655591D01*
X55801500Y-36844408D01*
X55838332Y-37029576D01*
X55838334Y-37029584D01*
X55844789Y-37045168D01*
X55852256Y-37114638D01*
X55820980Y-37177117D01*
X55760891Y-37212768D01*
X55691066Y-37210273D01*
X55689273Y-37209661D01*
X55681049Y-37206783D01*
X55681041Y-37206781D01*
X55500004Y-37186384D01*
X55499996Y-37186384D01*
X55318958Y-37206781D01*
X55318953Y-37206782D01*
X55146982Y-37266958D01*
X54992718Y-37363889D01*
X54863889Y-37492718D01*
X54766958Y-37646982D01*
X54706782Y-37818953D01*
X54706781Y-37818958D01*
X54686384Y-37999996D01*
X54686384Y-38000003D01*
X54706781Y-38181041D01*
X54706782Y-38181046D01*
X54766958Y-38353017D01*
X54817860Y-38434028D01*
X54836860Y-38501265D01*
X54817860Y-38565972D01*
X54766958Y-38646982D01*
X54706782Y-38818953D01*
X54706781Y-38818958D01*
X54686384Y-38999996D01*
X54686384Y-39000003D01*
X54706781Y-39181041D01*
X54706782Y-39181046D01*
X54729361Y-39245572D01*
X54765711Y-39349455D01*
X54766958Y-39353017D01*
X54832085Y-39456665D01*
X54863889Y-39507281D01*
X54992719Y-39636111D01*
X55040077Y-39665868D01*
X55112909Y-39711632D01*
X55146985Y-39733043D01*
X55318953Y-39793217D01*
X55389916Y-39801212D01*
X55444919Y-39821327D01*
X55489925Y-39851400D01*
X55489927Y-39851401D01*
X55489929Y-39851402D01*
X55494123Y-39853139D01*
X55605215Y-39899155D01*
X55727601Y-39923499D01*
X55727605Y-39923500D01*
X55727606Y-39923500D01*
X55801244Y-39923500D01*
X55868283Y-39943185D01*
X55914038Y-39995989D01*
X55923982Y-40065147D01*
X55912495Y-40100176D01*
X55912919Y-40100352D01*
X55910613Y-40105918D01*
X55910601Y-40105956D01*
X55910586Y-40105982D01*
X55838334Y-40280415D01*
X55838332Y-40280423D01*
X55801500Y-40465591D01*
X55801500Y-40581598D01*
X55781815Y-40648637D01*
X55729011Y-40694392D01*
X55663617Y-40704818D01*
X55500004Y-40686384D01*
X55499996Y-40686384D01*
X55318958Y-40706781D01*
X55318953Y-40706782D01*
X55146982Y-40766958D01*
X54992718Y-40863889D01*
X54863889Y-40992718D01*
X54766958Y-41146982D01*
X54706782Y-41318953D01*
X54706781Y-41318958D01*
X54686384Y-41499996D01*
X54686384Y-41500003D01*
X54706781Y-41681041D01*
X54706782Y-41681046D01*
X54743736Y-41786654D01*
X54766957Y-41853015D01*
X54863889Y-42007281D01*
X54992719Y-42136111D01*
X55146985Y-42233043D01*
X55318953Y-42293217D01*
X55366038Y-42298522D01*
X55419551Y-42321007D01*
X55421102Y-42318687D01*
X55529918Y-42391396D01*
X55529924Y-42391399D01*
X55529925Y-42391400D01*
X55645215Y-42439155D01*
X55767601Y-42463499D01*
X55767605Y-42463500D01*
X55767606Y-42463500D01*
X55801244Y-42463500D01*
X55868283Y-42483185D01*
X55914038Y-42535989D01*
X55923982Y-42605147D01*
X55912495Y-42640176D01*
X55912919Y-42640352D01*
X55910613Y-42645918D01*
X55910601Y-42645956D01*
X55910586Y-42645982D01*
X55838334Y-42820415D01*
X55838332Y-42820423D01*
X55801500Y-43005591D01*
X55801500Y-43194408D01*
X55838332Y-43379576D01*
X55838334Y-43379584D01*
X55910586Y-43554017D01*
X55910601Y-43554044D01*
X55910604Y-43554059D01*
X55912919Y-43559648D01*
X55911859Y-43560086D01*
X55924844Y-43622446D01*
X55899846Y-43687691D01*
X55843542Y-43729063D01*
X55801244Y-43736500D01*
X43646585Y-43736500D01*
X43524206Y-43760842D01*
X43524197Y-43760845D01*
X43408908Y-43808599D01*
X43408905Y-43808600D01*
X43305151Y-43877927D01*
X43305147Y-43877930D01*
X41530181Y-45652897D01*
X41468858Y-45686382D01*
X41399166Y-45681398D01*
X41343233Y-45639526D01*
X41318816Y-45574062D01*
X41318500Y-45565216D01*
X41318500Y-45545595D01*
X41318499Y-45545591D01*
X41304337Y-45474394D01*
X41281666Y-45360416D01*
X41209412Y-45185980D01*
X41134515Y-45073889D01*
X41113638Y-45007214D01*
X41132122Y-44939834D01*
X41134502Y-44936130D01*
X41209412Y-44824020D01*
X41281666Y-44649584D01*
X41318500Y-44464404D01*
X41318500Y-44275596D01*
X41281666Y-44090416D01*
X41209412Y-43915980D01*
X41134515Y-43803889D01*
X41113638Y-43737214D01*
X41132122Y-43669834D01*
X41134502Y-43666130D01*
X41209412Y-43554020D01*
X41281666Y-43379584D01*
X41318500Y-43194404D01*
X41318500Y-43005596D01*
X41281666Y-42820416D01*
X41209412Y-42645980D01*
X41134515Y-42533889D01*
X41113638Y-42467214D01*
X41132122Y-42399834D01*
X41134502Y-42396130D01*
X41209412Y-42284020D01*
X41281666Y-42109584D01*
X41318500Y-41924404D01*
X41318500Y-41735596D01*
X41281666Y-41550416D01*
X41225780Y-41415497D01*
X41209413Y-41375982D01*
X41209408Y-41375974D01*
X41197732Y-41358500D01*
X41134515Y-41263889D01*
X41113638Y-41197214D01*
X41132122Y-41129834D01*
X41134502Y-41126130D01*
X41209412Y-41014020D01*
X41281666Y-40839584D01*
X41318500Y-40654404D01*
X41318500Y-40465596D01*
X41281666Y-40280416D01*
X41209412Y-40105980D01*
X41134515Y-39993889D01*
X41113638Y-39927214D01*
X41127181Y-39877844D01*
X44760000Y-39877844D01*
X44766401Y-39937372D01*
X44766403Y-39937379D01*
X44816645Y-40072086D01*
X44816649Y-40072093D01*
X44902809Y-40187187D01*
X44902812Y-40187190D01*
X45017906Y-40273350D01*
X45017913Y-40273354D01*
X45152620Y-40323596D01*
X45152627Y-40323598D01*
X45212155Y-40329999D01*
X45212172Y-40330000D01*
X48010000Y-40330000D01*
X48510000Y-40330000D01*
X51307828Y-40330000D01*
X51307844Y-40329999D01*
X51367372Y-40323598D01*
X51367379Y-40323596D01*
X51502086Y-40273354D01*
X51502093Y-40273350D01*
X51617187Y-40187190D01*
X51617190Y-40187187D01*
X51703350Y-40072093D01*
X51703354Y-40072086D01*
X51753596Y-39937379D01*
X51753598Y-39937372D01*
X51759999Y-39877844D01*
X51760000Y-39877827D01*
X51760000Y-37080000D01*
X48510000Y-37080000D01*
X48510000Y-40330000D01*
X48010000Y-40330000D01*
X48010000Y-37080000D01*
X44760000Y-37080000D01*
X44760000Y-39877844D01*
X41127181Y-39877844D01*
X41132122Y-39859834D01*
X41134502Y-39856130D01*
X41209412Y-39744020D01*
X41281666Y-39569584D01*
X41318500Y-39384404D01*
X41318500Y-39195596D01*
X41281666Y-39010416D01*
X41209412Y-38835980D01*
X41134515Y-38723889D01*
X41113638Y-38657214D01*
X41132122Y-38589834D01*
X41134502Y-38586130D01*
X41209412Y-38474020D01*
X41281666Y-38299584D01*
X41318500Y-38114404D01*
X41318500Y-37925596D01*
X41281666Y-37740416D01*
X41209412Y-37565980D01*
X41134515Y-37453889D01*
X41113638Y-37387214D01*
X41132122Y-37319834D01*
X41134502Y-37316130D01*
X41209412Y-37204020D01*
X41281666Y-37029584D01*
X41318500Y-36844404D01*
X41318500Y-36655596D01*
X41281666Y-36470416D01*
X41209412Y-36295980D01*
X41134515Y-36183889D01*
X41113638Y-36117214D01*
X41132122Y-36049834D01*
X41134502Y-36046130D01*
X41209412Y-35934020D01*
X41281666Y-35759584D01*
X41318500Y-35574404D01*
X41318500Y-35385596D01*
X41281666Y-35200416D01*
X41209412Y-35025980D01*
X41134515Y-34913889D01*
X41113638Y-34847214D01*
X41132122Y-34779834D01*
X41134502Y-34776130D01*
X41209412Y-34664020D01*
X41281666Y-34489584D01*
X41318500Y-34304404D01*
X41318500Y-34115596D01*
X41281666Y-33930416D01*
X41225570Y-33794988D01*
X41209413Y-33755982D01*
X41209408Y-33755974D01*
X41199612Y-33741314D01*
X41134515Y-33643889D01*
X41113638Y-33577214D01*
X41132122Y-33509834D01*
X41134502Y-33506130D01*
X41209412Y-33394020D01*
X41281666Y-33219584D01*
X41318500Y-33034404D01*
X41318500Y-32845596D01*
X41281666Y-32660416D01*
X41209412Y-32485980D01*
X41134515Y-32373889D01*
X41113638Y-32307214D01*
X41132122Y-32239834D01*
X41134502Y-32236130D01*
X41209412Y-32124020D01*
X41281666Y-31949584D01*
X41318500Y-31764404D01*
X41318500Y-31575596D01*
X41281666Y-31390416D01*
X41209412Y-31215980D01*
X41134515Y-31103889D01*
X41113638Y-31037214D01*
X41132122Y-30969834D01*
X41134502Y-30966130D01*
X41209412Y-30854020D01*
X41281666Y-30679584D01*
X41318500Y-30494404D01*
X41318500Y-30305596D01*
X41281666Y-30120416D01*
X41209412Y-29945980D01*
X41209411Y-29945979D01*
X41209408Y-29945973D01*
X41129405Y-29826240D01*
X41108527Y-29759562D01*
X41127012Y-29692182D01*
X41129405Y-29688457D01*
X41201878Y-29579994D01*
X41201880Y-29579991D01*
X41273492Y-29407103D01*
X41273493Y-29407100D01*
X41278884Y-29380000D01*
X39302474Y-29380000D01*
X39278284Y-29377617D01*
X39258163Y-29373614D01*
X39222396Y-29366500D01*
X39222394Y-29366500D01*
X37477497Y-29366500D01*
X37410458Y-29346815D01*
X37371959Y-29307597D01*
X37326660Y-29234157D01*
X37326657Y-29234153D01*
X37311674Y-29219170D01*
X37278189Y-29157847D01*
X37283173Y-29088155D01*
X37311680Y-29043801D01*
X37319947Y-29035534D01*
X37410448Y-28888811D01*
X37410453Y-28888800D01*
X37464680Y-28725152D01*
X37474999Y-28624154D01*
X37475000Y-28624141D01*
X37475000Y-28525000D01*
X35525001Y-28525000D01*
X35525001Y-28624154D01*
X35535319Y-28725152D01*
X35589546Y-28888800D01*
X35589551Y-28888811D01*
X35680052Y-29035534D01*
X35680055Y-29035538D01*
X35688325Y-29043808D01*
X35721810Y-29105131D01*
X35716826Y-29174823D01*
X35688327Y-29219168D01*
X35673343Y-29234152D01*
X35673339Y-29234157D01*
X35628041Y-29307597D01*
X35576093Y-29354322D01*
X35522503Y-29366500D01*
X34477497Y-29366500D01*
X34410458Y-29346815D01*
X34371959Y-29307597D01*
X34326660Y-29234157D01*
X34326657Y-29234153D01*
X34311674Y-29219170D01*
X34278189Y-29157847D01*
X34283173Y-29088155D01*
X34311680Y-29043801D01*
X34319947Y-29035534D01*
X34410448Y-28888811D01*
X34410453Y-28888800D01*
X34464680Y-28725152D01*
X34474999Y-28624154D01*
X34475000Y-28624141D01*
X34475000Y-28525000D01*
X33374000Y-28525000D01*
X33306961Y-28505315D01*
X33261206Y-28452511D01*
X33250000Y-28401000D01*
X33250000Y-28025000D01*
X33750000Y-28025000D01*
X34474999Y-28025000D01*
X34474999Y-27925860D01*
X34474998Y-27925845D01*
X35525000Y-27925845D01*
X35525000Y-28025000D01*
X36250000Y-28025000D01*
X36250000Y-27237500D01*
X36213361Y-27237500D01*
X36213343Y-27237501D01*
X36112347Y-27247819D01*
X35948699Y-27302046D01*
X35948688Y-27302051D01*
X35801965Y-27392552D01*
X35801961Y-27392555D01*
X35680055Y-27514461D01*
X35680052Y-27514465D01*
X35589551Y-27661188D01*
X35589546Y-27661199D01*
X35535319Y-27824847D01*
X35525000Y-27925845D01*
X34474998Y-27925845D01*
X34464680Y-27824847D01*
X34410453Y-27661199D01*
X34410448Y-27661188D01*
X34319947Y-27514465D01*
X34319944Y-27514461D01*
X34198038Y-27392555D01*
X34198034Y-27392552D01*
X34051311Y-27302051D01*
X34051300Y-27302046D01*
X33887652Y-27247819D01*
X33786654Y-27237500D01*
X33750000Y-27237500D01*
X33750000Y-28025000D01*
X33250000Y-28025000D01*
X33250000Y-27237500D01*
X33213361Y-27237500D01*
X33213343Y-27237501D01*
X33112347Y-27247819D01*
X32948699Y-27302046D01*
X32948694Y-27302048D01*
X32822597Y-27379827D01*
X32755205Y-27398267D01*
X32688541Y-27377345D01*
X32643771Y-27323703D01*
X32633500Y-27274288D01*
X32633500Y-25460698D01*
X32653185Y-25393659D01*
X32705989Y-25347904D01*
X32775147Y-25337960D01*
X32822595Y-25355159D01*
X32945080Y-25430709D01*
X33110619Y-25485562D01*
X33212787Y-25496000D01*
X33787212Y-25495999D01*
X33889381Y-25485562D01*
X34054920Y-25430709D01*
X34203346Y-25339158D01*
X34326658Y-25215846D01*
X34418209Y-25067420D01*
X34473062Y-24901881D01*
X34478449Y-24849154D01*
X35525001Y-24849154D01*
X35535319Y-24950152D01*
X35589546Y-25113800D01*
X35589551Y-25113811D01*
X35680052Y-25260534D01*
X35680055Y-25260538D01*
X35801961Y-25382444D01*
X35801965Y-25382447D01*
X35948688Y-25472948D01*
X35948699Y-25472953D01*
X36112347Y-25527180D01*
X36213352Y-25537499D01*
X36250000Y-25537499D01*
X36250000Y-24750000D01*
X35525001Y-24750000D01*
X35525001Y-24849154D01*
X34478449Y-24849154D01*
X34483500Y-24799713D01*
X34483499Y-24200288D01*
X34473062Y-24098119D01*
X34418209Y-23932580D01*
X34418205Y-23932574D01*
X34418204Y-23932571D01*
X34326660Y-23784157D01*
X34326657Y-23784153D01*
X34217685Y-23675181D01*
X34184200Y-23613858D01*
X34189184Y-23544166D01*
X34217685Y-23499819D01*
X34326658Y-23390846D01*
X34341117Y-23367403D01*
X34393064Y-23320679D01*
X34446656Y-23308500D01*
X35464442Y-23308500D01*
X35531481Y-23328185D01*
G37*
%TD.AperFunction*%
%TA.AperFunction,Conductor*%
G36*
X21464022Y-20519685D02*
G01*
X21509777Y-20572489D01*
X21520341Y-20636603D01*
X21512500Y-20713345D01*
X21512500Y-20750000D01*
X22626000Y-20750000D01*
X22693039Y-20769685D01*
X22738794Y-20822489D01*
X22750000Y-20874000D01*
X22750000Y-21901000D01*
X22730315Y-21968039D01*
X22709078Y-21986440D01*
X22711319Y-21988681D01*
X22675000Y-22025000D01*
X22675000Y-25126000D01*
X22655315Y-25193039D01*
X22602511Y-25238794D01*
X22551000Y-25250000D01*
X21437501Y-25250000D01*
X21437501Y-25286654D01*
X21447819Y-25387652D01*
X21502046Y-25551300D01*
X21502051Y-25551311D01*
X21592552Y-25698034D01*
X21592555Y-25698038D01*
X21634577Y-25740060D01*
X21668062Y-25801383D01*
X21663078Y-25871075D01*
X21634578Y-25915422D01*
X21600000Y-25950000D01*
X21600000Y-26950000D01*
X22850000Y-26950000D01*
X22850000Y-26748903D01*
X22847102Y-26706175D01*
X22801168Y-26521476D01*
X22716609Y-26350977D01*
X22716607Y-26350974D01*
X22597368Y-26202635D01*
X22588674Y-26195646D01*
X22548756Y-26138302D01*
X22546176Y-26068480D01*
X22581755Y-26008348D01*
X22644196Y-25976996D01*
X22666362Y-25974999D01*
X22724140Y-25974999D01*
X22724154Y-25974998D01*
X22825152Y-25964680D01*
X22988800Y-25910453D01*
X22988811Y-25910448D01*
X23135533Y-25819948D01*
X23243807Y-25711674D01*
X23305130Y-25678189D01*
X23374822Y-25683173D01*
X23419170Y-25711674D01*
X23534153Y-25826657D01*
X23534157Y-25826660D01*
X23682571Y-25918204D01*
X23682574Y-25918205D01*
X23682580Y-25918209D01*
X23848119Y-25973062D01*
X23950287Y-25983500D01*
X24549712Y-25983499D01*
X24651881Y-25973062D01*
X24817420Y-25918209D01*
X24965846Y-25826658D01*
X25089158Y-25703346D01*
X25095907Y-25692403D01*
X25147854Y-25645679D01*
X25201446Y-25633500D01*
X25761054Y-25633500D01*
X25828093Y-25653185D01*
X25866593Y-25692404D01*
X25873341Y-25703345D01*
X25996653Y-25826657D01*
X25996657Y-25826660D01*
X26145071Y-25918204D01*
X26145074Y-25918205D01*
X26145080Y-25918209D01*
X26310619Y-25973062D01*
X26412787Y-25983500D01*
X27087212Y-25983499D01*
X27189381Y-25973062D01*
X27354920Y-25918209D01*
X27503346Y-25826658D01*
X27537319Y-25792685D01*
X27598642Y-25759200D01*
X27668334Y-25764184D01*
X27712681Y-25792685D01*
X27746653Y-25826657D01*
X27746657Y-25826660D01*
X27895071Y-25918204D01*
X27895074Y-25918205D01*
X27895080Y-25918209D01*
X28060619Y-25973062D01*
X28162787Y-25983500D01*
X28837212Y-25983499D01*
X28939381Y-25973062D01*
X29104920Y-25918209D01*
X29253346Y-25826658D01*
X29376658Y-25703346D01*
X29383407Y-25692403D01*
X29435354Y-25645679D01*
X29488946Y-25633500D01*
X30452840Y-25633500D01*
X30518812Y-25652507D01*
X30646977Y-25733039D01*
X30646980Y-25733041D01*
X30646984Y-25733042D01*
X30646985Y-25733043D01*
X30788274Y-25782482D01*
X30818953Y-25793217D01*
X30818958Y-25793218D01*
X30999996Y-25813616D01*
X31000000Y-25813616D01*
X31000004Y-25813616D01*
X31181041Y-25793218D01*
X31181043Y-25793217D01*
X31181047Y-25793217D01*
X31181050Y-25793216D01*
X31201544Y-25786045D01*
X31271322Y-25782482D01*
X31331950Y-25817210D01*
X31364178Y-25879203D01*
X31366500Y-25903086D01*
X31366500Y-29242500D01*
X31346815Y-29309539D01*
X31294011Y-29355294D01*
X31242500Y-29366500D01*
X31047160Y-29366500D01*
X30981188Y-29347493D01*
X30853022Y-29266960D01*
X30853019Y-29266958D01*
X30681046Y-29206782D01*
X30681041Y-29206781D01*
X30500004Y-29186384D01*
X30499996Y-29186384D01*
X30318958Y-29206781D01*
X30318953Y-29206782D01*
X30146980Y-29266958D01*
X30146977Y-29266960D01*
X30018812Y-29347493D01*
X29952840Y-29366500D01*
X29282499Y-29366500D01*
X29215460Y-29346815D01*
X29169705Y-29294011D01*
X29158499Y-29242500D01*
X29158499Y-28050457D01*
X29155468Y-28019685D01*
X29143908Y-27902299D01*
X29086241Y-27712196D01*
X29086239Y-27712193D01*
X29086239Y-27712191D01*
X28992598Y-27537001D01*
X28992594Y-27536994D01*
X28866568Y-27383431D01*
X28713005Y-27257405D01*
X28712998Y-27257401D01*
X28537808Y-27163760D01*
X28442752Y-27134925D01*
X28347701Y-27106092D01*
X28347699Y-27106091D01*
X28347701Y-27106091D01*
X28241415Y-27095623D01*
X28199547Y-27091500D01*
X28199543Y-27091500D01*
X27100457Y-27091500D01*
X26952300Y-27106091D01*
X26762191Y-27163760D01*
X26587001Y-27257401D01*
X26586994Y-27257405D01*
X26433431Y-27383431D01*
X26307405Y-27536994D01*
X26307401Y-27537001D01*
X26213760Y-27712191D01*
X26156091Y-27902300D01*
X26141500Y-28050456D01*
X26141500Y-28742500D01*
X26121815Y-28809539D01*
X26069011Y-28855294D01*
X26017500Y-28866500D01*
X22910851Y-28866500D01*
X22843812Y-28846815D01*
X22800367Y-28798796D01*
X22755002Y-28709764D01*
X22720047Y-28641161D01*
X22603170Y-28496830D01*
X22534133Y-28440925D01*
X22494423Y-28383439D01*
X22492095Y-28313608D01*
X22527891Y-28253604D01*
X22534484Y-28247912D01*
X22597367Y-28197366D01*
X22716607Y-28049025D01*
X22716609Y-28049022D01*
X22801168Y-27878523D01*
X22847102Y-27693824D01*
X22850000Y-27651096D01*
X22850000Y-27450000D01*
X21224000Y-27450000D01*
X21156961Y-27430315D01*
X21111206Y-27377511D01*
X21100000Y-27326000D01*
X21100000Y-25950000D01*
X20648892Y-25950000D01*
X20632384Y-25951119D01*
X20564167Y-25936013D01*
X20514947Y-25886423D01*
X20500000Y-25827403D01*
X20500000Y-24713345D01*
X21437500Y-24713345D01*
X21437500Y-24750000D01*
X22175000Y-24750000D01*
X22175000Y-23250000D01*
X21437501Y-23250000D01*
X21437501Y-23286654D01*
X21447819Y-23387652D01*
X21502046Y-23551300D01*
X21502051Y-23551311D01*
X21592552Y-23698034D01*
X21592555Y-23698038D01*
X21714461Y-23819944D01*
X21714465Y-23819947D01*
X21835271Y-23894462D01*
X21881996Y-23946410D01*
X21893217Y-24015372D01*
X21865374Y-24079454D01*
X21835271Y-24105538D01*
X21714465Y-24180052D01*
X21714461Y-24180055D01*
X21592555Y-24301961D01*
X21592552Y-24301965D01*
X21502051Y-24448688D01*
X21502046Y-24448699D01*
X21447819Y-24612347D01*
X21437500Y-24713345D01*
X20500000Y-24713345D01*
X20500000Y-22713345D01*
X21437500Y-22713345D01*
X21437500Y-22750000D01*
X22175000Y-22750000D01*
X22175000Y-22098998D01*
X22194685Y-22031959D01*
X22215922Y-22013556D01*
X22213682Y-22011317D01*
X22250000Y-21974998D01*
X22250000Y-21250000D01*
X21512501Y-21250000D01*
X21512501Y-21286654D01*
X21522819Y-21387652D01*
X21577046Y-21551300D01*
X21577051Y-21551311D01*
X21667552Y-21698034D01*
X21667555Y-21698038D01*
X21789460Y-21819943D01*
X21873525Y-21871795D01*
X21920249Y-21923743D01*
X21931472Y-21992706D01*
X21903628Y-22056788D01*
X21866906Y-22085045D01*
X21867344Y-22085755D01*
X21714465Y-22180052D01*
X21714461Y-22180055D01*
X21592555Y-22301961D01*
X21592552Y-22301965D01*
X21502051Y-22448688D01*
X21502046Y-22448699D01*
X21447819Y-22612347D01*
X21437500Y-22713345D01*
X20500000Y-22713345D01*
X20500000Y-20624000D01*
X20519685Y-20556961D01*
X20572489Y-20511206D01*
X20624000Y-20500000D01*
X21396983Y-20500000D01*
X21464022Y-20519685D01*
G37*
%TD.AperFunction*%
%TD*%
M02*
